<svg width="1440" height="604" viewBox="0 0 1440 604" fill="none" xmlns="http://www.w3.org/2000/svg">
<g id="main">
<path id="retangulo-4" d="M785.138 269.569C1166.68 170.191 1453 0 1453 0V75.0285C1453 75.0285 1075.89 289.108 785.138 398.383C494.387 507.657 -58 581 -58 581L-29.7947 366.179C-29.7947 366.179 403.594 368.947 785.138 269.569Z" fill="url(#paint0_linear)"/>
<path id="retangulo-3" d="M807.745 287.615C1185.49 186.656 1454 20 1454 20V88.5729C1454 88.5729 1095.6 307.465 807.745 418.478C519.889 529.491 -27 604 -27 604L0.92458 385.762C0.92458 385.762 429.999 388.574 807.745 287.615Z" fill="url(#paint1_linear)"/>
<path id="retangulo-2" d="M698.976 111.42C1158.58 -45.1249 1443 93.9253 1443 93.9253V434.317C1443 434.317 1342.32 450.914 893.848 320.509C445.376 190.104 -5.81528 320.509 -5.81528 320.509L-38 39.6356C-38 39.6356 239.373 267.964 698.976 111.42Z" fill="url(#paint2_linear)"/>
<path id="retangulo-1" opacity="0.5" d="M683.402 103.883C1152.63 -80.9817 1443 83.2233 1443 83.2233V485.193C1443 485.193 1340.21 504.793 882.353 350.797C424.494 196.801 -36.1416 350.797 -36.1416 350.797L-69 19.1124C-69 19.1124 214.179 288.747 683.402 103.883Z" fill="url(#paint3_linear)"/>
<g id="equipamentos">
<g id="Servidor">
<path id="Rectangle 123" d="M846.802 139.389L1168.18 25.2273L1178.52 446.898L841.535 403.622L846.802 139.389Z" fill="url(#paint4_linear)"/>
<g id="Group 14">
<path id="Rectangle 124" d="M1103.24 55.8689L1161.58 36.7785L1171.43 430.151L1108.29 421.34L1103.24 55.8689Z" fill="url(#paint5_linear)"/>
<path id="Rectangle 125" d="M1107.54 63.076L1162 44.3511L1171.18 430.151L1112.25 421.512L1107.54 63.076Z" fill="url(#paint6_linear)"/>
</g>
<g id="Group 13">
<path id="Rectangle 126" d="M1033.99 80.8768L1084.98 63.4288L1093.58 422.925L1038.4 414.874L1033.99 80.8768Z" fill="#404040"/>
<path id="Rectangle 127" d="M1038.04 87.6712L1085.22 71.7984L1093.58 422.924L1042.04 415.054L1038.04 87.6712Z" fill="url(#paint7_linear)"/>
</g>
<g id="Group 15">
<path id="Rectangle 126_2" d="M978.188 100.022L1019.28 86.1014L1021.32 414.107L977.197 409.693L978.188 100.022Z" fill="#404040"/>
<path id="Rectangle 127_2" d="M981.348 104.807L1019.27 92.8765L1021.57 414.506L981.121 410.094L981.348 104.807Z" fill="url(#paint8_linear)"/>
</g>
<g id="Group 16">
<path id="Rectangle 126_3" d="M928.98 117.126L964.237 105.194L963.251 408.488L926.483 404.876L928.98 117.126Z" fill="#404040"/>
<path id="Rectangle 127_3" d="M932.019 121.911L964.232 111.571L963.251 408.488L930.033 405.277L932.019 121.911Z" fill="url(#paint9_linear)"/>
</g>
<g id="Group 17">
<path id="Rectangle 126_4" d="M885.351 132.241L916.804 121.901L914.059 403.273L881.856 400.063L885.351 132.241Z" fill="#404040"/>
<path id="Rectangle 127_4" d="M888.645 136.303L916.799 127.879L914.059 403.273L885.152 400.463L888.645 136.303Z" fill="url(#paint10_linear)"/>
</g>
<g id="Group 18">
<path id="Rectangle 126_5" d="M848.572 144.97L875.459 135.822L871.967 398.063L843.821 395.254L848.572 144.97Z" fill="#404040"/>
<path id="Rectangle 127_5" d="M850.852 147.835L875.455 141.003L871.967 398.063L846.61 395.655L850.852 147.835Z" fill="url(#paint11_linear)"/>
</g>
<path id="Rectangle 128" d="M1168.18 25.2252L1220.13 75.8762L1219.87 420.62L1178.52 446.895L1168.18 25.2252Z" fill="url(#paint12_linear)"/>
<g id="Group 25">
<g id="Group 19">
<path id="Rectangle 129" d="M1111.63 151.234C1111.58 148.854 1113.21 146.766 1115.53 146.243L1155.07 137.349C1158.14 136.658 1161.08 138.941 1161.17 142.086L1161.86 166.771C1161.93 169.251 1160.17 171.407 1157.73 171.837L1118.01 178.816C1114.99 179.346 1112.21 177.065 1112.14 174.004L1111.63 151.234Z" fill="url(#paint13_linear)"/>
<path id="Rectangle 130" d="M1113.43 153.01C1113.37 150.6 1115.04 148.487 1117.4 147.983L1152.7 140.452C1155.75 139.803 1158.64 142.064 1158.74 145.176L1159.35 164.8C1159.43 167.305 1157.64 169.485 1155.17 169.898L1119.7 175.83C1116.71 176.331 1113.97 174.07 1113.89 171.035L1113.43 153.01Z" fill="url(#paint14_linear)"/>
<ellipse id="Ellipse 1" rx="1.01435" ry="1.59419" transform="matrix(1 0.000682572 -0.000743783 1 1153.38 144.779)" fill="#09C549"/>
<ellipse id="Ellipse 2" rx="1.01435" ry="1.59419" transform="matrix(1 0.000682572 -0.000743783 1 1153.88 152.75)" fill="#FD601C"/>
<ellipse id="Ellipse 3" rx="1.01435" ry="1.59419" transform="matrix(1 0.000682572 -0.000743783 1 1154.38 161.519)" fill="#D50C0C"/>
</g>
<g id="Group 21">
<path id="Rectangle 129_2" d="M1112.94 224.899C1112.94 222.476 1114.67 220.48 1117.05 220.159L1157.41 214.712C1160.43 214.305 1163.21 216.72 1163.28 219.798L1163.79 244.009C1163.84 246.611 1161.9 248.733 1159.33 248.893L1118.44 251.432C1115.49 251.615 1112.92 249.178 1112.92 246.201L1112.94 224.899Z" fill="url(#paint15_linear)"/>
<path id="Rectangle 130_2" d="M1114.67 226.782C1114.67 224.342 1116.43 222.333 1118.82 222.029L1154.94 217.446C1157.94 217.066 1160.69 219.458 1160.76 222.51L1161.24 242.016C1161.31 244.618 1159.38 246.75 1156.8 246.925L1120.19 249.407C1117.23 249.607 1114.65 247.172 1114.65 244.188L1114.67 226.782Z" fill="url(#paint16_linear)"/>
<ellipse id="Ellipse 1_2" rx="1.01328" ry="1.59308" transform="matrix(0.99707 0.0764289 -0.0314838 0.999506 1155.54 224.327)" fill="#09C549"/>
<ellipse id="Ellipse 2_2" rx="1.01328" ry="1.59308" transform="matrix(0.99707 0.0764289 -0.0314838 0.999506 1155.79 232.327)" fill="#FD601C"/>
<ellipse id="Ellipse 3_2" rx="1.01328" ry="1.59308" transform="matrix(0.99707 0.0764289 -0.0314838 0.999506 1156.02 241.123)" fill="#D50C0C"/>
</g>
<g id="Group 22">
<path id="Rectangle 129_3" d="M1113.46 260.253C1113.46 257.712 1115.36 255.662 1117.87 255.483L1158.34 252.602C1161.27 252.394 1163.84 254.767 1163.9 257.72L1164.41 281.744C1164.47 284.405 1162.44 286.553 1159.8 286.635L1118.8 287.911C1115.91 288.001 1113.43 285.589 1113.44 282.672L1113.46 260.253Z" fill="url(#paint17_linear)"/>
<path id="Rectangle 130_3" d="M1115.22 262.305C1115.22 259.739 1117.15 257.674 1119.7 257.522L1156.41 255.325C1159.3 255.152 1161.84 257.497 1161.91 260.417L1162.38 279.377C1162.45 282.028 1160.45 284.184 1157.82 284.294L1120.61 285.858C1117.7 285.981 1115.2 283.565 1115.2 280.631L1115.22 262.305Z" fill="url(#paint18_linear)"/>
<ellipse id="Ellipse 1_3" rx="1.01261" ry="1.59308" transform="matrix(0.99707 0.0764289 -0.0314838 0.999506 1156.54 261.455)" fill="#09C549"/>
<ellipse id="Ellipse 2_3" rx="1.01261" ry="1.59308" transform="matrix(0.99707 0.0764289 -0.0314838 0.999506 1156.79 269.456)" fill="#FD601C"/>
<ellipse id="Ellipse 3_3" rx="1.01261" ry="1.59308" transform="matrix(0.99707 0.0764289 -0.0314838 0.999506 1157.02 278.252)" fill="#D50C0C"/>
</g>
<g id="Group 23">
<path id="Rectangle 129_4" d="M1113.95 298.801C1113.95 296.204 1115.93 294.129 1118.51 294.021L1159.37 292.323C1162.24 292.204 1164.73 294.552 1164.79 297.445L1165.33 322.026C1165.38 324.75 1163.27 326.925 1160.56 326.924L1119.14 326.895C1116.3 326.893 1113.93 324.508 1113.93 321.655L1113.95 298.801Z" fill="url(#paint19_linear)"/>
<path id="Rectangle 130_4" d="M1115.7 301.24C1115.7 298.624 1117.71 296.537 1120.31 296.45L1157.39 295.217C1160.25 295.122 1162.71 297.475 1162.75 300.359L1163.07 320.051C1163.12 322.768 1161 324.931 1158.3 324.929L1120.88 324.904C1118.05 324.902 1115.68 322.523 1115.68 319.673L1115.7 301.24Z" fill="url(#paint20_linear)"/>
<ellipse id="Ellipse 1_4" rx="1.02058" ry="1.59308" transform="matrix(0.99707 0.0764289 -0.0314838 0.999506 1157.36 301.34)" fill="#09C549"/>
<ellipse id="Ellipse 2_4" rx="1.02058" ry="1.59308" transform="matrix(0.99707 0.0764289 -0.0314838 0.999506 1157.62 309.34)" fill="#FD601C"/>
<ellipse id="Ellipse 3_4" rx="1.02058" ry="1.59308" transform="matrix(0.99707 0.0764289 -0.0314838 0.999506 1157.86 318.137)" fill="#D50C0C"/>
</g>
<g id="Group 24">
<path id="Rectangle 129_5" d="M1114.57 336.615C1114.5 333.876 1116.64 331.688 1119.36 331.703L1159.98 331.934C1162.81 331.95 1165.16 334.323 1165.17 337.163L1165.2 361.765C1165.21 364.515 1163 366.654 1160.26 366.557L1120.18 365.134C1117.46 365.037 1115.22 362.762 1115.15 360.025L1114.57 336.615Z" fill="url(#paint21_linear)"/>
<path id="Rectangle 130_5" d="M1116.32 339.028C1116.27 336.281 1118.43 334.098 1121.16 334.135L1158.03 334.629C1160.84 334.667 1163.16 337.029 1163.17 339.85L1163.19 359.168C1163.2 361.909 1161 364.049 1158.27 363.968L1121.75 362.881C1119 362.8 1116.74 360.509 1116.69 357.754L1116.32 339.028Z" fill="url(#paint22_linear)"/>
<ellipse id="Ellipse 1_5" rx="1.02058" ry="1.48829" transform="matrix(0.99707 0.0764289 -0.0314838 0.999506 1157.87 340.557)" fill="#09C549"/>
<ellipse id="Ellipse 2_5" rx="1.02058" ry="1.48829" transform="matrix(0.99707 0.0764289 -0.0314838 0.999506 1158.15 348.034)" fill="#FD601C"/>
<ellipse id="Ellipse 3_5" rx="1.02058" ry="1.48829" transform="matrix(0.99707 0.0764289 -0.0314838 0.999506 1158.4 356.254)" fill="#D50C0C"/>
</g>
<g id="Group 20">
<path id="Rectangle 129_6" d="M1112.32 188.595C1112.28 186.2 1113.95 184.132 1116.29 183.664L1156.83 175.563C1159.89 174.951 1162.79 177.28 1162.86 180.411L1163.39 204.703C1163.44 207.196 1161.65 209.329 1159.19 209.703L1118.48 215.899C1115.47 216.357 1112.73 214.032 1112.68 210.982L1112.32 188.595Z" fill="url(#paint23_linear)"/>
<path id="Rectangle 130_6" d="M1114.14 190.382C1114.09 187.958 1115.79 185.865 1118.17 185.417L1154.39 178.588C1157.43 178.015 1160.28 180.322 1160.36 183.421L1160.84 202.71C1160.91 205.227 1159.09 207.383 1156.6 207.741L1120.23 212.979C1117.24 213.41 1114.53 211.104 1114.48 208.08L1114.14 190.382Z" fill="url(#paint24_linear)"/>
<ellipse id="Ellipse 1_6" rx="1.0337" ry="1.57485" transform="matrix(0.999825 0.018624 -0.00800834 0.999968 1154.9 182.902)" fill="#09C549"/>
<ellipse id="Ellipse 2_6" rx="1.0337" ry="1.57485" transform="matrix(0.999825 0.018624 -0.00800834 0.999968 1155.36 190.786)" fill="#FD601C"/>
<ellipse id="Ellipse 3_6" rx="1.0337" ry="1.57485" transform="matrix(0.999825 0.018624 -0.00800834 0.999968 1155.81 199.457)" fill="#D50C0C"/>
</g>
</g>
<g id="Group 26">
<g id="Group 19_2">
<path id="Rectangle 129_7" d="M1041.12 167.05C1041.07 164.685 1042.68 162.608 1044.98 162.071L1079.23 154.094C1082.31 153.376 1085.28 155.664 1085.36 158.827L1085.96 180.847C1086.03 183.314 1084.28 185.46 1081.86 185.902L1047.45 192.162C1044.43 192.713 1041.63 190.427 1041.56 187.352L1041.12 167.05Z" fill="url(#paint25_linear)"/>
<path id="Rectangle 130_7" d="M1042.73 168.698C1042.67 166.303 1044.32 164.199 1046.66 163.682L1077.12 156.953C1080.18 156.277 1083.09 158.544 1083.19 161.673L1083.72 179.019C1083.79 181.511 1082.02 183.681 1079.56 184.107L1048.96 189.408C1045.95 189.929 1043.19 187.662 1043.12 184.615L1042.73 168.698Z" fill="url(#paint26_linear)"/>
<ellipse id="Ellipse 1_7" rx="0.905771" ry="1.47409" transform="matrix(1 0.000682572 -0.000743783 1 1078.4 160.806)" fill="#09C549"/>
<ellipse id="Ellipse 2_7" rx="0.905771" ry="1.47409" transform="matrix(1 0.000682572 -0.000743783 1 1078.84 168.177)" fill="#FD601C"/>
<ellipse id="Ellipse 3_7" rx="0.905771" ry="1.47409" transform="matrix(1 0.000682572 -0.000743783 1 1079.29 176.285)" fill="#D50C0C"/>
</g>
<g id="Group 21_2">
<path id="Rectangle 129_8" d="M1042.28 235.172C1042.28 232.764 1043.99 230.782 1046.35 230.452L1081.33 225.562C1084.36 225.139 1087.17 227.572 1087.24 230.669L1087.68 252.243C1087.73 254.833 1085.81 256.941 1083.25 257.105L1047.81 259.385C1044.85 259.575 1042.26 257.123 1042.26 254.135L1042.28 235.172Z" fill="url(#paint27_linear)"/>
<path id="Rectangle 130_8" d="M1043.82 236.918C1043.82 234.492 1045.56 232.497 1047.94 232.184L1079.14 228.084C1082.15 227.688 1084.92 230.098 1085 233.168L1085.4 250.402C1085.46 252.991 1083.55 255.109 1080.99 255.288L1049.37 257.509C1046.41 257.717 1043.81 255.268 1043.81 252.271L1043.82 236.918Z" fill="url(#paint28_linear)"/>
<ellipse id="Ellipse 1_8" rx="0.905005" ry="1.47302" transform="matrix(0.996862 0.0791016 -0.0304309 0.999539 1080.32 234.361)" fill="#09C549"/>
<ellipse id="Ellipse 2_8" rx="0.905005" ry="1.47302" transform="matrix(0.996862 0.0791016 -0.0304309 0.999539 1080.55 241.758)" fill="#FD601C"/>
<ellipse id="Ellipse 3_8" rx="0.905005" ry="1.47302" transform="matrix(0.996862 0.0791016 -0.0304309 0.999539 1080.75 249.892)" fill="#D50C0C"/>
</g>
<g id="Group 22_2">
<path id="Rectangle 129_9" d="M1042.74 267.89C1042.74 265.361 1044.62 263.322 1047.12 263.138L1082.21 260.551C1085.14 260.335 1087.74 262.724 1087.8 265.692L1088.23 287.12C1088.29 289.771 1086.28 291.906 1083.65 291.99L1048.11 293.137C1045.21 293.23 1042.72 290.804 1042.72 287.878L1042.74 267.89Z" fill="url(#paint29_linear)"/>
<path id="Rectangle 130_9" d="M1044.31 269.793C1044.32 267.238 1046.23 265.184 1048.76 265.028L1080.49 263.061C1083.4 262.881 1085.95 265.243 1086.02 268.175L1086.42 284.934C1086.48 287.575 1084.5 289.717 1081.88 289.831L1049.73 291.231C1046.81 291.358 1044.29 288.929 1044.3 285.985L1044.31 269.793Z" fill="url(#paint30_linear)"/>
<ellipse id="Ellipse 1_9" rx="0.904407" ry="1.47302" transform="matrix(0.996862 0.0791016 -0.0304309 0.999539 1081.21 268.692)" fill="#09C549"/>
<ellipse id="Ellipse 2_9" rx="0.904407" ry="1.47302" transform="matrix(0.996862 0.0791016 -0.0304309 0.999539 1081.43 276.09)" fill="#FD601C"/>
<ellipse id="Ellipse 3_9" rx="0.904407" ry="1.47302" transform="matrix(0.996862 0.0791016 -0.0304309 0.999539 1081.64 284.223)" fill="#D50C0C"/>
</g>
<g id="Group 23_2">
<path id="Rectangle 129_10" d="M1043.18 303.548C1043.18 300.961 1045.15 298.896 1047.71 298.786L1083.15 297.26C1086.03 297.136 1088.53 299.5 1088.59 302.406L1089.05 324.352C1089.1 327.067 1087 329.23 1084.3 329.228L1048.39 329.203C1045.54 329.201 1043.16 326.804 1043.16 323.943L1043.18 303.548Z" fill="url(#paint31_linear)"/>
<path id="Rectangle 130_10" d="M1044.74 305.808C1044.74 303.201 1046.74 301.124 1049.32 301.035L1081.38 299.93C1084.25 299.831 1086.72 302.199 1086.76 305.094L1087.04 322.525C1087.08 325.234 1084.97 327.386 1082.28 327.384L1049.94 327.362C1047.1 327.36 1044.72 324.969 1044.73 322.112L1044.74 305.808Z" fill="url(#paint32_linear)"/>
<ellipse id="Ellipse 1_10" rx="0.911527" ry="1.47302" transform="matrix(0.996862 0.0791016 -0.0304309 0.999539 1081.95 305.572)" fill="#09C549"/>
<ellipse id="Ellipse 2_10" rx="0.911527" ry="1.47302" transform="matrix(0.996862 0.0791016 -0.0304309 0.999539 1082.18 312.97)" fill="#FD601C"/>
<ellipse id="Ellipse 3_10" rx="0.911527" ry="1.47302" transform="matrix(0.996862 0.0791016 -0.0304309 0.999539 1082.39 321.103)" fill="#D50C0C"/>
</g>
<g id="Group 24_2">
<path id="Rectangle 129_11" d="M1043.74 338.542C1043.68 335.81 1045.8 333.636 1048.51 333.652L1083.71 333.857C1086.55 333.874 1088.91 336.26 1088.91 339.107L1088.94 361.083C1088.95 363.828 1086.75 365.957 1084.02 365.857L1049.28 364.581C1046.55 364.48 1044.3 362.192 1044.24 359.448L1043.74 338.542Z" fill="url(#paint33_linear)"/>
<path id="Rectangle 130_11" d="M1045.31 340.777C1045.25 338.037 1047.4 335.866 1050.13 335.904L1081.98 336.346C1084.79 336.385 1087.12 338.758 1087.13 341.586L1087.15 358.683C1087.15 361.42 1084.97 363.55 1082.24 363.466L1050.68 362.495C1047.94 362.41 1045.67 360.107 1045.62 357.345L1045.31 340.777Z" fill="url(#paint34_linear)"/>
<ellipse id="Ellipse 1_11" rx="0.911527" ry="1.37612" transform="matrix(0.996862 0.0791016 -0.0304309 0.999539 1082.4 341.835)" fill="#09C549"/>
<ellipse id="Ellipse 2_11" rx="0.911527" ry="1.37612" transform="matrix(0.996862 0.0791016 -0.0304309 0.999539 1082.64 348.748)" fill="#FD601C"/>
<ellipse id="Ellipse 3_11" rx="0.911527" ry="1.37612" transform="matrix(0.996862 0.0791016 -0.0304309 0.999539 1082.87 356.349)" fill="#D50C0C"/>
</g>
<g id="Group 20_2">
<path id="Rectangle 129_12" d="M1041.73 201.598C1041.69 199.219 1043.34 197.162 1045.66 196.681L1080.8 189.41C1083.88 188.774 1086.8 191.111 1086.87 194.26L1087.32 215.918C1087.37 218.398 1085.6 220.52 1083.16 220.906L1047.87 226.467C1044.85 226.943 1042.09 224.611 1042.04 221.547L1041.73 201.598Z" fill="url(#paint35_linear)"/>
<path id="Rectangle 130_12" d="M1043.36 203.256C1043.31 200.847 1044.99 198.766 1047.35 198.305L1078.63 192.197C1081.68 191.601 1084.56 193.917 1084.63 197.032L1085.05 214.07C1085.11 216.575 1083.31 218.72 1080.83 219.089L1049.43 223.774C1046.43 224.221 1043.7 221.909 1043.64 218.871L1043.36 203.256Z" fill="url(#paint36_linear)"/>
<ellipse id="Ellipse 1_12" rx="0.923063" ry="1.4562" transform="matrix(0.999813 0.0192607 -0.0077593 0.99997 1079.75 196.057)" fill="#09C549"/>
<ellipse id="Ellipse 2_12" rx="0.923061" ry="1.4562" transform="matrix(0.999813 0.0192607 -0.0077593 0.99997 1080.16 203.347)" fill="#FD601C"/>
<ellipse id="Ellipse 3_12" rx="0.923065" ry="1.4562" transform="matrix(0.999813 0.0192607 -0.0077593 0.99997 1080.56 211.365)" fill="#D50C0C"/>
</g>
</g>
<g id="Group 27">
<g id="Group 19_3">
<path id="Rectangle 129_13" d="M983.118 191.636C983.111 189.304 984.713 187.317 986.981 186.845L1011.77 181.686C1014.88 181.037 1017.87 183.465 1017.89 186.67L1018.03 203.612C1018.05 206.052 1016.31 208.106 1013.91 208.474L989.039 212.294C985.983 212.764 983.175 210.346 983.165 207.238L983.118 191.636Z" fill="url(#paint37_linear)"/>
<path id="Rectangle 130_13" d="M984.355 193.094C984.342 190.73 985.982 188.717 988.288 188.267L1010.1 184.009C1013.19 183.405 1016.12 185.809 1016.16 188.978L1016.3 201.983C1016.33 204.45 1014.55 206.527 1012.12 206.878L990.239 210.034C987.205 210.471 984.439 208.076 984.422 204.996L984.355 193.094Z" fill="url(#paint38_linear)"/>
<ellipse id="Ellipse 1_13" rx="0.710045" ry="1.24501" transform="matrix(0.999081 0.0428151 -0.0178138 0.999842 1012.4 187.039)" fill="#09C549"/>
<ellipse id="Ellipse 2_13" rx="0.710045" ry="1.24501" transform="matrix(0.999081 0.0428151 -0.0178138 0.999842 1012.65 193.278)" fill="#FD601C"/>
<ellipse id="Ellipse 3_13" rx="0.710045" ry="1.24501" transform="matrix(0.999081 0.0428151 -0.0178138 0.999842 1012.88 200.14)" fill="#D50C0C"/>
</g>
<g id="Group 21_3">
<path id="Rectangle 129_14" d="M983.031 249.218C983.073 246.844 984.765 244.963 987.083 244.711L1012.42 241.967C1015.48 241.635 1018.31 244.23 1018.32 247.369L1018.35 263.916C1018.35 266.481 1016.44 268.478 1013.91 268.547L988.281 269.244C985.303 269.325 982.717 266.731 982.771 263.716L983.031 249.218Z" fill="url(#paint39_linear)"/>
<path id="Rectangle 130_14" d="M984.213 250.753C984.255 248.359 985.976 246.465 988.318 246.232L1010.68 244.01C1013.72 243.708 1016.51 246.277 1016.53 249.388L1016.59 262.288C1016.6 264.851 1014.7 266.859 1012.17 266.944L989.538 267.704C986.553 267.804 983.954 265.212 984.008 262.19L984.213 250.753Z" fill="url(#paint40_linear)"/>
<ellipse id="Ellipse 1_14" rx="0.709796" ry="1.24403" transform="matrix(0.994007 0.127099 -0.0453377 0.998283 1012.84 249.218)" fill="#09C549"/>
<ellipse id="Ellipse 2_14" rx="0.709796" ry="1.24403" transform="matrix(0.994007 0.127099 -0.0453377 0.998283 1012.91 255.473)" fill="#FD601C"/>
<ellipse id="Ellipse 3_14" rx="0.709796" ry="1.24403" transform="matrix(0.994007 0.127099 -0.0453377 0.998283 1012.96 262.348)" fill="#D50C0C"/>
</g>
<g id="Group 22_3">
<path id="Rectangle 129_15" d="M982.918 276.922C982.963 274.419 984.838 272.485 987.308 272.392L1012.69 271.445C1015.65 271.334 1018.24 273.872 1018.25 276.872L1018.28 293.356C1018.28 295.986 1016.27 298.008 1013.67 297.989L987.982 297.8C985.062 297.779 982.588 295.217 982.641 292.27L982.918 276.922Z" fill="url(#paint41_linear)"/>
<path id="Rectangle 130_15" d="M984.12 278.595C984.166 276.064 986.081 274.115 988.583 274.053L1011.33 273.491C1014.26 273.419 1016.81 275.925 1016.82 278.889L1016.89 291.457C1016.9 294.076 1014.92 296.105 1012.33 296.118L989.292 296.229C986.354 296.244 983.848 293.679 983.902 290.713L984.12 278.595Z" fill="url(#paint42_linear)"/>
<ellipse id="Ellipse 1_15" rx="0.709327" ry="1.24403" transform="matrix(0.994007 0.127099 -0.0453377 0.998283 1013.04 278.24)" fill="#09C549"/>
<ellipse id="Ellipse 2_15" rx="0.709327" ry="1.24403" transform="matrix(0.994007 0.127099 -0.0453377 0.998283 1013.11 284.495)" fill="#FD601C"/>
<ellipse id="Ellipse 3_15" rx="0.709327" ry="1.24403" transform="matrix(0.994007 0.127099 -0.0453377 0.998283 1013.16 291.37)" fill="#D50C0C"/>
</g>
<g id="Group 23_3">
<path id="Rectangle 129_16" d="M982.745 307.08C982.79 304.514 984.755 302.556 987.295 302.546L1012.94 302.435C1015.84 302.422 1018.33 304.928 1018.34 307.862L1018.38 324.79C1018.38 327.489 1016.27 329.536 1013.59 329.422L987.632 328.309C984.776 328.187 982.414 325.661 982.465 322.785L982.745 307.08Z" fill="url(#paint43_linear)"/>
<path id="Rectangle 130_16" d="M983.933 309.051C983.979 306.464 985.976 304.494 988.54 304.506L1011.52 304.62C1014.41 304.635 1016.88 307.14 1016.87 310.06L1016.83 323.181C1016.83 325.874 1014.71 327.912 1012.04 327.797L988.871 326.804C986.018 326.682 983.663 324.165 983.715 321.293L983.933 309.051Z" fill="url(#paint44_linear)"/>
<ellipse id="Ellipse 1_16" rx="0.714911" ry="1.24403" transform="matrix(0.994007 0.127099 -0.0453377 0.998283 1013.09 309.409)" fill="#09C549"/>
<ellipse id="Ellipse 2_16" rx="0.714911" ry="1.24403" transform="matrix(0.994007 0.127099 -0.0453377 0.998283 1013.16 315.664)" fill="#FD601C"/>
<ellipse id="Ellipse 3_16" rx="0.714911" ry="1.24403" transform="matrix(0.994007 0.127099 -0.0453377 0.998283 1013.21 322.54)" fill="#D50C0C"/>
</g>
<g id="Group 24_3">
<path id="Rectangle 129_17" d="M982.694 336.711C982.681 333.996 984.813 331.938 987.504 332.068L1012.91 333.298C1015.75 333.436 1018.09 335.949 1018.05 338.812L1017.78 355.775C1017.73 358.51 1015.52 360.525 1012.8 360.303L987.749 358.254C985.011 358.03 982.787 355.617 982.773 352.856L982.694 336.711Z" fill="url(#paint45_linear)"/>
<path id="Rectangle 130_17" d="M983.883 338.66C983.882 335.934 986.042 333.879 988.746 334.033L1011.53 335.333C1014.35 335.494 1016.66 337.992 1016.61 340.833L1016.41 353.693C1016.37 356.419 1014.16 358.436 1011.46 358.232L988.886 356.532C986.13 356.324 983.889 353.898 983.888 351.12L983.883 338.66Z" fill="url(#paint46_linear)"/>
<ellipse id="Ellipse 1_17" rx="0.714911" ry="1.1622" transform="matrix(0.994007 0.127099 -0.0453377 0.998283 1012.92 340.047)" fill="#09C549"/>
<ellipse id="Ellipse 2_17" rx="0.714911" ry="1.1622" transform="matrix(0.994007 0.127099 -0.0453377 0.998283 1013.01 345.894)" fill="#FD601C"/>
<ellipse id="Ellipse 3_17" rx="0.714911" ry="1.1622" transform="matrix(0.994007 0.127099 -0.0453377 0.998283 1013.08 352.321)" fill="#D50C0C"/>
</g>
<g id="Group 20_3">
<path id="Rectangle 129_18" d="M983.094 220.838C983.101 218.492 984.734 216.528 987.022 216.115L1012.49 211.522C1015.6 210.961 1018.55 213.443 1018.55 216.632L1018.59 233.269C1018.6 235.722 1016.83 237.749 1014.42 238.057L988.861 241.314C985.813 241.703 983.042 239.235 983.051 236.14L983.094 220.838Z" fill="url(#paint47_linear)"/>
<path id="Rectangle 130_18" d="M984.346 222.305C984.346 219.927 986.017 217.938 988.343 217.548L1010.78 213.783C1013.86 213.265 1016.75 215.722 1016.77 218.876L1016.84 231.622C1016.85 234.101 1015.05 236.151 1012.61 236.44L990.1 239.105C987.074 239.463 984.343 237.018 984.344 233.95L984.346 222.305Z" fill="url(#paint48_linear)"/>
<ellipse id="Ellipse 1_18" rx="0.723621" ry="1.22991" transform="matrix(0.998524 0.0628194 -0.0243189 0.999542 1012.96 216.852)" fill="#09C549"/>
<ellipse id="Ellipse 2_18" rx="0.723619" ry="1.22991" transform="matrix(0.998524 0.0628194 -0.0243189 0.999542 1013.17 223.022)" fill="#FD601C"/>
<ellipse id="Ellipse 3_18" rx="0.723623" ry="1.22991" transform="matrix(0.998524 0.0628194 -0.0243189 0.999542 1013.36 229.806)" fill="#D50C0C"/>
</g>
</g>
<g id="Group 28">
<g id="Group 19_4">
<path id="Rectangle 129_19" d="M933.03 207.176C933.026 204.882 934.582 202.919 936.803 202.413L955.053 198.254C958.197 197.538 961.253 199.982 961.273 203.229L961.356 216.699C961.371 219.107 959.671 221.141 957.31 221.54L938.995 224.635C935.915 225.156 933.053 222.724 933.049 219.583L933.03 207.176Z" fill="url(#paint49_linear)"/>
<path id="Rectangle 130_19" d="M934.034 208.46C934.025 206.133 935.62 204.142 937.882 203.658L953.717 200.271C956.837 199.604 959.832 202.023 959.861 205.232L959.951 215.267C959.972 217.703 958.238 219.762 955.844 220.142L939.956 222.666C936.898 223.152 934.082 220.744 934.069 217.633L934.034 208.46Z" fill="url(#paint50_linear)"/>
<ellipse id="Ellipse 1_19" rx="0.576517" ry="1.09023" transform="matrix(0.999081 0.0428151 -0.0178138 0.999842 956.808 202.656)" fill="#09C549"/>
<ellipse id="Ellipse 2_19" rx="0.576517" ry="1.09023" transform="matrix(0.999081 0.0428151 -0.0178138 0.999842 956.998 208.119)" fill="#FD601C"/>
<ellipse id="Ellipse 3_19" rx="0.576517" ry="1.09023" transform="matrix(0.999081 0.0428151 -0.0178138 0.999842 957.179 214.127)" fill="#D50C0C"/>
</g>
<g id="Group 21_4">
<path id="Rectangle 129_20" d="M932.885 257.609C932.927 255.272 934.568 253.42 936.84 253.147L955.555 250.897C958.642 250.526 961.541 253.166 961.542 256.348L961.546 269.462C961.546 271.998 959.672 273.966 957.177 274.047L938.253 274.667C935.255 274.765 932.626 272.135 932.68 269.092L932.885 257.609Z" fill="url(#paint51_linear)"/>
<path id="Rectangle 130_20" d="M933.843 258.958C933.886 256.599 935.557 254.733 937.855 254.479L954.159 252.677C957.225 252.338 960.08 254.951 960.09 258.104L960.122 268.042C960.13 270.577 958.264 272.554 955.773 272.653L939.28 273.306C936.275 273.425 933.631 270.798 933.686 267.748L933.843 258.958Z" fill="url(#paint52_linear)"/>
<ellipse id="Ellipse 1_20" rx="0.576649" ry="1.08931" transform="matrix(0.993311 0.133669 -0.0433307 0.998423 957.096 257.101)" fill="#09C549"/>
<ellipse id="Ellipse 2_20" rx="0.576649" ry="1.08931" transform="matrix(0.993311 0.133669 -0.0433307 0.998423 957.146 262.578)" fill="#FD601C"/>
<ellipse id="Ellipse 3_20" rx="0.576649" ry="1.08931" transform="matrix(0.993311 0.133669 -0.0433307 0.998423 957.173 268.598)" fill="#D50C0C"/>
</g>
<g id="Group 22_4">
<path id="Rectangle 129_21" d="M932.761 281.922C932.806 279.446 934.64 277.537 937.076 277.431L955.827 276.612C958.806 276.482 961.453 279.06 961.454 282.093L961.457 295.212C961.458 297.818 959.481 299.811 956.908 299.8L937.934 299.714C934.996 299.701 932.488 297.106 932.541 294.136L932.761 281.922Z" fill="url(#paint53_linear)"/>
<path id="Rectangle 130_21" d="M933.736 283.396C933.781 280.89 935.658 278.965 938.13 278.891L954.746 278.392C957.694 278.303 960.284 280.849 960.295 283.843L960.329 293.56C960.338 296.153 958.388 298.154 955.83 298.176L939.011 298.32C936.056 298.346 933.513 295.748 933.567 292.758L933.736 283.396Z" fill="url(#paint54_linear)"/>
<ellipse id="Ellipse 1_21" rx="0.576268" ry="1.08931" transform="matrix(0.993311 0.133669 -0.0433307 0.998423 957.225 282.513)" fill="#09C549"/>
<ellipse id="Ellipse 2_21" rx="0.576268" ry="1.08931" transform="matrix(0.993311 0.133669 -0.0433307 0.998423 957.275 287.99)" fill="#FD601C"/>
<ellipse id="Ellipse 3_21" rx="0.576268" ry="1.08931" transform="matrix(0.993311 0.133669 -0.0433307 0.998423 957.302 294.01)" fill="#D50C0C"/>
</g>
<g id="Group 23_4">
<path id="Rectangle 129_22" d="M932.586 308.356C932.631 305.813 934.561 303.88 937.073 303.859L956.035 303.707C958.956 303.683 961.487 306.227 961.49 309.189L961.502 322.704C961.504 325.384 959.418 327.404 956.765 327.29L937.568 326.468C934.698 326.345 932.311 323.79 932.363 320.896L932.586 308.356Z" fill="url(#paint55_linear)"/>
<path id="Rectangle 130_22" d="M933.548 310.089C933.594 307.523 935.558 305.576 938.097 305.581L954.896 305.615C957.806 305.62 960.301 308.161 960.29 311.105L960.252 321.299C960.242 323.974 958.152 325.987 955.502 325.873L938.571 325.148C935.706 325.025 933.327 322.479 933.379 319.59L933.548 310.089Z" fill="url(#paint56_linear)"/>
<ellipse id="Ellipse 1_22" rx="0.580805" ry="1.08931" transform="matrix(0.993311 0.133669 -0.0433307 0.998423 957.227 309.805)" fill="#09C549"/>
<ellipse id="Ellipse 2_22" rx="0.580805" ry="1.08931" transform="matrix(0.993311 0.133669 -0.0433307 0.998423 957.279 315.282)" fill="#FD601C"/>
<ellipse id="Ellipse 3_22" rx="0.580805" ry="1.08931" transform="matrix(0.993311 0.133669 -0.0433307 0.998423 957.308 321.303)" fill="#D50C0C"/>
</g>
<g id="Group 24_4">
<path id="Rectangle 129_23" d="M932.522 334.355C932.514 331.658 934.619 329.628 937.288 329.758L956.031 330.673C958.887 330.813 961.253 333.356 961.207 336.235L960.99 349.806C960.946 352.53 958.75 354.523 956.047 354.294L937.563 352.726C934.813 352.493 932.573 350.049 932.564 347.273L932.522 334.355Z" fill="url(#paint57_linear)"/>
<path id="Rectangle 130_23" d="M933.483 336.067C933.485 333.357 935.621 331.328 938.307 331.484L954.921 332.451C957.755 332.616 960.086 335.141 960.04 337.997L959.88 347.991C959.836 350.706 957.654 352.702 954.96 352.492L938.496 351.209C935.728 350.994 933.471 348.538 933.473 345.746L933.483 336.067Z" fill="url(#paint58_linear)"/>
<ellipse id="Ellipse 1_23" rx="0.580805" ry="1.01766" transform="matrix(0.993311 0.133669 -0.0433307 0.998423 957.053 336.633)" fill="#09C549"/>
<ellipse id="Ellipse 2_23" rx="0.580805" ry="1.01766" transform="matrix(0.993311 0.133669 -0.0433307 0.998423 957.121 341.753)" fill="#FD601C"/>
<ellipse id="Ellipse 3_23" rx="0.580805" ry="1.01766" transform="matrix(0.993311 0.133669 -0.0433307 0.998423 957.167 347.379)" fill="#D50C0C"/>
</g>
<g id="Group 20_4">
<path id="Rectangle 129_24" d="M932.975 232.752C932.984 230.442 934.57 228.502 936.813 228.059L955.62 224.339C958.756 223.718 961.766 226.221 961.769 229.452L961.781 242.661C961.783 245.083 960.055 247.088 957.677 247.423L938.811 250.08C935.739 250.513 932.915 248.026 932.927 244.898L932.975 232.752Z" fill="url(#paint59_linear)"/>
<path id="Rectangle 130_24" d="M933.991 234.044C933.994 231.701 935.62 229.736 937.903 229.315L954.244 226.303C957.355 225.729 960.308 228.207 960.32 231.4L960.357 241.214C960.366 243.663 958.604 245.692 956.193 246.008L939.802 248.156C936.753 248.556 933.973 246.092 933.978 242.993L933.991 234.044Z" fill="url(#paint60_linear)"/>
<ellipse id="Ellipse 1_24" rx="0.587429" ry="1.07699" transform="matrix(0.998463 0.0643881 -0.0238456 0.999565 957.223 228.76)" fill="#09C549"/>
<ellipse id="Ellipse 2_24" rx="0.587428" ry="1.07699" transform="matrix(0.998463 0.0643881 -0.0238456 0.999565 957.388 234.162)" fill="#FD601C"/>
<ellipse id="Ellipse 3_24" rx="0.587431" ry="1.07699" transform="matrix(0.998463 0.0643881 -0.0238456 0.999565 957.54 240.102)" fill="#D50C0C"/>
</g>
</g>
<g id="Group 29">
<g id="Group 19_5">
<path id="Rectangle 129_25" d="M888.293 223.682C888.301 221.36 889.901 219.404 892.158 218.956L907.864 215.838C910.992 215.217 913.981 217.695 913.985 220.913L914 231.102C914.004 233.534 912.263 235.557 909.874 235.898L894.12 238.148C891.056 238.585 888.249 236.122 888.26 233.004L888.293 223.682Z" fill="url(#paint61_linear)"/>
<path id="Rectangle 130_25" d="M889.201 224.812C889.203 222.458 890.842 220.475 893.138 220.05L906.647 217.546C909.749 216.971 912.682 219.424 912.696 222.606L912.727 229.839C912.738 232.298 910.964 234.344 908.543 234.667L894.998 236.472C891.956 236.877 889.192 234.436 889.195 231.347L889.201 224.812Z" fill="url(#paint62_linear)"/>
<ellipse id="Ellipse 1_25" rx="0.524329" ry="0.939039" transform="matrix(0.998328 0.0577504 -0.0238793 0.999716 909.928 219.561)" fill="#09C549"/>
<ellipse id="Ellipse 2_25" rx="0.524329" ry="0.939039" transform="matrix(0.998328 0.0577504 -0.0238793 0.999716 910.078 224.27)" fill="#FD601C"/>
<ellipse id="Ellipse 3_25" rx="0.524329" ry="0.939039" transform="matrix(0.998328 0.0577504 -0.0238793 0.999716 910.216 229.448)" fill="#D50C0C"/>
</g>
<g id="Group 21_5">
<path id="Rectangle 129_26" d="M887.928 267.139C887.985 264.776 889.673 262.928 891.978 262.705L908.106 261.146C911.174 260.849 914.008 263.499 913.993 266.651L913.946 276.523C913.933 279.08 912.018 281.041 909.5 281.076L893.214 281.3C890.232 281.341 887.651 278.698 887.723 275.676L887.928 267.139Z" fill="url(#paint63_linear)"/>
<path id="Rectangle 130_26" d="M888.793 268.321C888.85 265.937 890.567 264.076 892.897 263.872L906.835 262.653C909.881 262.386 912.673 265.009 912.668 268.133L912.656 275.277C912.651 277.833 910.745 279.804 908.229 279.856L894.155 280.141C891.165 280.202 888.571 277.561 888.644 274.532L888.793 268.321Z" fill="url(#paint64_linear)"/>
<ellipse id="Ellipse 1_26" rx="0.524226" ry="0.938285" transform="matrix(0.992548 0.143773 -0.0507989 0.997795 909.952 266.469)" fill="#09C549"/>
<ellipse id="Ellipse 2_26" rx="0.524226" ry="0.938285" transform="matrix(0.992548 0.143773 -0.0507989 0.997795 909.974 271.188)" fill="#FD601C"/>
<ellipse id="Ellipse 3_26" rx="0.524226" ry="0.938285" transform="matrix(0.992548 0.143773 -0.0507989 0.997795 909.972 276.374)" fill="#D50C0C"/>
</g>
<g id="Group 22_5">
<path id="Rectangle 129_27" d="M887.708 288.113C887.768 285.618 889.642 283.718 892.103 283.659L908.258 283.269C911.219 283.197 913.814 285.785 913.8 288.795L913.752 298.688C913.74 301.312 911.727 303.296 909.135 303.24L892.807 302.889C889.883 302.826 887.416 300.218 887.487 297.265L887.708 288.113Z" fill="url(#paint65_linear)"/>
<path id="Rectangle 130_27" d="M888.587 289.404C888.648 286.881 890.564 284.966 893.056 284.938L907.273 284.778C910.203 284.746 912.746 287.301 912.742 290.275L912.732 297.249C912.728 299.861 910.741 301.853 908.163 301.83L893.795 301.7C890.854 301.673 888.354 299.061 888.426 296.089L888.587 289.404Z" fill="url(#paint66_linear)"/>
<ellipse id="Ellipse 1_27" rx="0.52388" ry="0.938285" transform="matrix(0.992548 0.143773 -0.0507989 0.997795 909.958 288.363)" fill="#09C549"/>
<ellipse id="Ellipse 2_27" rx="0.52388" ry="0.938285" transform="matrix(0.992548 0.143773 -0.0507989 0.997795 909.98 293.082)" fill="#FD601C"/>
<ellipse id="Ellipse 3_27" rx="0.52388" ry="0.938285" transform="matrix(0.992548 0.143773 -0.0507989 0.997795 909.977 298.268)" fill="#D50C0C"/>
</g>
<g id="Group 23_5">
<path id="Rectangle 129_28" d="M887.433 310.899C887.494 308.34 889.46 306.418 891.991 306.442L908.336 306.599C911.24 306.627 913.727 309.181 913.715 312.123L913.672 322.356C913.661 325.051 911.544 327.059 908.877 326.905L892.349 325.949C889.491 325.784 887.139 323.214 887.208 320.333L887.433 310.899Z" fill="url(#paint67_linear)"/>
<path id="Rectangle 130_28" d="M888.299 312.411C888.361 309.83 890.36 307.896 892.916 307.945L907.291 308.22C910.185 308.275 912.639 310.827 912.612 313.754L912.546 321.13C912.522 323.818 910.401 325.818 907.738 325.664L893.267 324.826C890.413 324.661 888.068 322.1 888.137 319.224L888.299 312.411Z" fill="url(#paint68_linear)"/>
<ellipse id="Ellipse 1_28" rx="0.528004" ry="0.938285" transform="matrix(0.992548 0.143773 -0.0507989 0.997795 909.84 311.875)" fill="#09C549"/>
<ellipse id="Ellipse 2_28" rx="0.528004" ry="0.938285" transform="matrix(0.992548 0.143773 -0.0507989 0.997795 909.864 316.594)" fill="#FD601C"/>
<ellipse id="Ellipse 3_28" rx="0.528004" ry="0.938285" transform="matrix(0.992548 0.143773 -0.0507989 0.997795 909.864 321.782)" fill="#D50C0C"/>
</g>
<g id="Group 24_5">
<path id="Rectangle 129_29" d="M887.276 333.341C887.28 330.63 889.416 328.611 892.099 328.782L908.213 329.806C911.057 329.986 913.39 332.543 913.327 335.41L913.101 345.695C913.041 348.426 910.821 350.403 908.111 350.138L892.206 348.585C889.467 348.317 887.255 345.863 887.259 343.097L887.276 333.341Z" fill="url(#paint69_linear)"/>
<path id="Rectangle 130_29" d="M888.138 334.832C888.154 332.11 890.319 330.094 893.016 330.289L907.198 331.316C910.022 331.52 912.321 334.06 912.259 336.906L912.1 344.117C912.04 346.839 909.833 348.818 907.131 348.572L893.065 347.291C890.308 347.04 888.078 344.571 888.095 341.789L888.138 334.832Z" fill="url(#paint70_linear)"/>
<ellipse id="Ellipse 1_29" rx="0.528004" ry="0.876565" transform="matrix(0.992548 0.143773 -0.0507989 0.997795 909.565 334.985)" fill="#09C549"/>
<ellipse id="Ellipse 2_29" rx="0.528004" ry="0.876565" transform="matrix(0.992548 0.143773 -0.0507989 0.997795 909.604 339.396)" fill="#FD601C"/>
<ellipse id="Ellipse 3_29" rx="0.528004" ry="0.876565" transform="matrix(0.992548 0.143773 -0.0507989 0.997795 909.621 344.244)" fill="#D50C0C"/>
</g>
<g id="Group 20_5">
<path id="Rectangle 129_30" d="M888.127 245.718C888.149 243.382 889.78 241.448 892.058 241.061L908.267 238.304C911.386 237.773 914.331 240.305 914.317 243.507L914.276 253.471C914.266 255.916 912.497 257.911 910.092 258.191L893.84 260.079C890.784 260.434 888.015 257.919 888.044 254.814L888.127 245.718Z" fill="url(#paint71_linear)"/>
<path id="Rectangle 130_30" d="M889.046 246.855C889.062 244.487 890.732 242.529 893.047 242.165L907.013 239.967C910.107 239.48 912.998 241.987 912.994 245.153L912.986 252.195C912.983 254.667 911.182 256.684 908.746 256.945L894.746 258.441C891.712 258.766 888.984 256.274 889.004 253.197L889.046 246.855Z" fill="url(#paint72_linear)"/>
<ellipse id="Ellipse 1_30" rx="0.534242" ry="0.927644" transform="matrix(0.997632 0.0781765 -0.0302433 0.999327 910.192 242.056)" fill="#09C549"/>
<ellipse id="Ellipse 2_30" rx="0.534241" ry="0.927643" transform="matrix(0.997632 0.0781765 -0.0302433 0.999327 910.318 246.711)" fill="#FD601C"/>
<ellipse id="Ellipse 3_30" rx="0.534244" ry="0.927643" transform="matrix(0.997632 0.0781765 -0.0302433 0.999327 910.43 251.831)" fill="#D50C0C"/>
</g>
</g>
<g id="Group 30">
<g id="Group 19_6">
<path id="Rectangle 129_31" d="M849.466 228.621C849.474 226.305 851.069 224.351 853.32 223.898L866.452 221.26C869.582 220.631 872.58 223.111 872.584 226.334L872.594 234.616C872.597 237.044 870.861 239.064 868.477 239.409L855.307 241.315C852.24 241.759 849.426 239.293 849.438 236.171L849.466 228.621Z" fill="url(#paint73_linear)"/>
<path id="Rectangle 130_31" d="M850.283 229.654C850.286 227.304 851.92 225.325 854.211 224.895L865.365 222.802C868.471 222.219 871.412 224.674 871.425 227.86L871.448 233.463C871.458 235.919 869.689 237.963 867.272 238.289L856.089 239.799C853.044 240.21 850.274 237.768 850.278 234.675L850.283 229.654Z" fill="url(#paint74_linear)"/>
<ellipse id="Ellipse 1_31" rx="0.471732" ry="0.852784" transform="matrix(0.998328 0.0577504 -0.0238793 0.999716 868.933 224.514)" fill="#09C549"/>
<ellipse id="Ellipse 2_31" rx="0.471732" ry="0.852784" transform="matrix(0.998328 0.0577504 -0.0238793 0.999716 869.067 228.791)" fill="#FD601C"/>
<ellipse id="Ellipse 3_31" rx="0.471732" ry="0.852784" transform="matrix(0.998328 0.0577504 -0.0238793 0.999716 869.19 233.493)" fill="#D50C0C"/>
</g>
<g id="Group 21_6">
<path id="Rectangle 129_32" d="M849.121 268.095C849.178 265.737 850.86 263.892 853.16 263.666L866.68 262.34C869.752 262.038 872.594 264.694 872.578 267.851L872.538 275.837C872.526 278.391 870.615 280.348 868.101 280.385L854.456 280.582C851.47 280.625 848.885 277.978 848.957 274.952L849.121 268.095Z" fill="url(#paint75_linear)"/>
<path id="Rectangle 130_32" d="M849.899 269.173C849.956 266.793 851.667 264.936 853.992 264.729L865.544 263.703C868.594 263.432 871.393 266.06 871.387 269.189L871.377 274.707C871.372 277.26 869.471 279.227 866.959 279.28L855.305 279.525C852.312 279.588 849.713 276.943 849.786 273.91L849.899 269.173Z" fill="url(#paint76_linear)"/>
<ellipse id="Ellipse 1_32" rx="0.471672" ry="0.852094" transform="matrix(0.992459 0.144574 -0.0505485 0.997816 868.945 267.113)" fill="#09C549"/>
<ellipse id="Ellipse 2_32" rx="0.471672" ry="0.852094" transform="matrix(0.992459 0.144574 -0.0505485 0.997816 868.964 271.398)" fill="#FD601C"/>
<ellipse id="Ellipse 3_32" rx="0.471672" ry="0.852094" transform="matrix(0.992459 0.144574 -0.0505485 0.997816 868.961 276.109)" fill="#D50C0C"/>
</g>
<g id="Group 22_6">
<path id="Rectangle 129_33" d="M848.919 287.172C848.979 284.68 850.848 282.783 853.304 282.722L866.85 282.385C869.814 282.311 872.415 284.904 872.4 287.917L872.36 295.951C872.347 298.571 870.338 300.552 867.75 300.497L854.066 300.208C851.14 300.146 848.669 297.534 848.74 294.578L848.919 287.172Z" fill="url(#paint77_linear)"/>
<path id="Rectangle 130_33" d="M849.709 288.351C849.77 285.83 851.681 283.919 854.17 283.889L865.973 283.749C868.906 283.714 871.454 286.275 871.449 289.252L871.441 294.648C871.437 297.256 869.454 299.245 866.879 299.223L854.96 299.121C852.017 299.095 849.513 296.479 849.585 293.504L849.709 288.351Z" fill="url(#paint78_linear)"/>
<ellipse id="Ellipse 1_33" rx="0.471361" ry="0.852094" transform="matrix(0.992459 0.144574 -0.0505485 0.997816 868.946 286.996)" fill="#09C549"/>
<ellipse id="Ellipse 2_33" rx="0.471361" ry="0.852094" transform="matrix(0.992459 0.144574 -0.0505485 0.997816 868.965 291.281)" fill="#FD601C"/>
<ellipse id="Ellipse 3_33" rx="0.471361" ry="0.852094" transform="matrix(0.992459 0.144574 -0.0505485 0.997816 868.961 295.992)" fill="#D50C0C"/>
</g>
<g id="Group 23_6">
<path id="Rectangle 129_34" d="M848.666 307.879C848.727 305.323 850.689 303.404 853.217 303.427L866.934 303.553C869.841 303.579 872.332 306.138 872.319 309.084L872.283 317.427C872.271 320.12 870.158 322.124 867.493 321.97L853.629 321.169C850.769 321.003 848.414 318.43 848.483 315.547L848.666 307.879Z" fill="url(#paint79_linear)"/>
<path id="Rectangle 130_34" d="M849.445 309.258C849.507 306.68 851.502 304.748 854.055 304.796L865.997 305.02C868.893 305.074 871.352 307.631 871.325 310.561L871.272 316.315C871.247 319.001 869.13 320.998 866.47 320.844L854.454 320.149C851.599 319.984 849.251 317.419 849.319 314.541L849.445 309.258Z" fill="url(#paint80_linear)"/>
<ellipse id="Ellipse 1_34" rx="0.475072" ry="0.852094" transform="matrix(0.992459 0.144574 -0.0505485 0.997816 868.835 308.348)" fill="#09C549"/>
<ellipse id="Ellipse 2_34" rx="0.475072" ry="0.852094" transform="matrix(0.992459 0.144574 -0.0505485 0.997816 868.856 312.634)" fill="#FD601C"/>
<ellipse id="Ellipse 3_34" rx="0.475072" ry="0.852094" transform="matrix(0.992459 0.144574 -0.0505485 0.997816 868.855 317.345)" fill="#D50C0C"/>
</g>
<g id="Group 24_6">
<path id="Rectangle 129_35" d="M848.529 328.295C848.534 325.586 850.666 323.57 853.347 323.741L866.839 324.599C869.684 324.78 872.02 327.34 871.957 330.209L871.772 338.611C871.712 341.341 869.494 343.315 866.786 343.049L853.464 341.743C850.723 341.475 848.509 339.016 848.514 336.248L848.529 328.295Z" fill="url(#paint81_linear)"/>
<path id="Rectangle 130_35" d="M849.303 329.651C849.32 326.931 851.481 324.918 854.176 325.113L865.931 325.966C868.756 326.171 871.058 328.714 870.996 331.562L870.872 337.18C870.812 339.901 868.607 341.877 865.907 341.631L854.241 340.564C851.483 340.312 849.251 337.84 849.269 335.056L849.303 329.651Z" fill="url(#paint82_linear)"/>
<ellipse id="Ellipse 1_35" rx="0.475072" ry="0.796043" transform="matrix(0.992459 0.144574 -0.0505485 0.997816 868.583 329.335)" fill="#09C549"/>
<ellipse id="Ellipse 2_35" rx="0.475072" ry="0.796043" transform="matrix(0.992459 0.144574 -0.0505485 0.997816 868.618 333.342)" fill="#FD601C"/>
<ellipse id="Ellipse 3_35" rx="0.475072" ry="0.796043" transform="matrix(0.992459 0.144574 -0.0505485 0.997816 868.632 337.744)" fill="#D50C0C"/>
</g>
<g id="Group 20_6">
<path id="Rectangle 129_36" d="M849.311 248.637C849.332 246.305 850.958 244.374 853.23 243.983L866.814 241.644C869.936 241.106 872.889 243.641 872.875 246.847L872.84 254.927C872.83 257.368 871.065 259.361 868.665 259.644L855.047 261.248C851.988 261.608 849.213 259.091 849.242 255.982L849.311 248.637Z" fill="url(#paint83_linear)"/>
<path id="Rectangle 130_36" d="M850.138 249.676C850.154 247.312 851.818 245.357 854.128 244.989L865.694 243.145C868.792 242.652 871.69 245.161 871.686 248.331L871.678 253.763C871.675 256.231 869.878 258.246 867.446 258.51L855.855 259.767C852.818 260.096 850.084 257.602 850.105 254.522L850.138 249.676Z" fill="url(#paint84_linear)"/>
<ellipse id="Ellipse 1_36" rx="0.480652" ry="0.842434" transform="matrix(0.997623 0.0783683 -0.030184 0.999331 869.166 244.943)" fill="#09C549"/>
<ellipse id="Ellipse 2_36" rx="0.48065" ry="0.842434" transform="matrix(0.997623 0.0783683 -0.030184 0.999331 869.278 249.171)" fill="#FD601C"/>
<ellipse id="Ellipse 3_36" rx="0.480655" ry="0.842434" transform="matrix(0.997623 0.0783683 -0.030184 0.999331 869.378 253.82)" fill="#D50C0C"/>
</g>
</g>
</g>
<g id="Monitor">
<path id="Ellipse 5" d="M753.62 195.423C753.736 196.764 742.698 199.487 728.894 200.588C715.09 201.689 704.412 201.139 704.296 199.799C704.179 198.458 714.906 195.899 728.709 194.798C742.513 193.697 753.503 194.082 753.62 195.423Z" fill="url(#paint85_linear)"/>
<path id="Rectangle 132" d="M668.411 116.304L669.611 115.628L675.9 187.98L674.625 187.792L668.411 116.304Z" fill="#7B7B7B"/>
<path id="Rectangle 134" d="M721.088 183.079L727.011 182.452L726.912 188.555L727.126 194.634C725.356 194.708 722.752 194.983 722.152 195.321L721.088 183.079Z" fill="url(#paint86_linear)"/>
<path id="Rectangle 133" d="M717.039 183.538L721.093 183.136L722.152 195.321L718.091 195.645L717.039 183.538Z" fill="url(#paint87_linear)"/>
<path id="Rectangle 131" d="M669.611 115.628L773.441 115.261C775.011 115.255 776.328 116.458 776.464 118.02L781.307 173.741C781.448 175.36 780.273 176.788 778.657 176.961L675.9 187.98L669.611 115.628Z" fill="url(#paint88_linear)"/>
<path id="Rectangle 135" d="M747.686 115.342L773.294 115.26C774.863 115.255 776.18 116.458 776.315 118.02L781.158 173.728C781.299 175.352 780.116 176.783 778.494 176.949L738.635 181.032L747.686 115.342Z" fill="url(#paint89_linear)"/>
<path id="Ellipse 4" d="M753.595 195.133C753.705 196.407 742.145 198.66 728.514 199.747C714.883 200.835 704.343 200.344 704.232 199.07C704.122 197.797 714.72 195.333 728.351 194.246C741.982 193.158 753.484 193.859 753.595 195.133Z" fill="url(#paint90_linear)"/>
</g>
<g id="minipc">
<g id="miniPC">
<path id="Rectangle 137" d="M793.494 132.551C793.494 131.447 794.389 130.551 795.494 130.551H807.618V187.095L793.494 179.905V132.551Z" fill="url(#paint91_linear)"/>
<path id="Rectangle 138" d="M807.618 130.551H815.891C816.995 130.551 817.891 131.447 817.891 132.551V184.565C817.891 185.62 817.071 186.494 816.018 186.561L807.618 187.095V130.551Z" fill="url(#paint92_linear)"/>
<ellipse id="Ellipse 6" cx="811.471" cy="135.127" rx="2.24709" ry="2.28791" fill="url(#paint93_linear)"/>
<ellipse id="Ellipse 7" cx="811.792" cy="134.8" rx="0.642025" ry="0.653688" fill="#14F71D"/>
</g>
<ellipse id="Ellipse 8" cx="811.471" cy="142.318" rx="0.963038" ry="0.980532" fill="#1B1B1B"/>
<ellipse id="Ellipse 9" cx="811.471" cy="146.893" rx="0.963038" ry="0.980532" fill="#1B1B1B"/>
</g>
<g id="Group 38">
<g id="Mouse">
<path id="Ellipse 10" d="M808.419 201.856C806.257 208.754 804.773 208.425 796.567 208.354C787.657 208.277 779.32 209.415 779.353 205.876C782.69 202.126 787.777 195.461 796.687 195.538C804.235 196.265 808.452 198.317 808.419 201.856Z" fill="url(#paint94_linear)"/>
<path id="Ellipse 12" d="M787.198 200.289C787.198 200.913 785.928 200.507 785.23 201.42C784.837 201.935 784.05 200.913 784.05 200.289C784.05 199.664 784.578 199.158 785.23 199.158C785.882 199.158 787.198 199.664 787.198 200.289Z" fill="#BA1313"/>
<path id="Ellipse 11" d="M808.054 200.669C802.151 203.307 800.176 203.165 793.888 200.667C786.745 197.831 782.846 204.78 782.87 202.174C785.761 199.416 789.005 195.452 796.737 195.519C803.289 196.063 808.078 198.063 808.054 200.669Z" fill="url(#paint95_linear)"/>
</g>
</g>
<g id="Desktop">
<ellipse id="Ellipse 17" rx="1.14974" ry="1.00011" transform="matrix(0.999971 0.00765813 -0.00834483 0.999965 693.081 346.478)" fill="#373737"/>
<ellipse id="Ellipse 18" rx="1.14974" ry="1.00011" transform="matrix(0.999971 0.00765813 -0.00834483 0.999965 714.925 346.645)" fill="#373737"/>
<ellipse id="Ellipse 19" rx="1.14974" ry="1.00011" transform="matrix(0.999971 0.00765813 -0.00834483 0.999965 718.42 341.171)" fill="#373737"/>
<ellipse id="Ellipse 20" rx="1.14974" ry="1.00011" transform="matrix(0.999971 0.00765813 -0.00834483 0.999965 719.122 257.165)" fill="#373737"/>
<rect id="Rectangle 140" width="29.8931" height="93.0098" rx="3" transform="matrix(0.999971 0.00765813 -0.00834483 0.999965 689.833 253.44)" fill="url(#paint96_linear)"/>
<rect id="Rectangle 141" width="29.8931" height="41.5044" transform="matrix(0.999971 0.00765813 -0.00834483 0.999965 689.812 255.941)" fill="url(#paint97_linear)"/>
<rect id="Rectangle 142" x="0.247906" y="0.251906" width="3.52408" height="34.5037" rx="0.75" transform="matrix(0.999971 0.00765813 -0.00834483 0.999965 692.672 257.961)" fill="#676565" stroke="#464646" stroke-width="0.5"/>
<rect id="Rectangle 147" width="4.02408" height="35.0037" rx="1" transform="matrix(0.999971 0.00765813 -0.00834483 0.999965 703.017 258.042)" fill="url(#paint98_linear)"/>
<path id="Ellipse 13" d="M715.968 260.641C715.958 261.853 714.808 262.883 713.325 262.871C711.842 262.86 710.709 261.812 710.72 260.601C710.73 259.39 711.879 258.36 713.363 258.371C714.846 258.382 715.978 259.43 715.968 260.641Z" fill="#8D8D8D" stroke="#5A5A5A" stroke-width="0.5"/>
<ellipse id="Ellipse 14" rx="0.574868" ry="0.500053" transform="matrix(0.999971 0.00765813 -0.00834483 0.999965 713.344 260.621)" fill="#13DE4C"/>
<path id="Ellipse 15" d="M713.906 271.127C713.904 271.34 713.679 271.625 713.252 271.622C712.825 271.619 712.605 271.33 712.606 271.117C712.608 270.904 712.834 270.619 713.26 270.622C713.687 270.625 713.908 270.914 713.906 271.127Z" fill="#1E1E1E" stroke="#9B9A9A"/>
<path id="Ellipse 16" d="M713.86 276.627C713.858 276.84 713.633 277.126 713.206 277.122C712.779 277.119 712.559 276.83 712.561 276.617C712.562 276.404 712.788 276.119 713.214 276.122C713.641 276.126 713.862 276.414 713.86 276.627Z" fill="#1E1E1E" stroke="#9B9A9A"/>
<rect id="Rectangle 143" x="0.247906" y="0.251906" width="1.79947" height="3.50042" transform="matrix(0.999971 0.00765813 -0.00834483 0.999965 708.559 283.086)" fill="#2E2E2E" stroke="#A0A0A0" stroke-width="0.5"/>
<rect id="Rectangle 145" x="0.247906" y="0.251906" width="1.79947" height="3.50042" transform="matrix(0.999971 0.00765813 -0.00834483 0.999965 708.513 288.586)" fill="#2E2E2E" stroke="#A0A0A0" stroke-width="0.5"/>
<rect id="Rectangle 146" x="0.247906" y="0.251906" width="1.79947" height="3.50042" transform="matrix(0.999971 0.00765813 -0.00834483 0.999965 713.112 288.621)" fill="#2E2E2E" stroke="#A0A0A0" stroke-width="0.5"/>
<rect id="Rectangle 144" x="0.247906" y="0.251906" width="1.79947" height="3.50042" transform="matrix(0.999971 0.00765813 -0.00834483 0.999965 713.158 283.121)" fill="#2E2E2E" stroke="#A0A0A0" stroke-width="0.5"/>
</g>
<g id="scanner">
<path id="Rectangle 151" d="M725.372 423H728.33V432.867H725.372V423Z" fill="url(#paint99_linear)"/>
<g id="scanner_2">
<path id="Rectangle 160" d="M735.32 406.085H792.858L786.136 440.15L727.792 435.686L725.372 432.867L727.254 421.59L735.32 406.085Z" fill="black"/>
<path id="Rectangle 155" d="M744.731 384.471L795.562 386.737C796.52 386.78 797.193 387.698 796.944 388.625L790.169 413.838L735.051 410.548L744.731 384.471Z" fill="url(#paint100_linear)"/>
<path id="Rectangle 149" d="M786.136 426.994L792.858 406.085L793.934 429.813L786.136 439.68V426.994Z" fill="#777373"/>
<path id="Rectangle 148" d="M729.136 423L784.792 427.229L784.922 439.915L729.136 435.216V423Z" fill="url(#paint101_linear)"/>
<path id="Rectangle 150" d="M734.245 404.675H737.471L728.33 423H725.372L734.245 404.675Z" fill="url(#paint102_linear)"/>
<path id="Rectangle 153" d="M729.136 435.217L782.103 439.445L780.221 444.849L725.641 440.15L729.136 435.217Z" fill="url(#paint103_linear)"/>
<path id="Rectangle 154" d="M725.641 440.15L780.221 444.849L777.801 446.728L721.877 441.325L725.641 440.15Z" fill="url(#paint104_linear)"/>
<path id="Rectangle 156" d="M782.103 439.445L782.91 439.68L781.028 445.084L780.221 444.849L782.103 439.445Z" fill="#020202"/>
<path id="Rectangle 159" d="M754.948 364.267H793.665L782.103 414.307L742.042 412.663L754.948 364.267Z" fill="url(#paint105_linear)"/>
<path id="Rectangle 157" d="M777.801 446.728L780.221 444.849L781.028 445.084L778.339 447.198L777.801 446.728Z" fill="black"/>
<path id="Rectangle 158" d="M721.877 441.325L777.801 446.728L778.339 447.198L721.877 441.795V441.325Z" fill="#0F0F0F"/>
<path id="Rectangle 152" d="M736.396 409.139L789.632 411.932L784.792 427.229L729.136 423L736.396 409.139Z" fill="url(#paint106_linear)"/>
<path id="Rectangle 161" d="M762.476 415.482L784.792 417.126L783.448 421.355L760.863 419.946L762.476 415.482Z" fill="url(#paint107_linear)"/>
<path id="Rectangle 162" d="M796.622 386.82C797.029 386.82 797.325 387.206 797.22 387.599L790.169 413.837H789.094L796.622 386.82Z" fill="url(#paint108_linear)"/>
</g>
</g>
<g id="Notebook]">
<path id="Rectangle 167" d="M753.309 317.696L837.305 316.194C837.684 316.187 838.033 316.402 838.197 316.744C838.443 317.256 838.198 317.869 837.667 318.071L781.434 339.387L753.309 321.48V317.696Z" fill="url(#paint109_linear)"/>
<path id="Rectangle 163" d="M743.571 273.124C743.339 271.903 744.265 270.767 745.508 270.75L796.048 270.049C796.997 270.036 797.825 270.693 798.029 271.62L805.923 307.607L752.582 320.471L743.571 273.124Z" fill="#444242"/>
<path id="Rectangle 164" d="M744.291 273.37C744.062 272.151 744.988 271.019 746.228 271.002L796.139 270.302C797.09 270.288 797.92 270.947 798.121 271.878L805.923 307.86L753.067 320.218L744.291 273.37Z" fill="url(#paint110_linear)"/>
<path id="Rectangle 165" d="M753.794 320.218L805.923 305.842L836.343 315.543C837.253 315.833 837.278 317.111 836.381 317.436L781.434 337.369L753.794 320.218Z" fill="url(#paint111_linear)"/>
<path id="Rectangle 166" d="M746.758 277.149C746.507 275.933 747.415 274.784 748.656 274.747L794.567 273.356C795.528 273.327 796.374 273.986 796.581 274.925L802.341 301.111C802.578 302.191 801.894 303.259 800.814 303.495L756.256 313.229C755.168 313.466 754.095 312.769 753.871 311.678L746.758 277.149Z" fill="url(#paint112_linear)"/>
<path id="Rectangle 170" d="M773.483 274.019L794.628 273.094C795.6 273.052 796.462 273.715 796.669 274.666L802.472 301.253C802.708 302.333 802.022 303.4 800.941 303.634L769.483 310.445L773.483 274.019Z" fill="url(#paint113_linear)"/>
<path id="Rectangle 168" d="M757.916 319.966L804.953 306.851L822.895 313.156L774.403 329.803L757.916 319.966Z" fill="url(#paint114_linear)"/>
<path id="Rectangle 169" d="M793.8 323.829L810.772 318.028L819.985 321.984L802.286 328.289L793.8 323.829Z" fill="url(#paint115_linear)"/>
</g>
<g id="Group 37">
<g id="Group 31">
<path id="Rectangle 135_2" d="M666 224.791L783.154 218.012C783.226 218.008 783.297 218.02 783.364 218.045L810.375 228.536C810.869 228.727 810.765 229.454 810.237 229.5L690.003 239.87L666 224.791Z" fill="#807E7E"/>
<path id="Rectangle 136" d="M666 224.791L690.003 239.87H689.216L666 226.299V224.791Z" fill="#4A4949"/>
<path id="Rectangle 139" d="M671.903 225.922L783.263 219.514L801.364 226.676L688.823 236.1L671.903 225.922Z" fill="#A0A0A0"/>
</g>
</g>
</g>
<g id="pessoas">
<g id="Group 42">
<path id="Rectangle 188" d="M498.47 84.3378H506.623L494.691 106.351V91.4921L498.47 84.3378Z" fill="#8B0C0C"/>
<g id="Group 41">
<path id="Rectangle 187" d="M541.098 444.438L555.615 440.769C557.871 452.079 559.097 459.879 559.644 468.049C560.205 476.438 554.846 484.643 546.516 485.78C543.786 486.152 541.509 486.061 539.548 485.439C533.725 483.591 533.941 475.826 535.957 470.058C539.358 460.329 540.585 453.697 541.098 444.438Z" fill="#192F2F"/>
<path id="Rectangle 186" d="M478.585 466.215C478.497 463.064 480.86 460.576 483.931 459.871C495.538 457.207 503.201 453.32 515.644 447.006C517.218 449.523 518.499 451.597 519.572 453.694C522.32 459.063 517.871 464.829 511.857 465.292C499.843 466.218 491.456 466.927 480.424 467.94C479.463 468.028 478.612 467.179 478.585 466.215Z" fill="#192F2F"/>
<path id="Rectangle 185" d="M420.389 258.059C421.224 256.191 431.003 254.663 444.252 249.804L448.826 255.858C446.201 261.353 445.194 262.017 441.269 268.148C436.511 271.797 433.02 273.898 429.896 274.655C424.118 276.055 420.272 268.675 422.974 263.379C424.565 260.26 419.554 259.927 420.389 258.059Z" fill="#F1AC7A"/>
<path id="Rectangle 184" d="M511.07 126.249L528.968 124.047V135.971L511.07 139.09V126.249Z" fill="#F1AC7A"/>
<path id="Rectangle 181" d="M479.26 158.623C481.412 153.066 485.898 148.715 491.539 146.794L503.638 142.673L481.241 206.512L448.428 260.444L436.423 252.372C455.37 215.524 465.349 194.536 479.26 158.623Z" fill="#167B7B"/>
<path id="Rectangle 176" d="M381.81 193.854C384.771 193.854 393.344 195.938 393.344 195.938C393.344 195.938 396.84 196.275 402.961 195.938C409.082 195.601 413.429 193.854 413.429 193.854L414.224 206.328C414.224 206.328 401.683 209.016 399.906 210.364C398.129 211.711 391.922 212.565 387.775 212.565C383.629 212.565 374.924 210.926 374.134 209.579C373.345 208.232 372.564 207.074 375.247 204.31C376.822 202.688 385.191 198.464 385.191 198.464C385.191 198.464 378.848 193.854 381.81 193.854Z" fill="#FABD91"/>
<path id="Rectangle 178" d="M542.292 345.195L518.03 332.17L540.303 454.711L557.206 450.859L542.292 345.195Z" fill="url(#paint116_linear)"/>
<g id="Group 39">
<path id="Rectangle 179" d="M472.69 258.976L519.82 249.437C513.043 287.567 500.286 310.107 503.116 348.587L482.434 354.273C467.337 317 474.875 297.965 472.69 258.976Z" fill="#22AE7C"/>
<path id="Rectangle 180" d="M502.917 346.385L478.656 333.361L500.928 455.901L517.831 452.049L502.917 346.385Z" fill="url(#paint117_linear)"/>
</g>
<path id="Rectangle 177" d="M495.686 256.225L545.998 248.703C548.647 281.798 548.346 305.342 542.49 347.396L521.809 353.083C510.495 315.512 502.272 294.867 495.686 256.225Z" fill="#28CF93"/>
<path id="Rectangle 174" d="M480.127 159.601C481.142 154.039 484.49 149.099 489.486 146.452C504.764 138.354 517.552 135.469 533.931 135.34C546.023 135.245 554.366 146.92 552.115 158.8C544.994 196.387 543.682 223.992 547.191 269.066C515.613 270.245 500.052 272.661 472.817 279.155C470.727 237.4 470.613 211.761 480.127 159.601Z" fill="url(#paint118_linear)"/>
<path id="Rectangle 175" d="M538.314 135.519L541.859 135.581C550.478 135.732 556.494 144.175 553.824 152.371C552.645 155.99 549.913 158.901 546.377 160.309C496.469 180.182 466.782 191.349 409.253 209.263V194.404C458.648 174.166 486.577 161.405 538.314 135.519Z" fill="url(#paint119_linear)"/>
<g id="Group 40">
<path id="Ellipse 21" d="M541.297 109.103C537.951 122.262 524.622 129.667 513.329 133.737C510.648 134.703 507.628 134.376 505.394 132.607C496.451 125.526 494.565 116.1 494.565 102.499C494.565 87.2005 507.51 79.3849 522.008 79.3849C536.505 79.3849 541.297 93.8045 541.297 109.103Z" fill="#FABD91"/>
<path id="Rectangle 182" d="M488.201 80.1185L517.434 77L540.502 83.7874L513.457 94.794L520.019 88.0066H488.201L497.548 83.7874L488.201 80.1185Z" fill="#8B0C0C"/>
<path id="Rectangle 183" d="M526.54 87.6398L536.682 84.8881C536.682 84.8881 539.85 83.2348 541.256 89.8411C542.662 96.4474 541.035 100.321 541.256 106.901C538.069 97.757 534.627 100.88 533.305 112.955L526.54 99.0133C525.41 93.8682 525.848 91.651 526.54 87.6398Z" fill="#8B0C0C"/>
</g>
</g>
</g>
<g id="Group 43">
<path id="Rectangle 188_2" d="M255.877 84.3378H246.909L258.244 107.452C260.198 99.3785 261.512 94.5317 260.034 91.4921L255.877 84.3378Z" fill="#6A431F"/>
<g id="Group 41_2">
<path id="Rectangle 187_2" d="M214.047 444.438L200.186 440.769C198.014 452.177 196.842 460.015 196.327 468.263C195.81 476.548 201.01 484.776 209.244 485.83C211.773 486.153 213.887 486.023 215.713 485.375C221.237 483.414 220.944 475.971 219.076 470.415C215.738 460.49 214.544 453.81 214.047 444.438Z" fill="#192F2F"/>
<path id="Rectangle 186_2" d="M273.736 466.198C273.819 463.053 271.476 460.563 268.419 459.82C257.455 457.158 250.156 453.28 238.351 447.006C236.83 449.555 235.595 451.649 234.562 453.773C231.947 459.152 236.372 464.84 242.334 465.322C253.575 466.23 261.51 466.934 271.884 467.93C272.852 468.023 273.71 467.17 273.736 466.198Z" fill="#192F2F"/>
<path id="Rectangle 185_2" d="M315.317 268.149C314.52 266.28 305.183 264.753 292.532 259.894L288.165 265.947C290.672 271.443 291.634 272.106 295.381 278.238C299.738 281.738 302.983 283.813 305.873 284.645C311.596 286.292 315.457 278.823 312.849 273.468C311.33 270.35 316.115 270.017 315.317 268.149Z" fill="#B27843"/>
<path id="Rectangle 184_2" d="M242.718 126.249L225.63 124.047V135.971L242.718 139.09V126.249Z" fill="#B37843"/>
<path id="Rectangle 181_2" d="M266.79 159.22C265.391 153.665 261.702 148.954 256.626 146.299L249.693 142.673L265.596 212.279L288.895 271.084L297.42 262.283C283.869 221.818 276.779 198.894 266.79 159.22Z" fill="#113869"/>
<path id="Rectangle 176_2" d="M366.137 193.854C363.309 193.854 355.124 195.938 355.124 195.938C355.124 195.938 351.786 196.275 345.941 195.938C340.097 195.601 335.947 193.854 335.947 193.854L335.188 206.328C335.188 206.328 347.162 209.016 348.859 210.364C350.555 211.711 356.482 212.565 360.441 212.565C364.4 212.565 372.711 210.926 373.465 209.579C374.22 208.232 374.965 207.074 372.403 204.31C370.9 202.688 362.908 198.464 362.908 198.464C362.908 198.464 368.965 193.854 366.137 193.854Z" fill="#D39051"/>
<path id="Rectangle 178_2" d="M212.908 345.195L236.073 332.17L214.807 454.711L198.667 450.859L212.908 345.195Z" fill="url(#paint120_linear)"/>
<g id="Group 39_2">
<path id="Rectangle 179_2" d="M279.364 258.976L234.364 249.437C240.835 287.567 253.015 310.107 250.313 348.587L270.06 354.273C284.475 317 277.278 297.965 279.364 258.976Z" fill="#4D0F6B"/>
<path id="Rectangle 180_2" d="M250.503 346.385L273.668 333.361L252.402 455.901L236.263 452.049L250.503 346.385Z" fill="url(#paint121_linear)"/>
</g>
<path id="Rectangle 177_2" d="M257.408 256.225L209.369 248.703C206.84 281.798 207.127 305.342 212.718 347.396L232.465 353.083C243.267 315.512 251.119 294.867 257.408 256.225Z" fill="#6C1994"/>
<path id="Rectangle 174_2" d="M272.24 159.469C271.284 153.984 268.064 149.073 263.192 146.377C248.887 138.46 236.857 135.558 221.609 135.348C209.626 135.183 201.342 146.744 203.481 158.535C210.322 196.257 211.589 223.886 208.23 269.066C238.381 270.245 253.239 272.661 279.243 279.155C281.24 237.365 281.347 211.718 272.24 159.469Z" fill="url(#paint122_linear)"/>
<g id="Group 40_2">
<path id="Ellipse 21_2" d="M213.858 109.103C217.017 122.115 229.495 129.5 240.198 133.598C242.97 134.66 246.135 134.309 248.399 132.389C256.714 125.333 258.478 115.961 258.478 102.499C258.478 87.2005 246.118 79.3849 232.275 79.3849C218.433 79.3849 213.858 93.8045 213.858 109.103Z" fill="#D39051"/>
<path id="Rectangle 182_2" d="M264.554 80.1185L236.642 77C225.376 77.2324 220.256 80.288 213.728 84.821C217.437 93.4421 222.113 96.5161 239.551 95.8277L228.613 92.2258C238.543 98.0931 251.245 96.6081 264.554 92.2258C261.12 86.2163 259.19 79.0329 255.63 83.7874C258.661 83.2818 260.64 82.43 264.554 80.1185Z" fill="#6A431F"/>
<path id="Rectangle 183_2" d="M227.948 87.6398L218.264 84.8881C218.264 84.8881 215.239 83.2348 213.897 89.8411C212.555 96.4474 214.108 100.321 213.897 106.901C216.94 97.757 220.226 100.88 221.488 112.955L227.948 99.0133C229.027 93.8682 228.608 91.651 227.948 87.6398Z" fill="#6A431F"/>
</g>
<path id="Rectangle 189" d="M224.04 135.335C224.04 135.335 238.954 134.386 251.88 141.022L254.664 174.592L247.903 171.29L224.04 135.335Z" fill="url(#paint123_linear)"/>
<path id="Rectangle 190" d="M235.574 136.069C238.912 136.186 241.135 136.491 243.717 137.351C245.677 138.004 246.9 139.972 246.471 141.992C246.193 143.303 245.803 144.645 245.345 146.342H241.24C238.508 142.491 237.249 139.995 235.574 136.069Z" fill="#BD0C0C"/>
<path id="Rectangle 191" d="M240.943 144.691H245.517L254.863 173.675L249.295 170.373L243.926 165.42L242.136 162.485L240.943 144.691Z" fill="url(#paint124_linear)"/>
<path id="Rectangle 175_2" d="M216.705 135.519C206.734 135.702 199.788 145.592 202.75 155.115C203.353 157.054 204.357 158.9 205.689 160.433C240.363 200.364 270.541 208.579 339.934 209.263V194.404C282.155 192.539 253.196 183.55 216.705 135.519Z" fill="url(#paint125_linear)"/>
</g>
</g>
</g>
</g>
<defs>
<linearGradient id="paint0_linear" x1="1453.5" y1="219.807" x2="572.548" y2="815.328" gradientUnits="userSpaceOnUse">
<stop stop-color="#9FCCEB"/>
<stop offset="1" stop-color="#9FF0FB"/>
</linearGradient>
<linearGradient id="paint1_linear" x1="-155.61" y1="469.941" x2="847.568" y2="605.024" gradientUnits="userSpaceOnUse">
<stop stop-color="#0064AB"/>
<stop offset="1" stop-color="#9FF0FB"/>
</linearGradient>
<linearGradient id="paint2_linear" x1="1443" y1="274.377" x2="18.9093" y2="54.449" gradientUnits="userSpaceOnUse">
<stop stop-color="#0064AB"/>
<stop offset="1" stop-color="#3CE2F9"/>
</linearGradient>
<linearGradient id="paint3_linear" x1="1499.9" y1="315.125" x2="-144.643" y2="230.026" gradientUnits="userSpaceOnUse">
<stop stop-color="#0064AB"/>
<stop offset="1" stop-color="#3CE2F9"/>
</linearGradient>
<linearGradient id="paint4_linear" x1="750.716" y1="108.236" x2="1449.63" y2="145.69" gradientUnits="userSpaceOnUse">
<stop stop-color="#677480"/>
<stop offset="1" stop-color="#A9B0B9"/>
</linearGradient>
<linearGradient id="paint5_linear" x1="1119.9" y1="494.681" x2="1312.42" y2="-29.8107" gradientUnits="userSpaceOnUse">
<stop stop-color="#7D7D7D"/>
<stop offset="1"/>
</linearGradient>
<linearGradient id="paint6_linear" x1="1103.06" y1="-46.9565" x2="1469.69" y2="525.44" gradientUnits="userSpaceOnUse">
<stop stop-color="#626262"/>
<stop offset="1"/>
</linearGradient>
<linearGradient id="paint7_linear" x1="1079.42" y1="34.7296" x2="1330.09" y2="455.128" gradientUnits="userSpaceOnUse">
<stop stop-color="#626262"/>
<stop offset="1"/>
</linearGradient>
<linearGradient id="paint8_linear" x1="994.452" y1="53.4033" x2="1189.51" y2="478.574" gradientUnits="userSpaceOnUse">
<stop stop-color="#626262"/>
<stop offset="1"/>
</linearGradient>
<linearGradient id="paint9_linear" x1="947.242" y1="111.559" x2="1075.5" y2="517.178" gradientUnits="userSpaceOnUse">
<stop stop-color="#626262"/>
<stop offset="1"/>
</linearGradient>
<linearGradient id="paint10_linear" x1="901.077" y1="127.868" x2="862.228" y2="502.915" gradientUnits="userSpaceOnUse">
<stop stop-color="#626262"/>
<stop offset="1"/>
</linearGradient>
<linearGradient id="paint11_linear" x1="869.645" y1="110.709" x2="747.563" y2="459.116" gradientUnits="userSpaceOnUse">
<stop stop-color="#626262"/>
<stop offset="1"/>
</linearGradient>
<linearGradient id="paint12_linear" x1="1179.16" y1="257.586" x2="1243.34" y2="256.665" gradientUnits="userSpaceOnUse">
<stop stop-color="#67707B"/>
<stop offset="1" stop-color="#C3CCD4"/>
</linearGradient>
<linearGradient id="paint13_linear" x1="1168.13" y1="97.3621" x2="1100.56" y2="164.264" gradientUnits="userSpaceOnUse">
<stop stop-color="#CDCDCD"/>
<stop offset="1" stop-color="#9F9999"/>
</linearGradient>
<linearGradient id="paint14_linear" x1="1146.81" y1="120.862" x2="1122.77" y2="206.655" gradientUnits="userSpaceOnUse">
<stop stop-color="#949494"/>
<stop offset="1"/>
</linearGradient>
<linearGradient id="paint15_linear" x1="1170.84" y1="175.272" x2="1101.49" y2="236.986" gradientUnits="userSpaceOnUse">
<stop stop-color="#CDCDCD"/>
<stop offset="1" stop-color="#9F9999"/>
</linearGradient>
<linearGradient id="paint16_linear" x1="1148.88" y1="197.131" x2="1119.1" y2="279.855" gradientUnits="userSpaceOnUse">
<stop stop-color="#949494"/>
<stop offset="1"/>
</linearGradient>
<linearGradient id="paint17_linear" x1="1172.01" y1="211.387" x2="1102.66" y2="273.059" gradientUnits="userSpaceOnUse">
<stop stop-color="#CDCDCD"/>
<stop offset="1" stop-color="#9F9999"/>
</linearGradient>
<linearGradient id="paint18_linear" x1="1150.07" y1="233.248" x2="1120.27" y2="315.961" gradientUnits="userSpaceOnUse">
<stop stop-color="#949494"/>
<stop offset="1"/>
</linearGradient>
<linearGradient id="paint19_linear" x1="1172.95" y1="251.28" x2="1103.56" y2="313.456" gradientUnits="userSpaceOnUse">
<stop stop-color="#CDCDCD"/>
<stop offset="1" stop-color="#9F9999"/>
</linearGradient>
<linearGradient id="paint20_linear" x1="1150.84" y1="273.128" x2="1121.19" y2="355.953" gradientUnits="userSpaceOnUse">
<stop stop-color="#949494"/>
<stop offset="1"/>
</linearGradient>
<linearGradient id="paint21_linear" x1="1173.35" y1="293.861" x2="1108.34" y2="356.039" gradientUnits="userSpaceOnUse">
<stop stop-color="#CDCDCD"/>
<stop offset="1" stop-color="#9F9999"/>
</linearGradient>
<linearGradient id="paint22_linear" x1="1151.29" y1="314.163" x2="1124.74" y2="392.398" gradientUnits="userSpaceOnUse">
<stop stop-color="#949494"/>
<stop offset="1"/>
</linearGradient>
<linearGradient id="paint23_linear" x1="1170.27" y1="136.331" x2="1103.03" y2="203.281" gradientUnits="userSpaceOnUse">
<stop stop-color="#CDCDCD"/>
<stop offset="1" stop-color="#9F9999"/>
</linearGradient>
<linearGradient id="paint24_linear" x1="1148.38" y1="159.155" x2="1123.86" y2="243.638" gradientUnits="userSpaceOnUse">
<stop stop-color="#949494"/>
<stop offset="1"/>
</linearGradient>
<linearGradient id="paint25_linear" x1="1091.56" y1="116.962" x2="1029.14" y2="176.647" gradientUnits="userSpaceOnUse">
<stop stop-color="#CDCDCD"/>
<stop offset="1" stop-color="#9F9999"/>
</linearGradient>
<linearGradient id="paint26_linear" x1="1072.52" y1="138.691" x2="1049.63" y2="217.607" gradientUnits="userSpaceOnUse">
<stop stop-color="#949494"/>
<stop offset="1"/>
</linearGradient>
<linearGradient id="paint27_linear" x1="1093.98" y1="189.001" x2="1030.15" y2="243.855" gradientUnits="userSpaceOnUse">
<stop stop-color="#CDCDCD"/>
<stop offset="1" stop-color="#9F9999"/>
</linearGradient>
<linearGradient id="paint28_linear" x1="1074.37" y1="209.215" x2="1046.09" y2="285.078" gradientUnits="userSpaceOnUse">
<stop stop-color="#949494"/>
<stop offset="1"/>
</linearGradient>
<linearGradient id="paint29_linear" x1="1095.03" y1="222.396" x2="1031.2" y2="277.211" gradientUnits="userSpaceOnUse">
<stop stop-color="#CDCDCD"/>
<stop offset="1" stop-color="#9F9999"/>
</linearGradient>
<linearGradient id="paint30_linear" x1="1075.43" y1="242.609" x2="1047.14" y2="318.464" gradientUnits="userSpaceOnUse">
<stop stop-color="#949494"/>
<stop offset="1"/>
</linearGradient>
<linearGradient id="paint31_linear" x1="1095.87" y1="259.283" x2="1031.98" y2="314.561" gradientUnits="userSpaceOnUse">
<stop stop-color="#CDCDCD"/>
<stop offset="1" stop-color="#9F9999"/>
</linearGradient>
<linearGradient id="paint32_linear" x1="1076.12" y1="279.485" x2="1047.97" y2="355.449" gradientUnits="userSpaceOnUse">
<stop stop-color="#949494"/>
<stop offset="1"/>
</linearGradient>
<linearGradient id="paint33_linear" x1="1096.22" y1="298.656" x2="1036.24" y2="354.06" gradientUnits="userSpaceOnUse">
<stop stop-color="#CDCDCD"/>
<stop offset="1" stop-color="#9F9999"/>
</linearGradient>
<linearGradient id="paint34_linear" x1="1076.52" y1="317.429" x2="1051.29" y2="389.236" gradientUnits="userSpaceOnUse">
<stop stop-color="#949494"/>
<stop offset="1"/>
</linearGradient>
<linearGradient id="paint35_linear" x1="1093.47" y1="152.994" x2="1031.35" y2="212.734" gradientUnits="userSpaceOnUse">
<stop stop-color="#CDCDCD"/>
<stop offset="1" stop-color="#9F9999"/>
</linearGradient>
<linearGradient id="paint36_linear" x1="1073.92" y1="174.099" x2="1050.59" y2="251.783" gradientUnits="userSpaceOnUse">
<stop stop-color="#949494"/>
<stop offset="1"/>
</linearGradient>
<linearGradient id="paint37_linear" x1="1023.35" y1="150.446" x2="970.332" y2="194.894" gradientUnits="userSpaceOnUse">
<stop stop-color="#CDCDCD"/>
<stop offset="1" stop-color="#9F9999"/>
</linearGradient>
<linearGradient id="paint38_linear" x1="1008.12" y1="168.169" x2="985.116" y2="232.653" gradientUnits="userSpaceOnUse">
<stop stop-color="#949494"/>
<stop offset="1"/>
</linearGradient>
<linearGradient id="paint39_linear" x1="1024.2" y1="211.363" x2="970.578" y2="251.823" gradientUnits="userSpaceOnUse">
<stop stop-color="#CDCDCD"/>
<stop offset="1" stop-color="#9F9999"/>
</linearGradient>
<linearGradient id="paint40_linear" x1="1008.55" y1="227.787" x2="981.152" y2="289.063" gradientUnits="userSpaceOnUse">
<stop stop-color="#949494"/>
<stop offset="1"/>
</linearGradient>
<linearGradient id="paint41_linear" x1="1024.54" y1="239.599" x2="970.923" y2="280.028" gradientUnits="userSpaceOnUse">
<stop stop-color="#CDCDCD"/>
<stop offset="1" stop-color="#9F9999"/>
</linearGradient>
<linearGradient id="paint42_linear" x1="1008.9" y1="256.023" x2="981.491" y2="317.29" gradientUnits="userSpaceOnUse">
<stop stop-color="#949494"/>
<stop offset="1"/>
</linearGradient>
<linearGradient id="paint43_linear" x1="1024.66" y1="270.778" x2="970.959" y2="311.575" gradientUnits="userSpaceOnUse">
<stop stop-color="#CDCDCD"/>
<stop offset="1" stop-color="#9F9999"/>
</linearGradient>
<linearGradient id="paint44_linear" x1="1008.9" y1="287.187" x2="981.603" y2="348.563" gradientUnits="userSpaceOnUse">
<stop stop-color="#949494"/>
<stop offset="1"/>
</linearGradient>
<linearGradient id="paint45_linear" x1="1024.37" y1="304.039" x2="973.606" y2="345.17" gradientUnits="userSpaceOnUse">
<stop stop-color="#CDCDCD"/>
<stop offset="1" stop-color="#9F9999"/>
</linearGradient>
<linearGradient id="paint46_linear" x1="1008.67" y1="319.244" x2="984.021" y2="377.42" gradientUnits="userSpaceOnUse">
<stop stop-color="#949494"/>
<stop offset="1"/>
</linearGradient>
<linearGradient id="paint47_linear" x1="1024.32" y1="180.939" x2="971.526" y2="225.45" gradientUnits="userSpaceOnUse">
<stop stop-color="#CDCDCD"/>
<stop offset="1" stop-color="#9F9999"/>
</linearGradient>
<linearGradient id="paint48_linear" x1="1008.71" y1="198.117" x2="985.376" y2="261.503" gradientUnits="userSpaceOnUse">
<stop stop-color="#949494"/>
<stop offset="1"/>
</linearGradient>
<linearGradient id="paint49_linear" x1="965.735" y1="170.585" x2="919.961" y2="206.199" gradientUnits="userSpaceOnUse">
<stop stop-color="#CDCDCD"/>
<stop offset="1" stop-color="#9F9999"/>
</linearGradient>
<linearGradient id="paint50_linear" x1="953.356" y1="186.145" x2="932.141" y2="241.732" gradientUnits="userSpaceOnUse">
<stop stop-color="#949494"/>
<stop offset="1"/>
</linearGradient>
<linearGradient id="paint51_linear" x1="966.358" y1="223.922" x2="920.397" y2="256.091" gradientUnits="userSpaceOnUse">
<stop stop-color="#CDCDCD"/>
<stop offset="1" stop-color="#9F9999"/>
</linearGradient>
<linearGradient id="paint52_linear" x1="953.636" y1="238.346" x2="928.53" y2="290.738" gradientUnits="userSpaceOnUse">
<stop stop-color="#949494"/>
<stop offset="1"/>
</linearGradient>
<linearGradient id="paint53_linear" x1="966.6" y1="248.646" x2="920.647" y2="280.788" gradientUnits="userSpaceOnUse">
<stop stop-color="#CDCDCD"/>
<stop offset="1" stop-color="#9F9999"/>
</linearGradient>
<linearGradient id="paint54_linear" x1="953.886" y1="263.07" x2="928.772" y2="315.453" gradientUnits="userSpaceOnUse">
<stop stop-color="#949494"/>
<stop offset="1"/>
</linearGradient>
<linearGradient id="paint55_linear" x1="966.664" y1="275.946" x2="920.614" y2="308.399" gradientUnits="userSpaceOnUse">
<stop stop-color="#CDCDCD"/>
<stop offset="1" stop-color="#9F9999"/>
</linearGradient>
<linearGradient id="paint56_linear" x1="953.855" y1="290.359" x2="928.833" y2="342.847" gradientUnits="userSpaceOnUse">
<stop stop-color="#949494"/>
<stop offset="1"/>
</linearGradient>
<linearGradient id="paint57_linear" x1="966.391" y1="305.072" x2="922.666" y2="337.944" gradientUnits="userSpaceOnUse">
<stop stop-color="#CDCDCD"/>
<stop offset="1" stop-color="#9F9999"/>
</linearGradient>
<linearGradient id="paint58_linear" x1="953.627" y1="318.429" x2="931" y2="368.279" gradientUnits="userSpaceOnUse">
<stop stop-color="#949494"/>
<stop offset="1"/>
</linearGradient>
<linearGradient id="paint59_linear" x1="966.492" y1="197.282" x2="920.889" y2="232.962" gradientUnits="userSpaceOnUse">
<stop stop-color="#CDCDCD"/>
<stop offset="1" stop-color="#9F9999"/>
</linearGradient>
<linearGradient id="paint60_linear" x1="953.796" y1="212.367" x2="932.297" y2="266.954" gradientUnits="userSpaceOnUse">
<stop stop-color="#949494"/>
<stop offset="1"/>
</linearGradient>
<linearGradient id="paint61_linear" x1="918.183" y1="192.071" x2="878.194" y2="224.241" gradientUnits="userSpaceOnUse">
<stop stop-color="#CDCDCD"/>
<stop offset="1" stop-color="#9F9999"/>
</linearGradient>
<linearGradient id="paint62_linear" x1="906.863" y1="205.282" x2="888.623" y2="253.326" gradientUnits="userSpaceOnUse">
<stop stop-color="#949494"/>
<stop offset="1"/>
</linearGradient>
<linearGradient id="paint63_linear" x1="918.516" y1="238.031" x2="878.195" y2="267.231" gradientUnits="userSpaceOnUse">
<stop stop-color="#CDCDCD"/>
<stop offset="1" stop-color="#9F9999"/>
</linearGradient>
<linearGradient id="paint64_linear" x1="906.889" y1="250.257" x2="885.401" y2="295.738" gradientUnits="userSpaceOnUse">
<stop stop-color="#949494"/>
<stop offset="1"/>
</linearGradient>
<linearGradient id="paint65_linear" x1="918.628" y1="259.333" x2="878.313" y2="288.511" gradientUnits="userSpaceOnUse">
<stop stop-color="#CDCDCD"/>
<stop offset="1" stop-color="#9F9999"/>
</linearGradient>
<linearGradient id="paint66_linear" x1="907.008" y1="271.56" x2="885.513" y2="317.034" gradientUnits="userSpaceOnUse">
<stop stop-color="#949494"/>
<stop offset="1"/>
</linearGradient>
<linearGradient id="paint67_linear" x1="918.567" y1="282.854" x2="878.179" y2="312.303" gradientUnits="userSpaceOnUse">
<stop stop-color="#CDCDCD"/>
<stop offset="1" stop-color="#9F9999"/>
</linearGradient>
<linearGradient id="paint68_linear" x1="906.86" y1="295.069" x2="885.442" y2="340.627" gradientUnits="userSpaceOnUse">
<stop stop-color="#949494"/>
<stop offset="1"/>
</linearGradient>
<linearGradient id="paint69_linear" x1="918.191" y1="307.941" x2="879.94" y2="337.682" gradientUnits="userSpaceOnUse">
<stop stop-color="#CDCDCD"/>
<stop offset="1" stop-color="#9F9999"/>
</linearGradient>
<linearGradient id="paint70_linear" x1="906.531" y1="319.248" x2="887.15" y2="362.47" gradientUnits="userSpaceOnUse">
<stop stop-color="#949494"/>
<stop offset="1"/>
</linearGradient>
<linearGradient id="paint71_linear" x1="918.754" y1="215.082" x2="878.923" y2="247.303" gradientUnits="userSpaceOnUse">
<stop stop-color="#CDCDCD"/>
<stop offset="1" stop-color="#9F9999"/>
</linearGradient>
<linearGradient id="paint72_linear" x1="907.148" y1="227.879" x2="888.68" y2="275.083" gradientUnits="userSpaceOnUse">
<stop stop-color="#949494"/>
<stop offset="1"/>
</linearGradient>
<linearGradient id="paint73_linear" x1="876.366" y1="199.546" x2="840.113" y2="228.444" gradientUnits="userSpaceOnUse">
<stop stop-color="#CDCDCD"/>
<stop offset="1" stop-color="#9F9999"/>
</linearGradient>
<linearGradient id="paint74_linear" x1="866.178" y1="211.549" x2="849.514" y2="255.095" gradientUnits="userSpaceOnUse">
<stop stop-color="#949494"/>
<stop offset="1"/>
</linearGradient>
<linearGradient id="paint75_linear" x1="876.656" y1="241.283" x2="840.135" y2="267.488" gradientUnits="userSpaceOnUse">
<stop stop-color="#CDCDCD"/>
<stop offset="1" stop-color="#9F9999"/>
</linearGradient>
<linearGradient id="paint76_linear" x1="866.193" y1="252.393" x2="846.574" y2="293.574" gradientUnits="userSpaceOnUse">
<stop stop-color="#949494"/>
<stop offset="1"/>
</linearGradient>
<linearGradient id="paint77_linear" x1="876.753" y1="260.629" x2="840.237" y2="286.813" gradientUnits="userSpaceOnUse">
<stop stop-color="#CDCDCD"/>
<stop offset="1" stop-color="#9F9999"/>
</linearGradient>
<linearGradient id="paint78_linear" x1="866.296" y1="271.739" x2="846.67" y2="312.913" gradientUnits="userSpaceOnUse">
<stop stop-color="#949494"/>
<stop offset="1"/>
</linearGradient>
<linearGradient id="paint79_linear" x1="876.692" y1="281.989" x2="840.109" y2="308.419" gradientUnits="userSpaceOnUse">
<stop stop-color="#CDCDCD"/>
<stop offset="1" stop-color="#9F9999"/>
</linearGradient>
<linearGradient id="paint80_linear" x1="866.158" y1="293.088" x2="846.603" y2="334.34" gradientUnits="userSpaceOnUse">
<stop stop-color="#949494"/>
<stop offset="1"/>
</linearGradient>
<linearGradient id="paint81_linear" x1="876.349" y1="304.771" x2="841.682" y2="331.479" gradientUnits="userSpaceOnUse">
<stop stop-color="#CDCDCD"/>
<stop offset="1" stop-color="#9F9999"/>
</linearGradient>
<linearGradient id="paint82_linear" x1="865.856" y1="315.045" x2="848.158" y2="354.191" gradientUnits="userSpaceOnUse">
<stop stop-color="#949494"/>
<stop offset="1"/>
</linearGradient>
<linearGradient id="paint83_linear" x1="876.875" y1="220.443" x2="840.764" y2="249.389" gradientUnits="userSpaceOnUse">
<stop stop-color="#CDCDCD"/>
<stop offset="1" stop-color="#9F9999"/>
</linearGradient>
<linearGradient id="paint84_linear" x1="866.43" y1="232.07" x2="849.558" y2="274.849" gradientUnits="userSpaceOnUse">
<stop stop-color="#949494"/>
<stop offset="1"/>
</linearGradient>
<linearGradient id="paint85_linear" x1="713.866" y1="192.621" x2="747.094" y2="206.794" gradientUnits="userSpaceOnUse">
<stop stop-color="#3A3A3A"/>
<stop offset="0.559003" stop-color="#818181"/>
<stop offset="0.708333" stop-color="#CDCDCD"/>
<stop offset="1" stop-color="#818181"/>
</linearGradient>
<linearGradient id="paint86_linear" x1="721.939" y1="189.242" x2="730.446" y2="189.525" gradientUnits="userSpaceOnUse">
<stop stop-color="#707070"/>
<stop offset="1" stop-color="#CDCDCD"/>
</linearGradient>
<linearGradient id="paint87_linear" x1="714.416" y1="189.552" x2="725.759" y2="189.929" gradientUnits="userSpaceOnUse">
<stop stop-color="#747474"/>
<stop offset="1" stop-color="#CDCDCD"/>
</linearGradient>
<linearGradient id="paint88_linear" x1="790.771" y1="61.8444" x2="691.334" y2="206.492" gradientUnits="userSpaceOnUse">
<stop stop-color="#C4C4C4"/>
<stop offset="1"/>
</linearGradient>
<linearGradient id="paint89_linear" x1="788.719" y1="117.273" x2="710.759" y2="122.686" gradientUnits="userSpaceOnUse">
<stop stop-color="#373737"/>
<stop offset="1" stop-color="#CDCDCD"/>
</linearGradient>
<linearGradient id="paint90_linear" x1="713.704" y1="192.221" x2="746.001" y2="206.625" gradientUnits="userSpaceOnUse">
<stop stop-color="#9C9C9C"/>
<stop offset="0.559003" stop-color="#EDEBEB"/>
<stop offset="0.708333" stop-color="#E1E1E1"/>
<stop offset="1" stop-color="#CDCDCD"/>
</linearGradient>
<linearGradient id="paint91_linear" x1="800.556" y1="130.551" x2="800.556" y2="187.095" gradientUnits="userSpaceOnUse">
<stop stop-color="#595959"/>
<stop offset="1" stop-color="#6C2929"/>
</linearGradient>
<linearGradient id="paint92_linear" x1="811.15" y1="99.5011" x2="821.129" y2="196.865" gradientUnits="userSpaceOnUse">
<stop stop-color="#595959"/>
<stop offset="0.630208" stop-color="#312323"/>
<stop offset="1" stop-color="#6B2C2C"/>
</linearGradient>
<linearGradient id="paint93_linear" x1="811.15" y1="130.551" x2="813.806" y2="140.988" gradientUnits="userSpaceOnUse">
<stop/>
<stop offset="1" stop-color="#818181"/>
</linearGradient>
<linearGradient id="paint94_linear" x1="786.804" y1="190.865" x2="812.432" y2="217.224" gradientUnits="userSpaceOnUse">
<stop/>
<stop offset="1" stop-color="#818181"/>
</linearGradient>
<linearGradient id="paint95_linear" x1="788.155" y1="192.067" x2="806.714" y2="214.57" gradientUnits="userSpaceOnUse">
<stop stop-color="#211C1C"/>
<stop offset="1" stop-color="#AB9696"/>
</linearGradient>
<linearGradient id="paint96_linear" x1="14.9466" y1="-7.50079" x2="16.2516" y2="103.516" gradientUnits="userSpaceOnUse">
<stop stop-color="#C4C4C4"/>
<stop offset="1" stop-color="#656464"/>
</linearGradient>
<linearGradient id="paint97_linear" x1="-6.61098" y1="19.7521" x2="34.4172" y2="30.4865" gradientUnits="userSpaceOnUse">
<stop offset="0.0560623" stop-color="#4B4B4B"/>
<stop offset="1" stop-color="#818181"/>
</linearGradient>
<linearGradient id="paint98_linear" x1="-1.43717" y1="17.5019" x2="7.47329" y2="17.5019" gradientUnits="userSpaceOnUse">
<stop stop-color="#3E3C3C"/>
<stop offset="1" stop-color="#9F9999"/>
</linearGradient>
<linearGradient id="paint99_linear" x1="726.985" y1="448.138" x2="723.477" y2="421.918" gradientUnits="userSpaceOnUse">
<stop/>
<stop offset="1" stop-color="#818181"/>
</linearGradient>
<linearGradient id="paint100_linear" x1="778.339" y1="345.942" x2="770.092" y2="414.375" gradientUnits="userSpaceOnUse">
<stop/>
<stop offset="1" stop-color="#9F9999"/>
</linearGradient>
<linearGradient id="paint101_linear" x1="795.547" y1="442.029" x2="731.217" y2="425.063" gradientUnits="userSpaceOnUse">
<stop/>
<stop offset="1" stop-color="#9F9999"/>
</linearGradient>
<linearGradient id="paint102_linear" x1="731.287" y1="440.385" x2="728.612" y2="411.178" gradientUnits="userSpaceOnUse">
<stop/>
<stop offset="1" stop-color="#9F9999"/>
</linearGradient>
<linearGradient id="paint103_linear" x1="753.872" y1="435.217" x2="753.872" y2="444.849" gradientUnits="userSpaceOnUse">
<stop/>
<stop offset="1" stop-color="#818181"/>
</linearGradient>
<linearGradient id="paint104_linear" x1="751.99" y1="439.445" x2="750.328" y2="447.766" gradientUnits="userSpaceOnUse">
<stop/>
<stop offset="1" stop-color="#CDCDCD"/>
</linearGradient>
<linearGradient id="paint105_linear" x1="760.325" y1="423.235" x2="789.231" y2="342.722" gradientUnits="userSpaceOnUse">
<stop stop-color="#C4C4C4"/>
<stop offset="0.0001" stop-color="#DEDCDC"/>
<stop offset="1" stop-color="white"/>
</linearGradient>
<linearGradient id="paint106_linear" x1="784.523" y1="402.326" x2="756.738" y2="435.45" gradientUnits="userSpaceOnUse">
<stop stop-color="#747474"/>
<stop offset="1" stop-color="#CDCDCD"/>
</linearGradient>
<linearGradient id="paint107_linear" x1="772.827" y1="415.482" x2="772.827" y2="421.355" gradientUnits="userSpaceOnUse">
<stop stop-color="#60DEDE"/>
<stop offset="1" stop-color="#3BFDFD"/>
</linearGradient>
<linearGradient id="paint108_linear" x1="793.261" y1="386.82" x2="793.261" y2="413.837" gradientUnits="userSpaceOnUse">
<stop stop-color="#C4C4C4"/>
<stop offset="1" stop-color="#9F9999"/>
</linearGradient>
<linearGradient id="paint109_linear" x1="796.225" y1="316.435" x2="809.206" y2="348.88" gradientUnits="userSpaceOnUse">
<stop stop-color="#C4C4C4"/>
<stop offset="1"/>
</linearGradient>
<linearGradient id="paint110_linear" x1="759.613" y1="265.234" x2="812.198" y2="308.081" gradientUnits="userSpaceOnUse">
<stop stop-color="#818181"/>
<stop offset="1" stop-color="#9F9999"/>
</linearGradient>
<linearGradient id="paint111_linear" x1="782.647" y1="301.806" x2="830.743" y2="331.358" gradientUnits="userSpaceOnUse">
<stop stop-color="#707070"/>
<stop offset="1" stop-color="#A5A5A5"/>
</linearGradient>
<linearGradient id="paint112_linear" x1="763.008" y1="258.424" x2="808.3" y2="306.585" gradientUnits="userSpaceOnUse">
<stop stop-color="#0064AB"/>
<stop offset="1" stop-color="#2790DB"/>
</linearGradient>
<linearGradient id="paint113_linear" x1="797.722" y1="262.043" x2="727.013" y2="287.804" gradientUnits="userSpaceOnUse">
<stop stop-color="#0064AB"/>
<stop offset="1" stop-color="white"/>
</linearGradient>
<linearGradient id="paint114_linear" x1="824.835" y1="334.595" x2="765.217" y2="310.067" gradientUnits="userSpaceOnUse">
<stop stop-color="#CECBCB"/>
<stop offset="1" stop-color="#818181"/>
<stop offset="1" stop-color="#EBEBEB"/>
</linearGradient>
<linearGradient id="paint115_linear" x1="815.864" y1="323.245" x2="795.012" y2="323.245" gradientUnits="userSpaceOnUse">
<stop stop-color="#C4C4C4"/>
<stop offset="1" stop-color="#9D9D9D"/>
</linearGradient>
<linearGradient id="paint116_linear" x1="537.519" y1="372.161" x2="568.704" y2="463.867" gradientUnits="userSpaceOnUse">
<stop stop-color="#28CF93"/>
<stop offset="1" stop-color="#106144"/>
</linearGradient>
<linearGradient id="paint117_linear" x1="498.144" y1="352.716" x2="525.636" y2="470.261" gradientUnits="userSpaceOnUse">
<stop stop-color="#22AE7C"/>
<stop offset="1" stop-color="#0A4630"/>
</linearGradient>
<linearGradient id="paint118_linear" x1="456.709" y1="121.415" x2="566.644" y2="272.339" gradientUnits="userSpaceOnUse">
<stop stop-color="#1D8787"/>
<stop offset="1" stop-color="#22C0C0"/>
</linearGradient>
<linearGradient id="paint119_linear" x1="484.224" y1="135.519" x2="484.224" y2="209.263" gradientUnits="userSpaceOnUse">
<stop stop-color="#21A0A0"/>
<stop offset="1" stop-color="#1EC8C8"/>
</linearGradient>
<linearGradient id="paint120_linear" x1="217.465" y1="372.161" x2="185.129" y2="462.955" gradientUnits="userSpaceOnUse">
<stop stop-color="#6C1994"/>
<stop offset="1" stop-color="#2C093E"/>
</linearGradient>
<linearGradient id="paint121_linear" x1="255.06" y1="352.716" x2="226.411" y2="469.673" gradientUnits="userSpaceOnUse">
<stop stop-color="#4D0F6B"/>
<stop offset="1" stop-color="#250A46"/>
</linearGradient>
<linearGradient id="paint122_linear" x1="294.623" y1="121.415" x2="183.226" y2="267.434" gradientUnits="userSpaceOnUse">
<stop stop-color="#1B1E68"/>
<stop offset="1" stop-color="#227EC0"/>
</linearGradient>
<linearGradient id="paint123_linear" x1="243.329" y1="131.116" x2="239.941" y2="172.622" gradientUnits="userSpaceOnUse">
<stop stop-color="white"/>
<stop offset="1" stop-color="#CDCDCD"/>
</linearGradient>
<linearGradient id="paint124_linear" x1="247.903" y1="144.691" x2="247.903" y2="173.675" gradientUnits="userSpaceOnUse">
<stop stop-color="#BF0D0D"/>
<stop offset="1" stop-color="#830707"/>
</linearGradient>
<linearGradient id="paint125_linear" x1="268.351" y1="135.519" x2="268.351" y2="209.263" gradientUnits="userSpaceOnUse">
<stop stop-color="#1F5399"/>
<stop offset="1" stop-color="#1F5FA4"/>
</linearGradient>
</defs>
</svg>
