<svg width="2561" height="1094" viewBox="0 0 2561 1094" fill="none" xmlns="http://www.w3.org/2000/svg">
<g id="main">
<path id="retangulo-4" d="M1388.26 401.549C2057.66 289.387 2560 97.3032 2560 97.3032V181.983C2560 181.983 1898.37 423.602 1388.26 546.933C878.146 670.264 1.5 749.091 1.5 749.091V507.563C1.5 507.563 718.851 513.71 1388.26 401.549Z" fill="url(#paint0_linear)"/>
<path id="retangulo-3" d="M1427.33 421.916C2089.98 307.971 2561 119.876 2561 119.876V197.27C2561 197.27 1932.29 444.32 1427.33 569.613C922.364 694.906 1 771.1 1 771.1V532.957C1 532.957 764.677 535.862 1427.33 421.916Z" fill="url(#paint1_linear)"/>
<path id="retangulo-2" d="M1243.26 209.062C2057.26 11.9593 2561 187.035 2561 187.035V615.616C2561 615.616 2382.69 636.513 1588.4 472.323C794.108 308.132 0.5 472.575 0.5 472.575V161.071C0.5 161.071 429.255 406.165 1243.26 209.062Z" fill="url(#paint2_linear)"/>
<path id="retangulo-1" opacity="0.5" d="M1215.13 199.775C2046.51 -32.3973 2561 173.829 2561 173.829V678.667C2561 678.667 2378.88 703.282 1567.63 509.878C756.385 316.473 1 511.513 1 511.513V132.291C1 132.291 383.743 431.948 1215.13 199.775Z" fill="url(#paint3_linear)"/>
<g id="equipamentos">
<g id="Servidor">
<path id="Rectangle 123" d="M1540.18 324.119L2176.92 60.455L2197.32 1034.1L1529.69 934.238L1540.18 324.119Z" fill="url(#paint4_linear)"/>
<g id="Group 14">
<path id="Rectangle 124" d="M2048.26 131.271L2163.85 87.1908L2183.36 995.494L2058.28 975.149L2048.26 131.271Z" fill="url(#paint5_linear)"/>
<path id="Rectangle 125" d="M2056.79 147.913L2164.67 104.677L2182.86 995.495L2066.11 975.546L2056.79 147.913Z" fill="url(#paint6_linear)"/>
</g>
<g id="Group 13">
<path id="Rectangle 126" d="M1911.07 189.014L2012.1 148.727L2029.13 978.807L1919.8 960.218L1911.07 189.014Z" fill="#404040"/>
<path id="Rectangle 127" d="M1919.1 204.703L2012.57 168.052L2029.13 978.807L1927.02 960.634L1919.1 204.703Z" fill="url(#paint7_linear)"/>
</g>
<g id="Group 15">
<path id="Rectangle 126_2" d="M1800.51 233.222L1881.92 201.078L1885.96 958.448L1798.55 948.255L1800.51 233.222Z" fill="#404040"/>
<path id="Rectangle 127_2" d="M1806.77 244.27L1881.91 216.722L1886.46 959.369L1806.32 949.182L1806.77 244.27Z" fill="url(#paint8_linear)"/>
</g>
<g id="Group 16">
<path id="Rectangle 126_3" d="M1703.02 272.715L1772.87 245.163L1770.92 945.472L1698.07 937.132L1703.02 272.715Z" fill="#404040"/>
<path id="Rectangle 127_3" d="M1709.04 283.763L1772.86 259.887L1770.92 945.473L1705.11 938.059L1709.04 283.763Z" fill="url(#paint9_linear)"/>
</g>
<g id="Group 17">
<path id="Rectangle 126_4" d="M1616.58 307.616L1678.9 283.739L1673.46 933.432L1609.66 926.019L1616.58 307.616Z" fill="#404040"/>
<path id="Rectangle 127_4" d="M1623.11 316.994L1678.89 297.542L1673.46 933.431L1616.19 926.944L1623.11 316.994Z" fill="url(#paint10_linear)"/>
</g>
<g id="Group 18">
<path id="Rectangle 126_5" d="M1543.71 337.006L1596.98 315.882L1590.06 921.402L1534.3 914.916L1543.71 337.006Z" fill="#404040"/>
<path id="Rectangle 127_5" d="M1548.23 343.622L1596.97 327.846L1590.06 921.402L1539.83 915.841L1548.23 343.622Z" fill="url(#paint11_linear)"/>
</g>
<path id="Rectangle 128" d="M2176.93 60.5137L2279.84 177.467L2279.34 973.485L2197.41 1034.16L2176.93 60.5137Z" fill="url(#paint12_linear)"/>
<g id="Group 25">
<g id="Group 19">
<path id="Rectangle 129" d="M2064.78 345.956C2064.74 343.647 2066.28 341.609 2068.51 341.023L2156.58 317.935C2159.7 317.117 2162.77 319.426 2162.85 322.652L2164.55 393.136C2164.61 395.555 2162.93 397.669 2160.56 398.154L2072.05 416.278C2068.99 416.904 2066.11 414.6 2066.05 411.475L2064.78 345.956Z" fill="url(#paint13_linear)"/>
<path id="Rectangle 130" d="M2068.33 349.975C2068.28 347.634 2069.86 345.567 2072.14 345.002L2151.81 325.196C2154.91 324.426 2157.92 326.712 2158.01 329.901L2159.59 388.656C2159.66 391.103 2157.95 393.242 2155.54 393.71L2075.47 409.319C2072.43 409.912 2069.59 407.628 2069.52 404.533L2068.33 349.975Z" fill="url(#paint14_linear)"/>
<ellipse id="Ellipse 1" rx="2.00963" ry="3.681" transform="matrix(1 0.000795507 -0.000638191 1 2147.61 336.566)" fill="#09C549"/>
<ellipse id="Ellipse 2" rx="2.00963" ry="3.681" transform="matrix(1 0.000795507 -0.000638191 1 2148.6 354.971)" fill="#FD601C"/>
<ellipse id="Ellipse 3" rx="2.00963" ry="3.681" transform="matrix(1 0.000795507 -0.000638191 1 2149.59 375.218)" fill="#D50C0C"/>
</g>
<g id="Group 21">
<path id="Rectangle 129_2" d="M2067.49 515.929C2067.49 513.576 2069.12 511.642 2071.41 511.282L2161.03 497.185C2164.1 496.702 2167.02 499.2 2167.07 502.362L2168.33 571.845C2168.38 574.392 2166.52 576.451 2164.01 576.632L2073.09 583.211C2070.1 583.428 2067.44 580.924 2067.45 577.893L2067.49 515.929Z" fill="url(#paint15_linear)"/>
<path id="Rectangle 130_2" d="M2070.91 520.231C2070.91 517.856 2072.57 515.908 2074.89 515.566L2156.09 503.557C2159.14 503.106 2162.01 505.579 2162.08 508.712L2163.31 567.245C2163.36 569.79 2161.51 571.859 2159.01 572.057L2076.53 578.573C2073.54 578.809 2070.87 576.31 2070.87 573.271L2070.91 520.231Z" fill="url(#paint16_linear)"/>
<ellipse id="Ellipse 1_2" rx="2.00958" ry="3.67799" transform="matrix(0.996047 0.088983 -0.0270175 0.999631 2151.88 520.242)" fill="#09C549"/>
<ellipse id="Ellipse 2_2" rx="2.00958" ry="3.67799" transform="matrix(0.996047 0.088983 -0.0270175 0.999631 2152.38 538.715)" fill="#FD601C"/>
<ellipse id="Ellipse 3_2" rx="2.00958" ry="3.67799" transform="matrix(0.996047 0.088983 -0.0270175 0.999631 2152.84 559.025)" fill="#D50C0C"/>
</g>
<g id="Group 22">
<path id="Rectangle 129_3" d="M2068.52 597.24C2068.52 594.752 2070.34 592.756 2072.79 592.553L2162.64 585.099C2165.6 584.853 2168.27 587.301 2168.33 590.318L2169.57 659.145C2169.62 661.759 2167.66 663.847 2165.07 663.941L2073.93 667.247C2071 667.354 2068.46 664.88 2068.46 661.919L2068.52 597.24Z" fill="url(#paint17_linear)"/>
<path id="Rectangle 130_3" d="M2072 601.91C2072 599.392 2073.86 597.379 2076.35 597.206L2158.73 591.46C2161.67 591.255 2164.29 593.674 2164.35 596.653L2165.57 653.654C2165.63 656.255 2163.7 658.35 2161.13 658.476L2077.47 662.574C2074.52 662.719 2071.95 660.243 2071.96 657.263L2072 601.91Z" fill="url(#paint18_linear)"/>
<ellipse id="Ellipse 1_3" rx="2.00825" ry="3.67799" transform="matrix(0.996047 0.088983 -0.0270175 0.999631 2153.85 605.972)" fill="#09C549"/>
<ellipse id="Ellipse 2_3" rx="2.00825" ry="3.67799" transform="matrix(0.996047 0.088983 -0.0270175 0.999631 2154.36 624.445)" fill="#FD601C"/>
<ellipse id="Ellipse 3_3" rx="2.00825" ry="3.67799" transform="matrix(0.996047 0.088983 -0.0270175 0.999631 2154.81 644.756)" fill="#D50C0C"/>
</g>
<g id="Group 23">
<path id="Rectangle 129_4" d="M2069.49 686.09C2069.49 683.537 2071.4 681.513 2073.93 681.39L2164.56 677C2167.47 676.859 2170.03 679.28 2170.08 682.228L2171.39 752.34C2171.44 755.027 2169.38 757.146 2166.71 757.143L2074.73 757.07C2071.87 757.068 2069.45 754.627 2069.45 751.74L2069.49 686.09Z" fill="url(#paint19_linear)"/>
<path id="Rectangle 130_4" d="M2072.95 691.669C2072.95 689.093 2074.9 687.054 2077.45 686.955L2160.61 683.732C2163.51 683.619 2166.04 686.039 2166.08 688.972L2166.9 747.748C2166.93 750.43 2164.87 752.541 2162.2 752.539L2078.19 752.472C2075.32 752.469 2072.91 750.037 2072.91 747.155L2072.95 691.669Z" fill="url(#paint20_linear)"/>
<ellipse id="Ellipse 1_4" rx="2.02406" ry="3.67799" transform="matrix(0.996047 0.088983 -0.0270175 0.999631 2155.5 698.067)" fill="#09C549"/>
<ellipse id="Ellipse 2_4" rx="2.02406" ry="3.67799" transform="matrix(0.996047 0.088983 -0.0270175 0.999631 2156.01 716.54)" fill="#FD601C"/>
<ellipse id="Ellipse 3_4" rx="2.02406" ry="3.67799" transform="matrix(0.996047 0.088983 -0.0270175 0.999631 2156.47 736.851)" fill="#D50C0C"/>
</g>
<g id="Group 24">
<path id="Rectangle 129_5" d="M2070.58 772.959C2070.52 770.256 2072.6 768.126 2075.28 768.144L2165.69 768.741C2168.54 768.76 2170.94 771.189 2170.95 774.062L2171.03 844.146C2171.04 846.875 2168.87 848.969 2166.15 848.857L2077.08 845.172C2074.33 845.058 2072.05 842.723 2071.99 839.955L2070.58 772.959Z" fill="url(#paint21_linear)"/>
<path id="Rectangle 130_5" d="M2074.08 778.516C2074.03 775.801 2076.14 773.671 2078.84 773.713L2161.78 775.01C2164.61 775.054 2166.98 777.469 2166.98 780.319L2167.05 838.123C2167.06 840.842 2164.9 842.938 2162.2 842.845L2080.13 840C2077.36 839.904 2075.07 837.557 2075.02 834.773L2074.08 778.516Z" fill="url(#paint22_linear)"/>
<ellipse id="Ellipse 1_5" rx="2.02406" ry="3.43606" transform="matrix(0.996047 0.088983 -0.0270175 0.999631 2156.5 788.619)" fill="#09C549"/>
<ellipse id="Ellipse 2_5" rx="2.02406" ry="3.43606" transform="matrix(0.996047 0.088983 -0.0270175 0.999631 2157.05 805.883)" fill="#FD601C"/>
<ellipse id="Ellipse 3_5" rx="2.02406" ry="3.43606" transform="matrix(0.996047 0.088983 -0.0270175 0.999631 2157.54 824.864)" fill="#D50C0C"/>
</g>
<g id="Group 20">
<path id="Rectangle 129_6" d="M2066.18 432.183C2066.15 429.858 2067.72 427.842 2069.97 427.316L2160.04 406.343C2163.15 405.618 2166.18 407.985 2166.24 411.195L2167.54 480.757C2167.58 483.191 2165.87 485.278 2163.48 485.701L2073.01 501.75C2069.95 502.292 2067.11 499.932 2067.06 496.82L2066.18 432.183Z" fill="url(#paint23_linear)"/>
<path id="Rectangle 130_6" d="M2069.77 436.228C2069.73 433.871 2071.34 431.828 2073.64 431.324L2155.13 413.416C2158.22 412.736 2161.19 415.081 2161.26 418.255L2162.52 476.226C2162.57 478.686 2160.82 480.797 2158.4 481.204L2076.53 494.947C2073.5 495.456 2070.7 493.117 2070.65 490.034L2069.77 436.228Z" fill="url(#paint24_linear)"/>
<ellipse id="Ellipse 1_6" rx="2.0481" ry="3.63633" transform="matrix(0.999768 0.0217042 -0.00687148 0.999975 2150.62 424.593)" fill="#09C549"/>
<ellipse id="Ellipse 2_6" rx="2.04809" ry="3.63633" transform="matrix(0.999768 0.0217042 -0.00687148 0.999975 2151.52 442.796)" fill="#FD601C"/>
<ellipse id="Ellipse 3_6" rx="2.0481" ry="3.63633" transform="matrix(0.999768 0.0217042 -0.00687148 0.999975 2152.41 462.818)" fill="#D50C0C"/>
</g>
</g>
<g id="Group 26">
<g id="Group 19_2">
<path id="Rectangle 129_7" d="M1925.09 382.516C1925.05 380.225 1926.56 378.199 1928.78 377.599L2006.35 356.536C2009.49 355.686 2012.59 358 2012.66 361.246L2014.16 425.599C2014.22 428.004 2012.56 430.107 2010.2 430.606L1932.24 447.14C1929.17 447.792 1926.26 445.482 1926.2 442.341L1925.09 382.516Z" fill="url(#paint25_linear)"/>
<path id="Rectangle 130_7" d="M1928.26 386.238C1928.21 383.914 1929.77 381.859 1932.02 381.279L2002.11 363.235C2005.22 362.435 2008.26 364.727 2008.34 367.935L2009.74 421.45C2009.8 423.882 2008.1 426.012 2005.72 426.494L1935.28 440.713C1932.23 441.329 1929.37 439.04 1929.3 435.93L1928.26 386.238Z" fill="url(#paint26_linear)"/>
<ellipse id="Ellipse 1_7" rx="1.79452" ry="3.40368" transform="matrix(1 0.000795507 -0.000638191 1 1999.04 373.573)" fill="#09C549"/>
<ellipse id="Ellipse 2_7" rx="1.79452" ry="3.40368" transform="matrix(1 0.000795507 -0.000638191 1 1999.93 390.592)" fill="#FD601C"/>
<ellipse id="Ellipse 3_7" rx="1.79452" ry="3.40368" transform="matrix(1 0.000795507 -0.000638191 1 2000.81 409.313)" fill="#D50C0C"/>
</g>
<g id="Group 21_2">
<path id="Rectangle 129_8" d="M1927.5 539.691C1927.5 537.354 1929.1 535.436 1931.37 535.067L2010.34 522.201C2013.43 521.698 2016.37 524.216 2016.43 527.399L2017.54 590.82C2017.58 593.353 2015.74 595.397 2013.25 595.584L1933.13 601.59C1930.13 601.815 1927.45 599.296 1927.46 596.251L1927.5 539.691Z" fill="url(#paint27_linear)"/>
<path id="Rectangle 130_8" d="M1930.55 543.674C1930.55 541.315 1932.19 539.382 1934.48 539.03L2005.94 528.085C2009 527.616 2011.9 530.109 2011.97 533.261L2013.05 586.568C2013.1 589.099 2011.27 591.153 2008.78 591.357L1936.21 597.296C1933.2 597.542 1930.51 595.027 1930.51 591.975L1930.55 543.674Z" fill="url(#paint28_linear)"/>
<ellipse id="Ellipse 1_8" rx="1.79498" ry="3.40082" transform="matrix(0.995765 0.092088 -0.0261138 0.999655 2002.85 543.411)" fill="#09C549"/>
<ellipse id="Ellipse 2_8" rx="1.79498" ry="3.40082" transform="matrix(0.995765 0.092088 -0.0261138 0.999655 2003.3 560.492)" fill="#FD601C"/>
<ellipse id="Ellipse 3_8" rx="1.79498" ry="3.40082" transform="matrix(0.995765 0.092088 -0.0261138 0.999655 2003.71 579.272)" fill="#D50C0C"/>
</g>
<g id="Group 22_2">
<path id="Rectangle 129_9" d="M1928.41 614.907C1928.41 612.431 1930.21 610.448 1932.65 610.239L2011.82 603.435C2014.8 603.179 2017.49 605.646 2017.55 608.678L2018.64 671.526C2018.69 674.129 2016.74 676.203 2014.17 676.3L1933.85 679.319C1930.91 679.43 1928.36 676.941 1928.36 673.97L1928.41 614.907Z" fill="url(#paint29_linear)"/>
<path id="Rectangle 130_9" d="M1931.52 619.232C1931.53 616.726 1933.37 614.724 1935.84 614.546L2008.35 609.307C2011.3 609.094 2013.94 611.531 2014 614.524L2015.07 666.452C2015.12 669.042 2013.21 671.123 2010.65 671.253L1937.02 674.99C1934.07 675.14 1931.48 672.649 1931.48 669.658L1931.52 619.232Z" fill="url(#paint30_linear)"/>
<ellipse id="Ellipse 1_9" rx="1.7938" ry="3.40082" transform="matrix(0.995765 0.092088 -0.0261138 0.999655 2004.61 622.683)" fill="#09C549"/>
<ellipse id="Ellipse 2_9" rx="1.7938" ry="3.40082" transform="matrix(0.995765 0.092088 -0.0261138 0.999655 2005.06 639.764)" fill="#FD601C"/>
<ellipse id="Ellipse 3_9" rx="1.7938" ry="3.40082" transform="matrix(0.995765 0.092088 -0.0261138 0.999655 2005.47 658.543)" fill="#D50C0C"/>
</g>
<g id="Group 23_2">
<path id="Rectangle 129_10" d="M1929.28 697.079C1929.28 694.537 1931.18 692.524 1933.69 692.398L2013.56 688.39C2016.48 688.243 2019.06 690.68 2019.11 693.641L2020.26 757.682C2020.31 760.36 2018.26 762.466 2015.61 762.464L1934.54 762.399C1931.67 762.397 1929.24 759.942 1929.24 757.047L1929.28 697.079Z" fill="url(#paint31_linear)"/>
<path id="Rectangle 130_10" d="M1932.37 702.243C1932.37 699.677 1934.3 697.65 1936.84 697.548L2010.04 694.608C2012.95 694.491 2015.49 696.926 2015.53 699.87L2016.25 753.436C2016.29 756.109 2014.23 758.208 2011.58 758.206L1937.63 758.147C1934.76 758.145 1932.33 755.699 1932.33 752.809L1932.37 702.243Z" fill="url(#paint32_linear)"/>
<ellipse id="Ellipse 1_10" rx="1.80792" ry="3.40082" transform="matrix(0.995765 0.092088 -0.0261138 0.999655 2006.08 707.838)" fill="#09C549"/>
<ellipse id="Ellipse 2_10" rx="1.80792" ry="3.40082" transform="matrix(0.995765 0.092088 -0.0261138 0.999655 2006.54 724.919)" fill="#FD601C"/>
<ellipse id="Ellipse 3_10" rx="1.80792" ry="3.40082" transform="matrix(0.995765 0.092088 -0.0261138 0.999655 2006.95 743.7)" fill="#D50C0C"/>
</g>
<g id="Group 24_2">
<path id="Rectangle 129_11" d="M1930.25 777.434C1930.2 774.74 1932.27 772.623 1934.94 772.641L2014.6 773.184C2017.46 773.203 2019.87 775.647 2019.87 778.527L2019.95 842.555C2019.95 845.278 2017.79 847.362 2015.08 847.246L1936.6 843.886C1933.84 843.768 1931.56 841.42 1931.5 838.645L1930.25 777.434Z" fill="url(#paint33_linear)"/>
<path id="Rectangle 130_11" d="M1933.38 782.579C1933.34 779.871 1935.44 777.753 1938.12 777.797L2011.12 778.976C2013.96 779.022 2016.33 781.449 2016.33 784.306L2016.4 836.988C2016.4 839.702 2014.25 841.788 2011.55 841.691L1939.33 839.101C1936.55 839.002 1934.25 836.641 1934.21 833.85L1933.38 782.579Z" fill="url(#paint34_linear)"/>
<ellipse id="Ellipse 1_11" rx="1.80792" ry="3.17711" transform="matrix(0.995765 0.092088 -0.0261138 0.999655 2006.97 791.569)" fill="#09C549"/>
<ellipse id="Ellipse 2_11" rx="1.80792" ry="3.17711" transform="matrix(0.995765 0.092088 -0.0261138 0.999655 2007.46 807.532)" fill="#FD601C"/>
<ellipse id="Ellipse 3_11" rx="1.80792" ry="3.17711" transform="matrix(0.995765 0.092088 -0.0261138 0.999655 2007.9 825.083)" fill="#D50C0C"/>
</g>
<g id="Group 20_2">
<path id="Rectangle 129_12" d="M1926.33 462.249C1926.3 459.941 1927.85 457.937 1930.08 457.399L2009.44 438.26C2012.57 437.506 2015.63 439.882 2015.68 443.111L2016.83 506.615C2016.87 509.034 2015.18 511.11 2012.81 511.546L1933.09 526.191C1930.02 526.755 1927.15 524.387 1927.11 521.259L1926.33 462.249Z" fill="url(#paint35_linear)"/>
<path id="Rectangle 130_12" d="M1929.54 465.996C1929.5 463.656 1931.09 461.624 1933.36 461.107L2005.08 444.788C2008.18 444.082 2011.18 446.434 2011.24 449.627L2012.34 502.419C2012.4 504.866 2010.67 506.967 2008.27 507.385L1936.22 519.908C1933.18 520.438 1930.35 518.092 1930.31 514.993L1929.54 465.996Z" fill="url(#paint36_linear)"/>
<ellipse id="Ellipse 1_12" rx="1.8289" ry="3.36237" transform="matrix(0.999751 0.0224461 -0.00665779 0.999977 2001.73 454.967)" fill="#09C549"/>
<ellipse id="Ellipse 2_12" rx="1.8289" ry="3.36237" transform="matrix(0.999751 0.0224461 -0.00665779 0.999977 2002.54 471.799)" fill="#FD601C"/>
<ellipse id="Ellipse 3_12" rx="1.8289" ry="3.36237" transform="matrix(0.999751 0.0224461 -0.00665779 0.999977 2003.33 490.312)" fill="#D50C0C"/>
</g>
</g>
<g id="Group 27">
<g id="Group 19_3">
<path id="Rectangle 129_13" d="M1810.26 439.376C1810.26 437.122 1811.76 435.195 1813.93 434.669L1872.8 420.385C1875.96 419.617 1879.1 422.098 1879.12 425.391L1879.49 478.088C1879.5 480.463 1877.85 482.464 1875.54 482.879L1816.43 493.458C1813.32 494.013 1810.4 491.547 1810.39 488.369L1810.26 439.376Z" fill="url(#paint37_linear)"/>
<path id="Rectangle 130_13" d="M1812.7 442.657C1812.69 440.367 1814.23 438.411 1816.45 437.907L1869.41 425.854C1872.56 425.138 1875.63 427.594 1875.66 430.846L1876.07 474.402C1876.09 476.806 1874.41 478.833 1872.05 479.229L1818.87 488.166C1815.79 488.684 1812.91 486.242 1812.9 483.096L1812.7 442.657Z" fill="url(#paint38_linear)"/>
<ellipse id="Ellipse 1_13" rx="1.40721" ry="2.87463" transform="matrix(0.998754 0.0498827 -0.0152855 0.999883 1868.3 434.143)" fill="#09C549"/>
<ellipse id="Ellipse 2_13" rx="1.40721" ry="2.87463" transform="matrix(0.998754 0.0498827 -0.0152855 0.999883 1868.78 448.551)" fill="#FD601C"/>
<ellipse id="Ellipse 3_13" rx="1.40721" ry="2.87463" transform="matrix(0.998754 0.0498827 -0.0152855 0.999883 1869.24 464.394)" fill="#D50C0C"/>
</g>
<g id="Group 21_3">
<path id="Rectangle 129_14" d="M1810.19 572.218C1810.22 569.919 1811.81 568.109 1814.03 567.829L1873.91 560.268C1877.02 559.876 1880 562.585 1880.01 565.814L1880.08 617.695C1880.09 620.202 1878.26 622.126 1875.8 622.204L1815.13 624.127C1812.11 624.223 1809.43 621.535 1809.48 618.462L1810.19 572.218Z" fill="url(#paint39_linear)"/>
<path id="Rectangle 130_14" d="M1812.53 575.709C1812.57 573.387 1814.18 571.562 1816.43 571.302L1870.41 565.052C1873.5 564.694 1876.43 567.374 1876.44 570.572L1876.62 613.935C1876.63 616.438 1874.81 618.373 1872.36 618.468L1817.6 620.61C1814.58 620.728 1811.88 618.045 1811.93 614.963L1812.53 575.709Z" fill="url(#paint40_linear)"/>
<ellipse id="Ellipse 1_14" rx="1.40851" ry="2.87209" transform="matrix(0.992419 0.147892 -0.0389068 0.998424 1869.17 577.717)" fill="#09C549"/>
<ellipse id="Ellipse 2_14" rx="1.40851" ry="2.87209" transform="matrix(0.992419 0.147892 -0.0389068 0.998424 1869.31 592.158)" fill="#FD601C"/>
<ellipse id="Ellipse 3_14" rx="1.40851" ry="2.87209" transform="matrix(0.992419 0.147892 -0.0389068 0.998424 1869.4 608.035)" fill="#D50C0C"/>
</g>
<g id="Group 22_3">
<path id="Rectangle 129_15" d="M1809.97 635.838C1810.01 633.391 1811.79 631.522 1814.19 631.417L1874.16 628.808C1877.16 628.677 1879.87 631.318 1879.87 634.386L1879.95 685.858C1879.95 688.439 1878.02 690.39 1875.47 690.368L1814.68 689.849C1811.73 689.823 1809.18 687.175 1809.22 684.181L1809.97 635.838Z" fill="url(#paint41_linear)"/>
<path id="Rectangle 130_15" d="M1812.36 639.624C1812.39 637.145 1814.23 635.259 1816.66 635.188L1871.4 633.613C1874.37 633.528 1877.01 636.134 1877.02 639.161L1877.21 681.444C1877.22 684.011 1875.32 685.969 1872.79 685.983L1817.23 686.296C1814.26 686.313 1811.67 683.661 1811.72 680.646L1812.36 639.624Z" fill="url(#paint42_linear)"/>
<ellipse id="Ellipse 1_15" rx="1.40758" ry="2.87209" transform="matrix(0.992419 0.147892 -0.0389068 0.998424 1869.57 644.729)" fill="#09C549"/>
<ellipse id="Ellipse 2_15" rx="1.40758" ry="2.87209" transform="matrix(0.992419 0.147892 -0.0389068 0.998424 1869.71 659.17)" fill="#FD601C"/>
<ellipse id="Ellipse 3_15" rx="1.40758" ry="2.87209" transform="matrix(0.992419 0.147892 -0.0389068 0.998424 1869.79 675.046)" fill="#D50C0C"/>
</g>
<g id="Group 23_3">
<path id="Rectangle 129_16" d="M1809.63 705.299C1809.67 702.78 1811.56 700.885 1814.04 700.873L1874.52 700.569C1877.46 700.554 1880.04 703.157 1880.04 706.149L1880.15 758.641C1880.15 761.302 1878.1 763.279 1875.47 763.148L1814.14 760.085C1811.25 759.941 1808.84 757.336 1808.88 754.423L1809.63 705.299Z" fill="url(#paint43_linear)"/>
<path id="Rectangle 130_16" d="M1811.99 709.791C1812.02 707.247 1813.95 705.337 1816.46 705.352L1871.7 705.671C1874.63 705.688 1877.17 708.284 1877.16 711.255L1877.06 754.898C1877.05 757.555 1875 759.528 1872.37 759.397L1816.6 756.611C1813.72 756.467 1811.31 753.873 1811.36 750.967L1811.99 709.791Z" fill="url(#paint44_linear)"/>
<ellipse id="Ellipse 1_16" rx="1.41866" ry="2.87209" transform="matrix(0.992419 0.147892 -0.0389068 0.998424 1869.66 716.698)" fill="#09C549"/>
<ellipse id="Ellipse 2_16" rx="1.41866" ry="2.87209" transform="matrix(0.992419 0.147892 -0.0389068 0.998424 1869.8 731.142)" fill="#FD601C"/>
<ellipse id="Ellipse 3_16" rx="1.41866" ry="2.87209" transform="matrix(0.992419 0.147892 -0.0389068 0.998424 1869.89 747.018)" fill="#D50C0C"/>
</g>
<g id="Group 24_3">
<path id="Rectangle 129_17" d="M1809.41 773.261C1809.4 770.582 1811.47 768.595 1814.12 768.744L1874.35 772.143C1877.22 772.305 1879.61 774.897 1879.57 777.794L1878.86 830.264C1878.82 832.976 1876.65 834.932 1873.96 834.676L1814.66 829.024C1811.9 828.76 1809.63 826.269 1809.62 823.477L1809.41 773.261Z" fill="url(#paint45_linear)"/>
<path id="Rectangle 130_17" d="M1811.79 777.736C1811.79 775.042 1813.9 773.053 1816.56 773.231L1871.57 776.89C1874.41 777.079 1876.77 779.651 1876.73 782.523L1876.15 825.43C1876.11 828.133 1873.95 830.093 1871.27 829.857L1816.86 825.08C1814.09 824.836 1811.81 822.333 1811.81 819.526L1811.79 777.736Z" fill="url(#paint46_linear)"/>
<ellipse id="Ellipse 1_17" rx="1.41866" ry="2.68316" transform="matrix(0.992419 0.147892 -0.0389068 0.998424 1869.32 787.441)" fill="#09C549"/>
<ellipse id="Ellipse 2_17" rx="1.41866" ry="2.68316" transform="matrix(0.992419 0.147892 -0.0389068 0.998424 1869.5 800.942)" fill="#FD601C"/>
<ellipse id="Ellipse 3_17" rx="1.41866" ry="2.68316" transform="matrix(0.992419 0.147892 -0.0389068 0.998424 1869.63 815.781)" fill="#D50C0C"/>
</g>
<g id="Group 20_3">
<path id="Rectangle 129_18" d="M1810.24 506.764C1810.25 504.493 1811.78 502.591 1813.97 502.13L1874.21 489.47C1877.37 488.806 1880.46 491.354 1880.47 494.629L1880.57 546.602C1880.58 548.991 1878.9 550.962 1876.56 551.309L1816.1 560.291C1813 560.751 1810.12 558.223 1810.13 555.06L1810.24 506.764Z" fill="url(#paint47_linear)"/>
<path id="Rectangle 130_18" d="M1812.71 510.066C1812.71 507.76 1814.28 505.831 1816.52 505.394L1870.73 494.79C1873.87 494.177 1876.9 496.697 1876.91 499.933L1877.11 542.873C1877.12 545.292 1875.41 547.287 1873.04 547.614L1818.61 555.123C1815.54 555.547 1812.7 553.044 1812.71 549.911L1812.71 510.066Z" fill="url(#paint48_linear)"/>
<ellipse id="Ellipse 1_18" rx="1.43422" ry="2.83974" transform="matrix(0.998126 0.0731839 -0.0208675 0.999589 1869.39 502.983)" fill="#09C549"/>
<ellipse id="Ellipse 2_18" rx="1.43422" ry="2.83974" transform="matrix(0.998126 0.0731839 -0.0208675 0.999589 1869.81 517.228)" fill="#FD601C"/>
<ellipse id="Ellipse 3_18" rx="1.43422" ry="2.83974" transform="matrix(0.998126 0.0731839 -0.0208675 0.999589 1870.2 532.893)" fill="#D50C0C"/>
</g>
</g>
<g id="Group 28">
<g id="Group 19_4">
<path id="Rectangle 129_19" d="M1711.04 475.359C1711.03 473.147 1712.48 471.245 1714.6 470.684L1760.53 458.487C1763.72 457.639 1766.94 460.135 1766.95 463.475L1767.19 508.219C1767.2 510.558 1765.6 512.538 1763.32 512.986L1717.21 522.067C1714.08 522.683 1711.09 520.203 1711.09 516.988L1711.04 475.359Z" fill="url(#paint49_linear)"/>
<path id="Rectangle 130_19" d="M1713.01 478.235C1713.01 475.986 1714.5 474.054 1716.66 473.515L1757.8 463.259C1760.97 462.469 1764.11 464.938 1764.14 468.235L1764.42 504.991C1764.44 507.361 1762.79 509.368 1760.48 509.796L1719.18 517.444C1716.07 518.018 1713.14 515.564 1713.13 512.382L1713.01 478.235Z" fill="url(#paint50_linear)"/>
<ellipse id="Ellipse 1_19" rx="1.14258" ry="2.51724" transform="matrix(0.998754 0.0498827 -0.0152855 0.999883 1758.15 470.204)" fill="#09C549"/>
<ellipse id="Ellipse 2_19" rx="1.14258" ry="2.51724" transform="matrix(0.998754 0.0498827 -0.0152855 0.999883 1758.53 482.819)" fill="#FD601C"/>
<ellipse id="Ellipse 3_19" rx="1.14258" ry="2.51724" transform="matrix(0.998754 0.0498827 -0.0152855 0.999883 1758.89 496.691)" fill="#D50C0C"/>
</g>
<g id="Group 21_4">
<path id="Rectangle 129_20" d="M1710.84 591.692C1710.87 589.433 1712.4 587.655 1714.57 587.352L1761.34 580.799C1764.48 580.359 1767.53 583.119 1767.53 586.395L1767.54 630.417C1767.54 632.891 1765.76 634.785 1763.34 634.878L1715.96 636.685C1712.92 636.801 1710.19 634.072 1710.24 630.968L1710.84 591.692Z" fill="url(#paint51_linear)"/>
<path id="Rectangle 130_20" d="M1712.74 594.75C1712.77 592.466 1714.33 590.672 1716.53 590.389L1758.51 584.982C1761.62 584.58 1764.63 587.309 1764.63 590.552L1764.73 627.136C1764.74 629.608 1762.97 631.511 1760.55 631.623L1717.97 633.587C1714.93 633.727 1712.18 631.004 1712.23 627.891L1712.74 594.75Z" fill="url(#paint52_linear)"/>
<ellipse id="Ellipse 1_20" rx="1.14453" ry="2.51491" transform="matrix(0.99152 0.155505 -0.037184 0.998549 1758.72 595.918)" fill="#09C549"/>
<ellipse id="Ellipse 2_20" rx="1.14453" ry="2.51491" transform="matrix(0.99152 0.155505 -0.037184 0.998549 1758.82 608.563)" fill="#FD601C"/>
<ellipse id="Ellipse 3_20" rx="1.14453" ry="2.51491" transform="matrix(0.99152 0.155505 -0.037184 0.998549 1758.88 622.464)" fill="#D50C0C"/>
</g>
<g id="Group 22_4">
<path id="Rectangle 129_21" d="M1710.6 647.459C1710.64 645.043 1712.38 643.201 1714.74 643.081L1761.57 640.697C1764.6 640.544 1767.35 643.23 1767.35 646.333L1767.36 690.07C1767.36 692.626 1765.47 694.548 1762.96 694.535L1715.48 694.284C1712.51 694.269 1709.92 691.582 1709.96 688.564L1710.6 647.459Z" fill="url(#paint53_linear)"/>
<path id="Rectangle 130_21" d="M1712.53 650.782C1712.57 648.33 1714.36 646.469 1716.76 646.385L1759.35 644.895C1762.34 644.79 1765.03 647.439 1765.04 650.499L1765.15 686.222C1765.15 688.761 1763.29 690.69 1760.8 690.715L1717.57 691.148C1714.58 691.179 1711.95 688.489 1712 685.448L1712.53 650.782Z" fill="url(#paint54_linear)"/>
<ellipse id="Ellipse 1_21" rx="1.14377" ry="2.51491" transform="matrix(0.99152 0.155505 -0.037184 0.998549 1758.98 654.596)" fill="#09C549"/>
<ellipse id="Ellipse 2_21" rx="1.14377" ry="2.51491" transform="matrix(0.99152 0.155505 -0.037184 0.998549 1759.08 667.241)" fill="#FD601C"/>
<ellipse id="Ellipse 3_21" rx="1.14377" ry="2.51491" transform="matrix(0.99152 0.155505 -0.037184 0.998549 1759.13 681.142)" fill="#D50C0C"/>
</g>
<g id="Group 23_4">
<path id="Rectangle 129_22" d="M1710.25 708.312C1710.29 705.819 1712.14 703.949 1714.59 703.926L1761.84 703.484C1764.8 703.456 1767.42 706.101 1767.42 709.122L1767.46 753.764C1767.46 756.405 1765.44 758.355 1762.83 758.225L1714.91 755.833C1712.02 755.688 1709.57 753.05 1709.62 750.119L1710.25 708.312Z" fill="url(#paint55_linear)"/>
<path id="Rectangle 130_22" d="M1712.16 712.25C1712.2 709.729 1714.09 707.844 1716.57 707.85L1759.56 707.949C1762.51 707.955 1765.08 710.59 1765.07 713.588L1764.95 750.496C1764.95 753.134 1762.92 755.082 1760.31 754.951L1716.91 752.784C1714.02 752.639 1711.58 750.013 1711.63 747.089L1712.16 712.25Z" fill="url(#paint56_linear)"/>
<ellipse id="Ellipse 1_22" rx="1.15278" ry="2.51491" transform="matrix(0.99152 0.155505 -0.037184 0.998549 1758.98 717.613)" fill="#09C549"/>
<ellipse id="Ellipse 2_22" rx="1.15278" ry="2.51491" transform="matrix(0.99152 0.155505 -0.037184 0.998549 1759.09 730.259)" fill="#FD601C"/>
<ellipse id="Ellipse 3_22" rx="1.15278" ry="2.51491" transform="matrix(0.99152 0.155505 -0.037184 0.998549 1759.14 744.162)" fill="#D50C0C"/>
</g>
<g id="Group 24_4">
<path id="Rectangle 129_23" d="M1710.02 767.881C1710.01 765.222 1712.05 763.262 1714.68 763.411L1761.7 766.088C1764.58 766.252 1767 768.878 1766.96 771.792L1766.35 816.447C1766.31 819.148 1764.16 821.081 1761.49 820.817L1715.2 816.241C1712.42 815.967 1710.15 813.442 1710.14 810.636L1710.02 767.881Z" fill="url(#paint57_linear)"/>
<path id="Rectangle 130_23" d="M1711.94 771.803C1711.95 769.126 1714.03 767.163 1716.67 767.342L1759.45 770.244C1762.31 770.438 1764.69 773.041 1764.65 775.928L1764.15 812.229C1764.11 814.92 1761.98 816.857 1759.31 816.615L1717 812.774C1714.21 812.52 1711.91 809.986 1711.92 807.164L1711.94 771.803Z" fill="url(#paint58_linear)"/>
<ellipse id="Ellipse 1_23" rx="1.15278" ry="2.34948" transform="matrix(0.99152 0.155505 -0.037184 0.998549 1758.64 779.56)" fill="#09C549"/>
<ellipse id="Ellipse 2_23" rx="1.15278" ry="2.34948" transform="matrix(0.99152 0.155505 -0.037184 0.998549 1758.77 791.38)" fill="#FD601C"/>
<ellipse id="Ellipse 3_23" rx="1.15278" ry="2.34948" transform="matrix(0.99152 0.155505 -0.037184 0.998549 1758.86 804.373)" fill="#D50C0C"/>
</g>
<g id="Group 20_4">
<path id="Rectangle 129_24" d="M1710.95 534.372C1710.96 532.142 1712.44 530.266 1714.58 529.773L1761.62 518.928C1764.8 518.193 1767.97 520.764 1767.97 524.085L1768.01 568.203C1768.01 570.557 1766.38 572.505 1764.08 572.882L1716.87 580.631C1713.75 581.143 1710.8 578.594 1710.81 575.394L1710.95 534.372Z" fill="url(#paint59_linear)"/>
<path id="Rectangle 130_24" d="M1712.95 537.268C1712.95 535.001 1714.48 533.097 1716.66 532.627L1758.81 523.572C1761.97 522.893 1765.07 525.435 1765.08 528.715L1765.2 564.938C1765.21 567.324 1763.54 569.297 1761.2 569.653L1718.9 576.115C1715.8 576.587 1712.91 574.065 1712.91 570.897L1712.95 537.268Z" fill="url(#paint60_linear)"/>
<ellipse id="Ellipse 1_24" rx="1.1643" ry="2.48668" transform="matrix(0.998054 0.0750106 -0.0204612 0.999611 1758.97 530.48)" fill="#09C549"/>
<ellipse id="Ellipse 2_24" rx="1.1643" ry="2.48668" transform="matrix(0.998054 0.0750106 -0.0204612 0.999611 1759.3 542.952)" fill="#FD601C"/>
<ellipse id="Ellipse 3_24" rx="1.1643" ry="2.48668" transform="matrix(0.998054 0.0750106 -0.0204612 0.999611 1759.6 556.667)" fill="#D50C0C"/>
</g>
</g>
<g id="Group 29">
<g id="Group 19_5">
<path id="Rectangle 129_25" d="M1622.42 513.399C1622.43 511.156 1623.93 509.261 1626.08 508.762L1666.98 499.301C1670.15 498.566 1673.3 501.107 1673.3 504.413L1673.35 541.54C1673.35 543.905 1671.7 545.872 1669.4 546.256L1628.35 553.088C1625.24 553.606 1622.31 551.084 1622.32 547.895L1622.42 513.399Z" fill="url(#paint61_linear)"/>
<path id="Rectangle 130_25" d="M1624.21 515.921C1624.21 513.641 1625.75 511.718 1627.95 511.243L1664.49 503.352C1667.64 502.671 1670.71 505.184 1670.73 508.45L1670.84 538.699C1670.85 541.095 1669.16 543.088 1666.82 543.451L1630.15 549.146C1627.06 549.625 1624.19 547.129 1624.19 543.973L1624.21 515.921Z" fill="url(#paint62_linear)"/>
<ellipse id="Ellipse 1_25" rx="1.03943" ry="2.16809" transform="matrix(0.997734 0.0672654 -0.0204908 0.99979 1665.27 509.237)" fill="#09C549"/>
<ellipse id="Ellipse 2_25" rx="1.03943" ry="2.16809" transform="matrix(0.997734 0.0672654 -0.0204908 0.99979 1665.57 520.11)" fill="#FD601C"/>
<ellipse id="Ellipse 3_25" rx="1.03943" ry="2.16809" transform="matrix(0.997734 0.0672654 -0.0204908 0.99979 1665.84 532.068)" fill="#D50C0C"/>
</g>
<g id="Group 21_5">
<path id="Rectangle 129_26" d="M1621.8 613.627C1621.85 611.339 1623.42 609.566 1625.63 609.317L1667.27 604.626C1670.39 604.274 1673.37 607.05 1673.36 610.292L1673.21 646.781C1673.2 649.279 1671.37 651.164 1668.93 651.203L1626.77 651.881C1623.75 651.93 1621.07 649.183 1621.13 646.102L1621.8 613.627Z" fill="url(#paint63_linear)"/>
<path id="Rectangle 130_26" d="M1623.51 616.302C1623.56 613.991 1625.17 612.202 1627.4 611.974L1664.69 608.172C1667.78 607.856 1670.72 610.602 1670.71 613.812L1670.67 643.904C1670.66 646.4 1668.85 648.294 1666.41 648.352L1628.61 649.246C1625.58 649.317 1622.89 646.575 1622.95 643.486L1623.51 616.302Z" fill="url(#paint64_linear)"/>
<ellipse id="Ellipse 1_26" rx="1.0406" ry="2.16614" transform="matrix(0.990645 0.16724 -0.0435946 0.997965 1665.32 617.549)" fill="#09C549"/>
<ellipse id="Ellipse 2_26" rx="1.0406" ry="2.16614" transform="matrix(0.990645 0.16724 -0.0435946 0.997965 1665.36 628.444)" fill="#FD601C"/>
<ellipse id="Ellipse 3_26" rx="1.0406" ry="2.16614" transform="matrix(0.990645 0.16724 -0.0435946 0.997965 1665.36 640.421)" fill="#D50C0C"/>
</g>
<g id="Group 22_5">
<path id="Rectangle 129_27" d="M1621.37 661.7C1621.42 659.262 1623.2 657.431 1625.59 657.364L1667.28 656.19C1670.28 656.105 1672.99 658.806 1672.97 661.884L1672.82 698.15C1672.81 700.725 1670.88 702.635 1668.35 702.571L1626.11 701.513C1623.15 701.439 1620.6 698.735 1620.67 695.734L1621.37 661.7Z" fill="url(#paint65_linear)"/>
<path id="Rectangle 130_27" d="M1623.11 664.604C1623.16 662.132 1624.99 660.284 1627.42 660.252L1665.25 659.757C1668.22 659.718 1670.86 662.382 1670.86 665.419L1670.82 694.796C1670.82 697.355 1668.91 699.273 1666.4 699.246L1628.02 698.841C1625.04 698.81 1622.46 696.102 1622.52 693.079L1623.11 664.604Z" fill="url(#paint66_linear)"/>
<ellipse id="Ellipse 1_27" rx="1.03991" ry="2.16614" transform="matrix(0.990645 0.16724 -0.0435946 0.997965 1665.33 668.103)" fill="#09C549"/>
<ellipse id="Ellipse 2_27" rx="1.03991" ry="2.16614" transform="matrix(0.990645 0.16724 -0.0435946 0.997965 1665.37 678.998)" fill="#FD601C"/>
<ellipse id="Ellipse 3_27" rx="1.03991" ry="2.16614" transform="matrix(0.990645 0.16724 -0.0435946 0.997965 1665.37 690.974)" fill="#D50C0C"/>
</g>
<g id="Group 23_5">
<path id="Rectangle 129_28" d="M1620.83 714.137C1620.88 711.626 1622.76 709.771 1625.24 709.798L1667.29 710.269C1670.24 710.301 1672.81 712.962 1672.8 715.962L1672.67 753.006C1672.66 755.662 1670.61 757.597 1667.99 757.42L1625.35 754.547C1622.47 754.352 1620.06 751.696 1620.12 748.779L1620.83 714.137Z" fill="url(#paint67_linear)"/>
<path id="Rectangle 130_28" d="M1622.55 717.569C1622.6 715.031 1624.52 713.162 1627.02 713.217L1665.2 714.067C1668.14 714.132 1670.67 716.784 1670.64 719.762L1670.41 750.147C1670.39 752.799 1668.33 754.729 1665.71 754.553L1627.18 751.955C1624.3 751.761 1621.9 749.115 1621.96 746.205L1622.55 717.569Z" fill="url(#paint68_linear)"/>
<ellipse id="Ellipse 1_28" rx="1.0481" ry="2.16614" transform="matrix(0.990645 0.16724 -0.0435946 0.997965 1665.1 722.392)" fill="#09C549"/>
<ellipse id="Ellipse 2_28" rx="1.0481" ry="2.16614" transform="matrix(0.990645 0.16724 -0.0435946 0.997965 1665.15 733.29)" fill="#FD601C"/>
<ellipse id="Ellipse 3_28" rx="1.0481" ry="2.16614" transform="matrix(0.990645 0.16724 -0.0435946 0.997965 1665.15 745.267)" fill="#D50C0C"/>
</g>
<g id="Group 24_5">
<path id="Rectangle 129_29" d="M1620.4 765.496C1620.41 762.822 1622.48 760.877 1625.12 761.073L1666.93 764.169C1669.8 764.381 1672.19 767.025 1672.14 769.926L1671.44 806.979C1671.38 809.688 1669.21 811.6 1666.53 811.295L1625.36 806.61C1622.6 806.295 1620.35 803.755 1620.35 800.959L1620.4 765.496Z" fill="url(#paint69_linear)"/>
<path id="Rectangle 130_29" d="M1622.14 768.912C1622.15 766.222 1624.26 764.277 1626.91 764.501L1664.88 767.705C1667.72 767.945 1670.07 770.566 1670.02 773.442L1669.45 803.308C1669.4 806.007 1667.24 807.923 1664.57 807.64L1627.02 803.653C1624.24 803.358 1621.97 800.806 1621.98 797.995L1622.14 768.912Z" fill="url(#paint70_linear)"/>
<ellipse id="Ellipse 1_29" rx="1.0481" ry="2.02366" transform="matrix(0.990645 0.16724 -0.0435946 0.997965 1664.55 775.753)" fill="#09C549"/>
<ellipse id="Ellipse 2_29" rx="1.0481" ry="2.02366" transform="matrix(0.990645 0.16724 -0.0435946 0.997965 1664.63 785.94)" fill="#FD601C"/>
<ellipse id="Ellipse 3_29" rx="1.0481" ry="2.02366" transform="matrix(0.990645 0.16724 -0.0435946 0.997965 1664.66 797.134)" fill="#D50C0C"/>
</g>
<g id="Group 20_5">
<path id="Rectangle 129_30" d="M1622.12 564.24C1622.14 561.98 1623.67 560.111 1625.84 559.679L1667.75 551.372C1670.91 550.744 1674.01 553.353 1674 556.641L1673.87 593.226C1673.86 595.606 1672.18 597.542 1669.86 597.857L1627.82 603.549C1624.72 603.969 1621.83 601.384 1621.86 598.211L1622.12 564.24Z" fill="url(#paint71_linear)"/>
<path id="Rectangle 130_30" d="M1623.93 566.78C1623.95 564.484 1625.51 562.589 1627.73 562.181L1665.18 555.314C1668.33 554.737 1671.36 557.317 1671.35 560.566L1671.33 590.355C1671.32 592.765 1669.61 594.725 1667.25 595.019L1629.67 599.701C1626.6 600.085 1623.76 597.526 1623.78 594.383L1623.93 566.78Z" fill="url(#paint72_linear)"/>
<ellipse id="Ellipse 1_30" rx="1.05915" ry="2.14177" transform="matrix(0.996963 0.0910501 -0.0259519 0.999407 1665.79 561.178)" fill="#09C549"/>
<ellipse id="Ellipse 2_30" rx="1.05915" ry="2.14177" transform="matrix(0.996963 0.0910501 -0.0259519 0.999407 1666.04 571.929)" fill="#FD601C"/>
<ellipse id="Ellipse 3_30" rx="1.05916" ry="2.14177" transform="matrix(0.996963 0.0910501 -0.0259519 0.999407 1666.27 583.75)" fill="#D50C0C"/>
</g>
</g>
<g id="Group 30">
<g id="Group 19_6">
<path id="Rectangle 129_31" d="M1545.5 524.816C1545.51 522.578 1547 520.686 1549.14 520.183L1584.94 511.802C1588.12 511.057 1591.27 513.6 1591.28 516.912L1591.31 549.642C1591.31 552.003 1589.67 553.968 1587.37 554.356L1551.44 560.414C1548.33 560.939 1545.4 558.416 1545.41 555.223L1545.5 524.816Z" fill="url(#paint73_linear)"/>
<path id="Rectangle 130_31" d="M1547.11 527.113C1547.11 524.838 1548.64 522.918 1550.84 522.438L1582.71 515.47C1585.87 514.78 1588.95 517.295 1588.96 520.566L1589.06 547.057C1589.06 549.449 1587.38 551.439 1585.05 551.807L1553.06 556.841C1549.97 557.328 1547.08 554.83 1547.09 551.669L1547.11 527.113Z" fill="url(#paint74_linear)"/>
<ellipse id="Ellipse 1_31" rx="0.935158" ry="1.96894" transform="matrix(0.997734 0.0672654 -0.0204908 0.99979 1584.05 520.674)" fill="#09C549"/>
<ellipse id="Ellipse 2_31" rx="0.935158" ry="1.96894" transform="matrix(0.997734 0.0672654 -0.0204908 0.99979 1584.32 530.549)" fill="#FD601C"/>
<ellipse id="Ellipse 3_31" rx="0.935158" ry="1.96894" transform="matrix(0.997734 0.0672654 -0.0204908 0.99979 1584.56 541.407)" fill="#D50C0C"/>
</g>
<g id="Group 21_6">
<path id="Rectangle 129_32" d="M1544.91 615.847C1544.96 613.565 1546.53 611.795 1548.73 611.543L1585.21 607.372C1588.33 607.015 1591.32 609.797 1591.31 613.045L1591.17 645.189C1591.16 647.683 1589.34 649.564 1586.9 649.605L1549.97 650.228C1546.95 650.279 1544.26 647.527 1544.33 644.443L1544.91 615.847Z" fill="url(#paint75_linear)"/>
<path id="Rectangle 130_32" d="M1546.46 618.28C1546.5 615.973 1548.11 614.188 1550.34 613.957L1582.89 610.586C1585.99 610.265 1588.93 613.016 1588.93 616.233L1588.89 642.578C1588.88 645.069 1587.07 646.96 1584.64 647.02L1551.64 647.829C1548.6 647.903 1545.9 645.156 1545.97 642.063L1546.46 618.28Z" fill="url(#paint76_linear)"/>
<ellipse id="Ellipse 1_32" rx="0.936302" ry="1.96716" transform="matrix(0.990532 0.168167 -0.0433796 0.997984 1584.08 619.037)" fill="#09C549"/>
<ellipse id="Ellipse 2_32" rx="0.936302" ry="1.96716" transform="matrix(0.990532 0.168167 -0.0433796 0.997984 1584.11 628.931)" fill="#FD601C"/>
<ellipse id="Ellipse 3_32" rx="0.936302" ry="1.96716" transform="matrix(0.990532 0.168167 -0.0433796 0.997984 1584.11 639.807)" fill="#D50C0C"/>
</g>
<g id="Group 22_6">
<path id="Rectangle 129_33" d="M1544.52 659.536C1544.57 657.101 1546.35 655.273 1548.73 655.204L1585.25 654.143C1588.26 654.056 1590.97 656.763 1590.95 659.845L1590.82 691.82C1590.81 694.391 1588.88 696.298 1586.35 696.236L1549.35 695.323C1546.39 695.25 1543.84 692.541 1543.9 689.538L1544.52 659.536Z" fill="url(#paint77_linear)"/>
<path id="Rectangle 130_33" d="M1546.09 662.181C1546.14 659.713 1547.96 657.868 1550.39 657.834L1583.43 657.376C1586.41 657.335 1589.05 660.005 1589.05 663.046L1589.01 688.78C1589.01 691.336 1587.11 693.25 1584.6 693.225L1551.08 692.889C1548.1 692.859 1545.51 690.147 1545.57 687.121L1546.09 662.181Z" fill="url(#paint78_linear)"/>
<ellipse id="Ellipse 1_33" rx="0.935683" ry="1.96716" transform="matrix(0.990532 0.168167 -0.0433796 0.997984 1584.08 664.946)" fill="#09C549"/>
<ellipse id="Ellipse 2_33" rx="0.935683" ry="1.96716" transform="matrix(0.990532 0.168167 -0.0433796 0.997984 1584.12 674.84)" fill="#FD601C"/>
<ellipse id="Ellipse 3_33" rx="0.935683" ry="1.96716" transform="matrix(0.990532 0.168167 -0.0433796 0.997984 1584.11 685.717)" fill="#D50C0C"/>
</g>
<g id="Group 23_6">
<path id="Rectangle 129_34" d="M1544.02 707.173C1544.08 704.665 1545.96 702.812 1548.42 702.838L1585.27 703.231C1588.22 703.262 1590.8 705.928 1590.79 708.931L1590.67 741.617C1590.66 744.27 1588.61 746.202 1585.99 746.026L1548.64 743.508C1545.75 743.313 1543.34 740.653 1543.4 737.733L1544.02 707.173Z" fill="url(#paint79_linear)"/>
<path id="Rectangle 130_34" d="M1545.57 710.294C1545.62 707.76 1547.54 705.893 1550.04 705.948L1583.4 706.676C1586.33 706.74 1588.87 709.396 1588.85 712.378L1588.64 739.022C1588.62 741.672 1586.56 743.599 1583.95 743.423L1550.28 741.153C1547.4 740.959 1544.99 738.31 1545.05 735.397L1545.57 710.294Z" fill="url(#paint80_linear)"/>
<ellipse id="Ellipse 1_34" rx="0.94305" ry="1.96716" transform="matrix(0.990532 0.168167 -0.0433796 0.997984 1583.86 714.249)" fill="#09C549"/>
<ellipse id="Ellipse 2_34" rx="0.94305" ry="1.96716" transform="matrix(0.990532 0.168167 -0.0433796 0.997984 1583.9 724.144)" fill="#FD601C"/>
<ellipse id="Ellipse 3_34" rx="0.94305" ry="1.96716" transform="matrix(0.990532 0.168167 -0.0433796 0.997984 1583.9 735.022)" fill="#D50C0C"/>
</g>
<g id="Group 24_6">
<path id="Rectangle 129_35" d="M1543.64 753.85C1543.64 751.178 1545.71 749.237 1548.35 749.432L1584.97 752.146C1587.84 752.359 1590.23 755.006 1590.17 757.91L1589.56 790.617C1589.5 793.325 1587.33 795.234 1584.65 794.928L1548.6 790.809C1545.84 790.494 1543.58 787.949 1543.59 785.151L1543.64 753.85Z" fill="url(#paint81_linear)"/>
<path id="Rectangle 130_35" d="M1545.2 756.955C1545.21 754.267 1547.31 752.325 1549.97 752.549L1583.12 755.352C1585.97 755.593 1588.32 758.218 1588.27 761.096L1587.77 787.286C1587.72 789.984 1585.56 791.897 1582.89 791.613L1550.1 788.119C1547.32 787.823 1545.04 785.267 1545.06 782.454L1545.2 756.955Z" fill="url(#paint82_linear)"/>
<ellipse id="Ellipse 1_35" rx="0.94305" ry="1.83776" transform="matrix(0.990532 0.168167 -0.0433796 0.997984 1583.36 762.707)" fill="#09C549"/>
<ellipse id="Ellipse 2_35" rx="0.94305" ry="1.83776" transform="matrix(0.990532 0.168167 -0.0433796 0.997984 1583.43 771.958)" fill="#FD601C"/>
<ellipse id="Ellipse 3_35" rx="0.94305" ry="1.83776" transform="matrix(0.990532 0.168167 -0.0433796 0.997984 1583.46 782.123)" fill="#D50C0C"/>
</g>
<g id="Group 20_6">
<path id="Rectangle 129_36" d="M1545.22 570.991C1545.24 568.736 1546.76 566.87 1548.93 566.434L1585.63 559.067C1588.8 558.43 1591.9 561.042 1591.89 564.336L1591.77 596.577C1591.76 598.952 1590.09 600.886 1587.77 601.204L1550.95 606.26C1547.85 606.686 1544.95 604.099 1544.98 600.92L1545.22 570.991Z" fill="url(#paint83_linear)"/>
<path id="Rectangle 130_36" d="M1546.85 573.303C1546.86 571.013 1548.42 569.12 1550.64 568.709L1583.33 562.636C1586.48 562.052 1589.52 564.634 1589.52 567.888L1589.49 593.964C1589.48 596.37 1587.78 598.328 1585.42 598.625L1552.62 602.772C1549.54 603.161 1546.69 600.6 1546.71 597.453L1546.85 573.303Z" fill="url(#paint84_linear)"/>
<ellipse id="Ellipse 1_36" rx="0.952913" ry="1.94504" transform="matrix(0.996953 0.0912734 -0.025901 0.999411 1584.51 567.844)" fill="#09C549"/>
<ellipse id="Ellipse 2_36" rx="0.952909" ry="1.94504" transform="matrix(0.996953 0.0912734 -0.025901 0.999411 1584.74 577.607)" fill="#FD601C"/>
<ellipse id="Ellipse 3_36" rx="0.952915" ry="1.94504" transform="matrix(0.996953 0.0912734 -0.025901 0.999411 1584.94 588.342)" fill="#D50C0C"/>
</g>
</g>
</g>
<g id="Monitor">
<path id="Ellipse 5" d="M1355.59 453.503C1355.82 456.599 1333.95 462.887 1306.61 465.43C1279.26 467.972 1258.1 466.702 1257.87 463.607C1257.64 460.511 1278.89 454.602 1306.24 452.059C1333.59 449.517 1355.36 450.408 1355.59 453.503Z" fill="url(#paint85_linear)"/>
<path id="Rectangle 132" d="M1186.78 270.816L1189.15 269.255L1201.61 436.318L1199.09 435.883L1186.78 270.816Z" fill="#7B7B7B"/>
<path id="Rectangle 134" d="M1291.14 425.001L1302.88 423.552L1302.68 437.645L1303.1 451.68C1299.6 451.852 1294.44 452.485 1293.25 453.266L1291.14 425.001Z" fill="url(#paint86_linear)"/>
<path id="Rectangle 133" d="M1283.12 426.06L1291.15 425.133L1293.25 453.267L1285.2 454.015L1283.12 426.06Z" fill="url(#paint87_linear)"/>
<path id="Rectangle 131" d="M1189.15 269.256L1397.63 268.397C1399.18 268.39 1400.46 269.574 1400.58 271.124L1410.73 407.258C1410.85 408.873 1409.67 410.316 1408.06 410.517L1201.61 436.319L1189.15 269.256Z" fill="url(#paint88_linear)"/>
<path id="Rectangle 135" d="M1343.84 268.594L1397.34 268.396C1398.89 268.39 1400.17 269.573 1400.29 271.123L1410.44 407.242C1410.56 408.864 1409.37 410.31 1407.75 410.503L1325.91 420.275L1343.84 268.594Z" fill="url(#paint89_linear)"/>
<path id="Ellipse 4" d="M1355.54 452.834C1355.76 455.775 1332.86 460.978 1305.85 463.489C1278.85 466 1257.97 464.866 1257.75 461.925C1257.53 458.985 1278.52 453.296 1305.53 450.785C1332.54 448.275 1355.32 449.893 1355.54 452.834Z" fill="url(#paint90_linear)"/>
</g>
<g id="minipc">
<g id="miniPC">
<path id="Rectangle 137" d="M1434.59 305.713C1434.59 304.608 1435.49 303.713 1436.59 303.713H1462.58V434.274L1434.59 417.671V305.713Z" fill="url(#paint91_linear)"/>
<path id="Rectangle 138" d="M1462.58 303.713H1480.93C1482.03 303.713 1482.93 304.608 1482.93 305.713V430.907C1482.93 431.954 1482.12 432.824 1481.08 432.902L1462.58 434.274V303.713Z" fill="url(#paint92_linear)"/>
<ellipse id="Ellipse 6" cx="1470.21" cy="314.279" rx="4.45196" ry="5.28281" fill="url(#paint93_linear)"/>
<ellipse id="Ellipse 7" cx="1470.84" cy="313.524" rx="1.27199" ry="1.50937" fill="#14F71D"/>
</g>
<ellipse id="Ellipse 8" cx="1470.21" cy="330.882" rx="1.90798" ry="2.26406" fill="#1B1B1B"/>
<ellipse id="Ellipse 9" cx="1470.21" cy="341.447" rx="1.90798" ry="2.26406" fill="#1B1B1B"/>
</g>
<g id="Group 38">
<g id="Mouse">
<path id="Ellipse 10" d="M1464.16 468.349C1459.88 484.276 1456.94 483.518 1440.68 483.356C1423.03 483.18 1406.51 485.811 1406.57 477.64C1413.19 468.979 1423.27 453.587 1440.92 453.763C1455.87 455.44 1464.23 460.177 1464.16 468.349Z" fill="url(#paint94_linear)"/>
<path id="Ellipse 12" d="M1422.12 464.738C1422.12 466.18 1419.6 465.243 1418.22 467.349C1417.44 468.538 1415.88 466.18 1415.88 464.738C1415.88 463.296 1416.93 462.127 1418.22 462.127C1419.51 462.127 1422.12 463.296 1422.12 464.738Z" fill="#BA1313"/>
<path id="Ellipse 11" d="M1463.44 465.609C1451.74 471.702 1447.83 471.375 1435.37 465.609C1421.22 459.06 1413.49 475.107 1413.54 469.09C1419.27 462.722 1425.7 453.567 1441.02 453.721C1454 454.976 1463.49 459.592 1463.44 465.609Z" fill="url(#paint95_linear)"/>
</g>
</g>
<g id="Desktop">
<ellipse id="Ellipse 17" rx="2.2779" ry="2.30924" transform="matrix(0.99996 0.00892511 -0.00716022 0.999974 1235.65 802.29)" fill="#373737"/>
<ellipse id="Ellipse 18" rx="2.2779" ry="2.30924" transform="matrix(0.99996 0.00892511 -0.00716022 0.999974 1278.93 802.676)" fill="#373737"/>
<ellipse id="Ellipse 19" rx="2.2779" ry="2.30924" transform="matrix(0.99996 0.00892511 -0.00716022 0.999974 1285.86 790.036)" fill="#373737"/>
<ellipse id="Ellipse 20" rx="2.2779" ry="2.30924" transform="matrix(0.99996 0.00892511 -0.00716022 0.999974 1287.25 596.066)" fill="#373737"/>
<rect id="Rectangle 140" width="59.2253" height="214.759" rx="3" transform="matrix(0.99996 0.00892511 -0.00716022 0.999974 1229.22 587.465)" fill="url(#paint96_linear)"/>
<rect id="Rectangle 141" width="59.2253" height="95.8333" transform="matrix(0.99996 0.00892511 -0.00716022 0.999974 1229.18 593.239)" fill="url(#paint97_linear)"/>
<rect id="Rectangle 142" x="0.2482" y="0.252225" width="7.47264" height="80.3233" rx="0.75" transform="matrix(0.99996 0.00892511 -0.00716022 0.999974 1234.84 597.906)" fill="#676565" stroke="#464646" stroke-width="0.5"/>
<rect id="Rectangle 147" width="7.97264" height="80.8233" rx="1" transform="matrix(0.99996 0.00892511 -0.00716022 0.999974 1255.34 598.091)" fill="url(#paint98_linear)"/>
<path id="Ellipse 13" d="M1281.24 604.095C1281.22 607.148 1278.76 609.596 1275.76 609.569C1272.75 609.542 1270.33 607.051 1270.35 603.998C1270.38 600.944 1272.83 598.496 1275.84 598.523C1278.84 598.55 1281.26 601.041 1281.24 604.095Z" fill="#8D8D8D" stroke="#5A5A5A" stroke-width="0.5"/>
<ellipse id="Ellipse 14" rx="1.13895" ry="1.15462" transform="matrix(0.99996 0.00892511 -0.00716022 0.999974 1275.8 604.047)" fill="#13DE4C"/>
<path id="Ellipse 15" d="M1277.4 628.309C1277.4 629.314 1276.59 630.111 1275.61 630.102C1274.64 630.093 1273.84 629.282 1273.85 628.277C1273.85 627.271 1274.66 626.475 1275.64 626.483C1276.61 626.492 1277.41 627.303 1277.4 628.309Z" fill="#1E1E1E" stroke="#9B9A9A"/>
<path id="Ellipse 16" d="M1277.31 641.008C1277.3 642.014 1276.5 642.81 1275.52 642.802C1274.55 642.793 1273.75 641.982 1273.76 640.977C1273.76 639.971 1274.57 639.175 1275.55 639.183C1276.52 639.192 1277.32 640.003 1277.31 641.008Z" fill="#1E1E1E" stroke="#9B9A9A"/>
<rect id="Rectangle 143" x="0.2482" y="0.252225" width="4.05579" height="8.73695" transform="matrix(0.99996 0.00892511 -0.00716022 0.999974 1266.32 655.92)" fill="#2E2E2E" stroke="#A0A0A0" stroke-width="0.5"/>
<rect id="Rectangle 145" x="0.2482" y="0.252225" width="4.05579" height="8.73695" transform="matrix(0.99996 0.00892511 -0.00716022 0.999974 1266.23 668.62)" fill="#2E2E2E" stroke="#A0A0A0" stroke-width="0.5"/>
<rect id="Rectangle 146" x="0.2482" y="0.252225" width="4.05579" height="8.73695" transform="matrix(0.99996 0.00892511 -0.00716022 0.999974 1275.34 668.701)" fill="#2E2E2E" stroke="#A0A0A0" stroke-width="0.5"/>
<rect id="Rectangle 144" x="0.2482" y="0.252225" width="4.05579" height="8.73695" transform="matrix(0.99996 0.00892511 -0.00716022 0.999974 1275.43 656.001)" fill="#2E2E2E" stroke="#A0A0A0" stroke-width="0.5"/>
</g>
<g id="scanner">
<path id="Rectangle 151" d="M1299.63 978.981H1305.49V1001.76H1299.63V978.981Z" fill="url(#paint99_linear)"/>
<g id="scanner_2">
<path id="Rectangle 160" d="M1319.34 939.924H1433.33L1420.02 1018.58L1304.42 1008.27L1299.63 1001.76L1303.36 975.726L1319.34 939.924Z" fill="black"/>
<path id="Rectangle 155" d="M1337.98 890.016L1440.6 895.348C1441.53 895.396 1442.2 896.274 1441.99 897.183L1428.01 957.824L1318.81 950.229L1337.98 890.016Z" fill="url(#paint100_linear)"/>
<path id="Rectangle 149" d="M1420.02 988.203L1433.33 939.924L1435.46 994.713L1420.02 1017.5V988.203Z" fill="#777373"/>
<path id="Rectangle 148" d="M1307.09 978.981L1417.35 988.745L1417.61 1018.04L1307.09 1007.19V978.981Z" fill="url(#paint101_linear)"/>
<path id="Rectangle 150" d="M1317.21 936.668H1323.6L1305.49 978.981H1299.63L1317.21 936.668Z" fill="url(#paint102_linear)"/>
<path id="Rectangle 153" d="M1307.09 1007.19L1412.03 1016.95L1408.3 1029.43L1300.16 1018.58L1307.09 1007.19Z" fill="url(#paint103_linear)"/>
<path id="Rectangle 154" d="M1300.16 1018.58L1408.3 1029.43L1403.5 1033.77L1292.7 1021.29L1300.16 1018.58Z" fill="url(#paint104_linear)"/>
<path id="Rectangle 156" d="M1412.03 1016.95L1413.62 1017.5L1409.89 1029.97L1408.3 1029.43L1412.03 1016.95Z" fill="#020202"/>
<path id="Rectangle 159" d="M1358.22 843.365H1434.93L1412.03 958.909L1332.66 955.112L1358.22 843.365Z" fill="url(#paint105_linear)"/>
<path id="Rectangle 157" d="M1403.5 1033.77L1408.3 1029.43L1409.89 1029.97L1404.57 1034.85L1403.5 1033.77Z" fill="black"/>
<path id="Rectangle 158" d="M1292.7 1021.29L1403.5 1033.77L1404.57 1034.85L1292.7 1022.38V1021.29Z" fill="#0F0F0F"/>
<path id="Rectangle 152" d="M1321.47 946.975L1426.94 953.425L1417.35 988.745L1307.09 978.98L1321.47 946.975Z" fill="url(#paint106_linear)"/>
<path id="Rectangle 161" d="M1373.14 961.622L1417.35 965.419L1414.69 975.183L1369.94 971.928L1373.14 961.622Z" fill="url(#paint107_linear)"/>
<path id="Rectangle 162" d="M1440.79 895.442V895.442C1441.61 895.442 1442.21 896.202 1442.03 896.999L1428.01 957.825H1425.88L1440.79 895.442Z" fill="url(#paint108_linear)"/>
</g>
</g>
<g id="Notebook]">
<path id="Rectangle 167" d="M1354.98 735.834L1521.94 732.354C1522.35 732.346 1522.73 732.591 1522.89 732.973L1523.69 734.932C1523.9 735.434 1523.67 736.009 1523.17 736.228L1410.7 785.919L1354.98 744.57V735.834Z" fill="url(#paint109_linear)"/>
<path id="Rectangle 163" d="M1335.18 629.796C1334.98 628.591 1335.9 627.493 1337.12 627.474L1441.2 625.791C1442.17 625.775 1443.02 626.464 1443.2 627.421L1459.22 712.539L1353.54 742.24L1335.18 629.796Z" fill="#444242"/>
<path id="Rectangle 164" d="M1336.61 630.372C1336.42 629.17 1337.33 628.075 1338.55 628.055L1441.38 626.373C1442.36 626.357 1443.2 627.048 1443.38 628.007L1459.22 713.12L1354.5 741.657L1336.61 630.372Z" fill="url(#paint110_linear)"/>
<path id="Rectangle 165" d="M1355.94 741.657L1459.22 708.462L1522.67 732.044C1523.51 732.36 1523.54 733.55 1522.71 733.903L1410.7 781.259L1355.94 741.657Z" fill="url(#paint111_linear)"/>
<path id="Rectangle 166" d="M1341.45 639.094C1341.24 637.897 1342.13 636.79 1343.35 636.747L1438.29 633.395C1439.27 633.36 1440.14 634.052 1440.32 635.023L1452.62 700.21C1452.82 701.247 1452.18 702.258 1451.15 702.519L1358.99 725.984C1357.86 726.271 1356.73 725.539 1356.52 724.394L1341.45 639.094Z" fill="url(#paint112_linear)"/>
<path id="Rectangle 170" d="M1394.95 634.981L1438.43 632.765C1439.43 632.715 1440.31 633.411 1440.49 634.395L1452.88 700.537C1453.08 701.575 1452.43 702.586 1451.4 702.844L1387.02 719.091L1394.95 634.981Z" fill="url(#paint113_linear)"/>
<path id="Rectangle 168" d="M1364.11 741.075L1457.3 710.791L1492.84 725.351L1396.77 763.788L1364.11 741.075Z" fill="url(#paint114_linear)"/>
<path id="Rectangle 169" d="M1435.2 749.994L1468.82 736.599L1487.08 745.734L1452.01 760.294L1435.2 749.994Z" fill="url(#paint115_linear)"/>
</g>
<g id="Group 37">
<g id="Group 31">
<path id="Rectangle 135_2" d="M1182 521.315L1414.2 505.656C1414.28 505.65 1414.36 505.665 1414.44 505.699L1470.32 530.993C1470.78 531.203 1470.67 531.895 1470.16 531.946L1229.56 556.131L1182 521.315Z" fill="#807E7E"/>
<path id="Rectangle 136" d="M1182 521.315L1229.56 556.131H1228L1182 524.797V521.315Z" fill="#4A4949"/>
<path id="Rectangle 139" d="M1193.69 523.926L1414.32 509.129L1450.18 525.667L1227.22 547.427L1193.69 523.926Z" fill="#A0A0A0"/>
</g>
</g>
</g>
<g id="pessoas">
<g id="Group 42">
<path id="Rectangle 188" d="M891.92 179.459H904.651L886.02 216.837V191.607L891.92 179.459Z" fill="#8B0C0C"/>
<g id="Group 41">
<path id="Rectangle 187" d="M958.485 790.899L981.153 784.669C985.517 808.465 987.414 823.112 987.881 841.142C988.093 849.352 983.008 856.915 975.125 859.22C963.387 862.652 955.965 862.351 950.317 856.965C946.216 853.054 946.271 846.731 948.124 841.376C955.232 820.829 957.575 808.734 958.485 790.899Z" fill="#192F2F"/>
<path id="Rectangle 186" d="M860.868 827.822C860.733 822.491 864.684 818.258 869.853 816.944C887.623 812.425 899.536 805.855 918.738 795.259C922.842 802.398 925.673 807.439 927.846 814.068C929.696 819.713 925.372 825.269 919.451 825.757C897.1 827.603 883.068 828.876 864.033 830.774C862.38 830.939 860.91 829.483 860.868 827.822V827.822Z" fill="#192F2F"/>
<path id="Rectangle 185" d="M769.997 474.433C771.301 471.261 786.571 468.667 807.26 460.416L814.402 470.695C810.303 480.026 808.73 481.153 802.602 491.564C794.055 498.691 788.125 502.34 782.676 503.038C774.645 504.068 770.382 494.315 772.841 486.6C773.209 485.446 773.608 484.374 774.034 483.466C776.518 478.171 768.693 477.605 769.997 474.433Z" fill="#F1AC7A"/>
<path id="Rectangle 184" d="M911.596 250.623L939.543 246.885V267.131L911.596 272.427V250.623Z" fill="#F1AC7A"/>
<path id="Rectangle 181" d="M864.063 299.563C866.049 293.94 870.428 289.46 876.019 287.389L899.99 278.511L865.017 386.907L813.78 478.482L795.033 464.777C825.582 400.176 841.199 364.283 864.063 299.563Z" fill="#167B7B"/>
<path id="Rectangle 176" d="M709.755 365.414C714.379 365.414 727.765 368.953 727.765 368.953C727.765 368.953 733.225 369.525 742.783 368.953C752.341 368.381 759.128 365.414 759.128 365.414L760.37 386.595C760.37 386.595 740.787 391.16 738.012 393.447C735.238 395.735 725.545 397.185 719.07 397.185C712.596 397.185 699.003 394.402 697.77 392.115C696.537 389.827 695.317 387.861 699.507 383.169C701.966 380.415 715.035 373.242 715.035 373.242C715.035 373.242 705.13 365.414 709.755 365.414Z" fill="#FABD91"/>
<path id="Rectangle 178" d="M960.348 622.386L922.464 600.271L957.243 808.341L983.637 801.8L960.348 622.386Z" fill="url(#paint116_linear)"/>
<g id="Group 39">
<path id="Rectangle 179" d="M851.664 475.99L925.259 459.793C914.676 524.535 894.756 562.808 899.175 628.146L866.88 637.802C843.307 574.513 855.077 542.191 851.664 475.99Z" fill="#22AE7C"/>
<path id="Rectangle 180" d="M898.864 624.407L860.98 602.292L895.759 810.362L922.154 803.821L898.864 624.407Z" fill="url(#paint117_linear)"/>
</g>
<path id="Rectangle 177" d="M887.572 471.318L966.135 458.547C970.271 514.741 969.801 554.717 960.658 626.124L928.363 635.78C910.697 571.986 897.856 536.931 887.572 471.318Z" fill="#28CF93"/>
<path id="Rectangle 174" d="M864.358 300.887C865.288 295.472 868.411 290.643 873.098 287.775C903.224 269.34 926.47 264.802 960.681 266.324C972.566 266.853 980.816 278.108 978.611 289.799C964.955 362.215 962.068 410.302 967.998 493.121C918.688 495.124 894.39 499.226 851.862 510.253C848.521 437.675 848.415 393.773 864.358 300.887Z" fill="url(#paint118_linear)"/>
<path id="Rectangle 175" d="M954.137 266.363L960.406 266.482C973.639 266.735 982.981 279.54 979.183 292.218L978.119 295.768C976.427 301.416 972.321 306.034 966.911 308.377C888.868 342.17 842.51 361.136 752.607 391.578V366.348C829.738 331.984 873.349 310.317 954.137 266.363Z" fill="url(#paint119_linear)"/>
<g id="Group 40">
<path id="Ellipse 21" d="M958.796 221.509C953.366 244.729 931.103 257.396 913.067 264.123C910.193 265.195 906.953 264.798 904.54 262.904C889.019 250.72 885.823 234.354 885.823 210.296C885.823 184.32 906.037 171.049 928.675 171.049C951.313 171.049 958.796 195.533 958.796 221.509Z" fill="#FABD91"/>
<path id="Rectangle 182" d="M875.886 172.295L921.533 167L957.554 178.525L915.322 197.214L925.57 185.689H875.886L890.48 178.525L875.886 172.295Z" fill="#8B0C0C"/>
<path id="Rectangle 183" d="M935.752 185.066L951.589 180.394C951.589 180.394 956.536 177.586 958.731 188.804C960.927 200.021 958.387 206.598 958.731 217.772C953.755 202.245 948.38 207.548 946.316 228.05L935.752 204.378C933.987 195.642 934.672 191.877 935.752 185.066Z" fill="#8B0C0C"/>
</g>
</g>
</g>
<g id="Group 43">
<path id="Rectangle 188_2" d="M457.5 184.553H443.495L461.195 223.8C464.247 210.092 466.298 201.862 463.99 196.701L457.5 184.553Z" fill="#6A431F"/>
<g id="Group 41_2">
<path id="Rectangle 187_2" d="M392.181 795.992L370.537 789.763C366.353 813.658 364.544 828.327 364.108 846.462C363.914 854.559 368.85 862.066 376.603 864.408C387.759 867.779 394.798 867.387 400.164 861.871C403.953 857.977 403.893 851.963 402.185 846.805C395.312 826.054 393.054 813.925 392.181 795.992Z" fill="#192F2F"/>
<path id="Rectangle 186_2" d="M485.387 832.885C485.514 827.564 481.6 823.328 476.461 821.945C459.685 817.429 448.341 810.876 430.132 800.353C426.193 807.528 423.483 812.584 421.404 819.262C419.653 824.889 423.946 830.375 429.817 830.883C450.88 832.706 464.211 833.973 482.196 835.85C483.862 836.024 485.347 834.56 485.387 832.885V832.885Z" fill="#192F2F"/>
<path id="Rectangle 185_2" d="M642.497 406.099C640.353 403.558 625.809 406.385 604.657 405.749L601.37 417.909C607.915 425.293 609.676 425.813 618.378 433.515C628.125 437.235 634.54 438.64 639.628 437.501C647.357 435.771 648.258 425.052 643.714 418.636C643.011 417.643 642.305 416.74 641.625 416.012C637.769 411.876 644.642 408.641 642.497 406.099Z" fill="#B27843"/>
<path id="Rectangle 184_2" d="M436.952 255.717L410.268 251.979V272.225L436.952 277.52V255.717Z" fill="#B37843"/>
<path id="Rectangle 181_2" d="M473.342 295.098C468.969 290.655 462.873 288.679 456.887 289.844L440.527 293.027C456.774 324.781 467.089 342.661 505.167 375.766C521.538 388.557 548.97 402.177 610.113 430.772L613.807 403.982C554.755 369.338 523.772 346.329 473.342 295.098Z" fill="#113869"/>
<path id="Rectangle 176_2" d="M555.986 418.299C551.571 418.299 538.79 421.838 538.79 421.838C538.79 421.838 533.576 422.41 524.451 421.838C515.325 421.266 508.844 418.299 508.844 418.299L507.658 439.48C507.658 439.48 526.356 444.045 529.006 446.332C531.655 448.62 540.91 450.07 547.092 450.07C553.274 450.07 566.252 447.287 567.429 445C568.607 442.712 569.771 440.746 565.771 436.054C563.423 433.3 550.944 426.127 550.944 426.127C550.944 426.127 560.402 418.299 555.986 418.299Z" fill="#D39051"/>
<path id="Rectangle 178_2" d="M390.402 627.48L426.574 605.365L393.367 813.435L368.166 806.894L390.402 627.48Z" fill="url(#paint120_linear)"/>
<g id="Group 39_2">
<path id="Rectangle 179_2" d="M494.174 481.084L423.906 464.887C434.01 529.629 453.03 567.902 448.811 633.239L479.646 642.895C502.154 579.607 490.916 547.285 494.174 481.084Z" fill="#4D0F6B"/>
<path id="Rectangle 180_2" d="M449.107 629.501L485.279 607.386L452.072 815.456L426.87 808.915L449.107 629.501Z" fill="url(#paint121_linear)"/>
</g>
<path id="Rectangle 177_2" d="M459.889 476.411L384.877 463.641C380.927 519.835 381.376 559.811 390.106 631.218L420.941 640.874C437.809 577.08 450.069 542.024 459.889 476.411Z" fill="#6C1994"/>
<path id="Rectangle 174_2" d="M482.03 305.835C481.156 300.507 478.163 295.72 473.615 292.809C445.106 274.559 423.039 269.964 390.799 271.385C379.018 271.905 370.827 283.038 372.919 294.642C385.997 367.198 388.766 415.3 383.097 498.215C430.179 500.218 453.379 504.32 493.985 515.347C497.176 442.731 497.277 398.821 482.03 305.835Z" fill="url(#paint122_linear)"/>
<g id="Group 40_2">
<path id="Ellipse 21_2" d="M391.884 226.603C397.03 249.648 418.007 262.299 435.158 269.064C438.128 270.236 441.518 269.81 443.969 267.765C458.546 255.606 461.56 239.295 461.56 215.39C461.56 189.414 442.259 176.143 420.644 176.143C399.029 176.143 391.884 200.627 391.884 226.603Z" fill="#D39051"/>
<path id="Rectangle 182_2" d="M471.046 177.389L427.462 172.094C409.87 172.488 401.874 177.676 391.681 185.373C397.473 200.012 404.775 205.231 432.004 204.062L414.925 197.947C430.43 207.909 450.265 205.387 471.046 197.947C465.684 187.742 462.67 175.545 457.111 183.618C461.845 182.76 464.935 181.314 471.046 177.389Z" fill="#6A431F"/>
<path id="Rectangle 183_2" d="M413.886 190.16L398.765 185.487C398.765 185.487 394.042 182.68 391.946 193.897C389.85 205.115 392.275 211.692 391.946 222.865C396.697 207.338 401.829 212.641 403.8 233.144L413.886 209.472C415.572 200.735 414.918 196.971 413.886 190.16Z" fill="#6A431F"/>
</g>
<path id="Rectangle 189" d="M407.784 271.145C407.784 271.145 431.074 269.534 451.258 280.801L454.568 320.666L445.047 332.196L407.784 271.145Z" fill="url(#paint123_linear)"/>
<path id="Rectangle 190" d="M425.794 272.391C431.833 272.62 435.536 273.28 440.481 275.337C442.329 276.106 443.479 277.987 443.219 279.972C442.814 283.067 442.034 285.887 441.052 289.834H434.642C430.377 283.295 428.411 279.057 425.794 272.391Z" fill="#BD0C0C"/>
<path id="Rectangle 191" d="M434.179 287.03H441.321L454.567 320.666L449.102 338.495L443.637 330.005L435.829 317.27L434.179 287.03Z" fill="url(#paint124_linear)"/>
<path id="Rectangle 175_2" d="M392.107 274.821L389.683 275.202C378.897 276.896 371.463 286.927 372.98 297.739L377.462 329.675C377.671 331.166 378.061 332.665 378.602 334.07C417.005 433.659 449.795 453.981 526.396 455.655V419.731C463.376 415.221 431.907 390.942 392.107 274.821Z" fill="url(#paint125_linear)"/>
</g>
</g>
</g>
</g>
<defs>
<linearGradient id="paint0_linear" x1="2560.88" y1="345.386" x2="1490.71" y2="1469.95" gradientUnits="userSpaceOnUse">
<stop stop-color="#9FCCEB"/>
<stop offset="1" stop-color="#9FF0FB"/>
</linearGradient>
<linearGradient id="paint1_linear" x1="-262.61" y1="627.696" x2="1453.9" y2="986.95" gradientUnits="userSpaceOnUse">
<stop stop-color="#0064AB"/>
<stop offset="1" stop-color="#9FF0FB"/>
</linearGradient>
<linearGradient id="paint2_linear" x1="2561" y1="414.239" x2="95.0117" y2="-121.463" gradientUnits="userSpaceOnUse">
<stop stop-color="#0064AB"/>
<stop offset="1" stop-color="#3CE2F9"/>
</linearGradient>
<linearGradient id="paint3_linear" x1="2661.82" y1="465.077" x2="-244.34" y2="252.917" gradientUnits="userSpaceOnUse">
<stop stop-color="#0064AB"/>
<stop offset="1" stop-color="#3CE2F9"/>
</linearGradient>
<linearGradient id="paint4_linear" x1="1349.82" y1="252.206" x2="2735.55" y2="316.045" gradientUnits="userSpaceOnUse">
<stop stop-color="#677480"/>
<stop offset="1" stop-color="#A9B0B9"/>
</linearGradient>
<linearGradient id="paint5_linear" x1="2081.28" y1="1144.49" x2="2578.21" y2="-17.148" gradientUnits="userSpaceOnUse">
<stop stop-color="#7D7D7D"/>
<stop offset="1"/>
</linearGradient>
<linearGradient id="paint6_linear" x1="2047.91" y1="-106.154" x2="2941.4" y2="1090.76" gradientUnits="userSpaceOnUse">
<stop stop-color="#626262"/>
<stop offset="1"/>
</linearGradient>
<linearGradient id="paint7_linear" x1="2001.07" y1="82.4598" x2="2617.7" y2="969.779" gradientUnits="userSpaceOnUse">
<stop stop-color="#626262"/>
<stop offset="1"/>
</linearGradient>
<linearGradient id="paint8_linear" x1="1832.73" y1="125.578" x2="2326.85" y2="1049.73" gradientUnits="userSpaceOnUse">
<stop stop-color="#626262"/>
<stop offset="1"/>
</linearGradient>
<linearGradient id="paint9_linear" x1="1739.2" y1="259.861" x2="2073.46" y2="1166.9" gradientUnits="userSpaceOnUse">
<stop stop-color="#626262"/>
<stop offset="1"/>
</linearGradient>
<linearGradient id="paint10_linear" x1="1647.74" y1="297.517" x2="1543.59" y2="1160.22" gradientUnits="userSpaceOnUse">
<stop stop-color="#626262"/>
<stop offset="1"/>
</linearGradient>
<linearGradient id="paint11_linear" x1="1585.46" y1="257.898" x2="1269.32" y2="1032.04" gradientUnits="userSpaceOnUse">
<stop stop-color="#626262"/>
<stop offset="1"/>
</linearGradient>
<linearGradient id="paint12_linear" x1="2198.69" y1="597.038" x2="2325.85" y2="595.472" gradientUnits="userSpaceOnUse">
<stop stop-color="#67707B"/>
<stop offset="1" stop-color="#C3CCD4"/>
</linearGradient>
<linearGradient id="paint13_linear" x1="2176.82" y1="227.079" x2="2022.85" y2="357.891" gradientUnits="userSpaceOnUse">
<stop stop-color="#CDCDCD"/>
<stop offset="1" stop-color="#9F9999"/>
</linearGradient>
<linearGradient id="paint14_linear" x1="2134.58" y1="281.341" x2="2071.55" y2="474.405" gradientUnits="userSpaceOnUse">
<stop stop-color="#949494"/>
<stop offset="1"/>
</linearGradient>
<linearGradient id="paint15_linear" x1="2182.19" y1="406.974" x2="2026.66" y2="525.728" gradientUnits="userSpaceOnUse">
<stop stop-color="#CDCDCD"/>
<stop offset="1" stop-color="#9F9999"/>
</linearGradient>
<linearGradient id="paint16_linear" x1="2138.69" y1="457.448" x2="2061.71" y2="640.915" gradientUnits="userSpaceOnUse">
<stop stop-color="#949494"/>
<stop offset="1"/>
</linearGradient>
<linearGradient id="paint17_linear" x1="2184.52" y1="490.364" x2="2029.01" y2="609.026" gradientUnits="userSpaceOnUse">
<stop stop-color="#CDCDCD"/>
<stop offset="1" stop-color="#9F9999"/>
</linearGradient>
<linearGradient id="paint18_linear" x1="2141.04" y1="540.84" x2="2064.03" y2="724.28" gradientUnits="userSpaceOnUse">
<stop stop-color="#949494"/>
<stop offset="1"/>
</linearGradient>
<linearGradient id="paint19_linear" x1="2186.38" y1="582.477" x2="2030.6" y2="702.242" gradientUnits="userSpaceOnUse">
<stop stop-color="#CDCDCD"/>
<stop offset="1" stop-color="#9F9999"/>
</linearGradient>
<linearGradient id="paint20_linear" x1="2142.57" y1="632.924" x2="2065.91" y2="816.691" gradientUnits="userSpaceOnUse">
<stop stop-color="#949494"/>
<stop offset="1"/>
</linearGradient>
<linearGradient id="paint21_linear" x1="2187.17" y1="680.797" x2="2039.8" y2="801.738" gradientUnits="userSpaceOnUse">
<stop stop-color="#CDCDCD"/>
<stop offset="1" stop-color="#9F9999"/>
</linearGradient>
<linearGradient id="paint22_linear" x1="2143.46" y1="727.675" x2="2074.57" y2="901.876" gradientUnits="userSpaceOnUse">
<stop stop-color="#949494"/>
<stop offset="1"/>
</linearGradient>
<linearGradient id="paint23_linear" x1="2181.06" y1="317.059" x2="2027.72" y2="448.077" gradientUnits="userSpaceOnUse">
<stop stop-color="#CDCDCD"/>
<stop offset="1" stop-color="#9F9999"/>
</linearGradient>
<linearGradient id="paint24_linear" x1="2137.69" y1="369.76" x2="2073.51" y2="559.552" gradientUnits="userSpaceOnUse">
<stop stop-color="#949494"/>
<stop offset="1"/>
</linearGradient>
<linearGradient id="paint25_linear" x1="2025.13" y1="272.334" x2="1883.64" y2="388.421" gradientUnits="userSpaceOnUse">
<stop stop-color="#CDCDCD"/>
<stop offset="1" stop-color="#9F9999"/>
</linearGradient>
<linearGradient id="paint26_linear" x1="1987.41" y1="322.508" x2="1927.48" y2="499.797" gradientUnits="userSpaceOnUse">
<stop stop-color="#949494"/>
<stop offset="1"/>
</linearGradient>
<linearGradient id="paint27_linear" x1="2029.92" y1="438.675" x2="1887.5" y2="543.691" gradientUnits="userSpaceOnUse">
<stop stop-color="#CDCDCD"/>
<stop offset="1" stop-color="#9F9999"/>
</linearGradient>
<linearGradient id="paint28_linear" x1="1991.07" y1="485.348" x2="1918.16" y2="653.181" gradientUnits="userSpaceOnUse">
<stop stop-color="#949494"/>
<stop offset="1"/>
</linearGradient>
<linearGradient id="paint29_linear" x1="2032" y1="515.783" x2="1889.6" y2="620.715" gradientUnits="userSpaceOnUse">
<stop stop-color="#CDCDCD"/>
<stop offset="1" stop-color="#9F9999"/>
</linearGradient>
<linearGradient id="paint30_linear" x1="1993.18" y1="562.457" x2="1920.23" y2="730.264" gradientUnits="userSpaceOnUse">
<stop stop-color="#949494"/>
<stop offset="1"/>
</linearGradient>
<linearGradient id="paint31_linear" x1="2033.65" y1="600.956" x2="1890.98" y2="706.89" gradientUnits="userSpaceOnUse">
<stop stop-color="#CDCDCD"/>
<stop offset="1" stop-color="#9F9999"/>
</linearGradient>
<linearGradient id="paint32_linear" x1="1994.54" y1="647.603" x2="1921.91" y2="815.729" gradientUnits="userSpaceOnUse">
<stop stop-color="#949494"/>
<stop offset="1"/>
</linearGradient>
<linearGradient id="paint33_linear" x1="2034.36" y1="691.869" x2="1899.09" y2="799.071" gradientUnits="userSpaceOnUse">
<stop stop-color="#CDCDCD"/>
<stop offset="1" stop-color="#9F9999"/>
</linearGradient>
<linearGradient id="paint34_linear" x1="1995.33" y1="735.217" x2="1930.01" y2="894.74" gradientUnits="userSpaceOnUse">
<stop stop-color="#949494"/>
<stop offset="1"/>
</linearGradient>
<linearGradient id="paint35_linear" x1="2028.91" y1="355.534" x2="1887.97" y2="471.826" gradientUnits="userSpaceOnUse">
<stop stop-color="#CDCDCD"/>
<stop offset="1" stop-color="#9F9999"/>
</linearGradient>
<linearGradient id="paint36_linear" x1="1990.18" y1="404.266" x2="1929.19" y2="578.471" gradientUnits="userSpaceOnUse">
<stop stop-color="#949494"/>
<stop offset="1"/>
</linearGradient>
<linearGradient id="paint37_linear" x1="1889.98" y1="349.651" x2="1772.11" y2="434.442" gradientUnits="userSpaceOnUse">
<stop stop-color="#CDCDCD"/>
<stop offset="1" stop-color="#9F9999"/>
</linearGradient>
<linearGradient id="paint38_linear" x1="1859.82" y1="390.573" x2="1800.31" y2="533.678" gradientUnits="userSpaceOnUse">
<stop stop-color="#949494"/>
<stop offset="1"/>
</linearGradient>
<linearGradient id="paint39_linear" x1="1891.67" y1="490.308" x2="1774.19" y2="566.366" gradientUnits="userSpaceOnUse">
<stop stop-color="#CDCDCD"/>
<stop offset="1" stop-color="#9F9999"/>
</linearGradient>
<linearGradient id="paint40_linear" x1="1860.67" y1="528.23" x2="1791.09" y2="661.747" gradientUnits="userSpaceOnUse">
<stop stop-color="#949494"/>
<stop offset="1"/>
</linearGradient>
<linearGradient id="paint41_linear" x1="1892.34" y1="555.506" x2="1774.89" y2="631.499" gradientUnits="userSpaceOnUse">
<stop stop-color="#CDCDCD"/>
<stop offset="1" stop-color="#9F9999"/>
</linearGradient>
<linearGradient id="paint42_linear" x1="1861.36" y1="593.429" x2="1791.76" y2="726.92" gradientUnits="userSpaceOnUse">
<stop stop-color="#949494"/>
<stop offset="1"/>
</linearGradient>
<linearGradient id="paint43_linear" x1="1892.58" y1="627.499" x2="1774.82" y2="704.262" gradientUnits="userSpaceOnUse">
<stop stop-color="#CDCDCD"/>
<stop offset="1" stop-color="#9F9999"/>
</linearGradient>
<linearGradient id="paint44_linear" x1="1861.37" y1="665.387" x2="1792" y2="799.186" gradientUnits="userSpaceOnUse">
<stop stop-color="#949494"/>
<stop offset="1"/>
</linearGradient>
<linearGradient id="paint45_linear" x1="1892.01" y1="704.299" x2="1779.69" y2="782.381" gradientUnits="userSpaceOnUse">
<stop stop-color="#CDCDCD"/>
<stop offset="1" stop-color="#9F9999"/>
</linearGradient>
<linearGradient id="paint46_linear" x1="1860.9" y1="739.406" x2="1798" y2="866.789" gradientUnits="userSpaceOnUse">
<stop stop-color="#949494"/>
<stop offset="1"/>
</linearGradient>
<linearGradient id="paint47_linear" x1="1891.91" y1="420.058" x2="1774.44" y2="505.038" gradientUnits="userSpaceOnUse">
<stop stop-color="#CDCDCD"/>
<stop offset="1" stop-color="#9F9999"/>
</linearGradient>
<linearGradient id="paint48_linear" x1="1860.98" y1="459.722" x2="1800.76" y2="600.082" gradientUnits="userSpaceOnUse">
<stop stop-color="#949494"/>
<stop offset="1"/>
</linearGradient>
<linearGradient id="paint49_linear" x1="1775.84" y1="396.152" x2="1675.13" y2="463.381" gradientUnits="userSpaceOnUse">
<stop stop-color="#CDCDCD"/>
<stop offset="1" stop-color="#9F9999"/>
</linearGradient>
<linearGradient id="paint50_linear" x1="1751.31" y1="432.081" x2="1696.71" y2="554.838" gradientUnits="userSpaceOnUse">
<stop stop-color="#949494"/>
<stop offset="1"/>
</linearGradient>
<linearGradient id="paint51_linear" x1="1777.07" y1="519.308" x2="1677.37" y2="579.187" gradientUnits="userSpaceOnUse">
<stop stop-color="#CDCDCD"/>
<stop offset="1" stop-color="#9F9999"/>
</linearGradient>
<linearGradient id="paint52_linear" x1="1751.87" y1="552.612" x2="1688.54" y2="666" gradientUnits="userSpaceOnUse">
<stop stop-color="#949494"/>
<stop offset="1"/>
</linearGradient>
<linearGradient id="paint53_linear" x1="1777.55" y1="576.395" x2="1677.87" y2="636.221" gradientUnits="userSpaceOnUse">
<stop stop-color="#CDCDCD"/>
<stop offset="1" stop-color="#9F9999"/>
</linearGradient>
<linearGradient id="paint54_linear" x1="1752.36" y1="609.701" x2="1689.02" y2="723.064" gradientUnits="userSpaceOnUse">
<stop stop-color="#949494"/>
<stop offset="1"/>
</linearGradient>
<linearGradient id="paint55_linear" x1="1777.68" y1="639.433" x2="1677.69" y2="699.894" gradientUnits="userSpaceOnUse">
<stop stop-color="#CDCDCD"/>
<stop offset="1" stop-color="#9F9999"/>
</linearGradient>
<linearGradient id="paint56_linear" x1="1752.3" y1="672.711" x2="1689.15" y2="786.365" gradientUnits="userSpaceOnUse">
<stop stop-color="#949494"/>
<stop offset="1"/>
</linearGradient>
<linearGradient id="paint57_linear" x1="1777.14" y1="706.684" x2="1681.39" y2="768.449" gradientUnits="userSpaceOnUse">
<stop stop-color="#CDCDCD"/>
<stop offset="1" stop-color="#9F9999"/>
</linearGradient>
<linearGradient id="paint58_linear" x1="1751.85" y1="737.526" x2="1694.47" y2="845.991" gradientUnits="userSpaceOnUse">
<stop stop-color="#949494"/>
<stop offset="1"/>
</linearGradient>
<linearGradient id="paint59_linear" x1="1777.34" y1="457.796" x2="1676.93" y2="525.201" gradientUnits="userSpaceOnUse">
<stop stop-color="#CDCDCD"/>
<stop offset="1" stop-color="#9F9999"/>
</linearGradient>
<linearGradient id="paint60_linear" x1="1752.18" y1="492.627" x2="1696.98" y2="612.884" gradientUnits="userSpaceOnUse">
<stop stop-color="#949494"/>
<stop offset="1"/>
</linearGradient>
<linearGradient id="paint61_linear" x1="1681.63" y1="445.764" x2="1593.24" y2="506.774" gradientUnits="userSpaceOnUse">
<stop stop-color="#CDCDCD"/>
<stop offset="1" stop-color="#9F9999"/>
</linearGradient>
<linearGradient id="paint62_linear" x1="1659.2" y1="476.267" x2="1612.24" y2="582.412" gradientUnits="userSpaceOnUse">
<stop stop-color="#949494"/>
<stop offset="1"/>
</linearGradient>
<linearGradient id="paint63_linear" x1="1682.29" y1="551.884" x2="1594.43" y2="606.478" gradientUnits="userSpaceOnUse">
<stop stop-color="#CDCDCD"/>
<stop offset="1" stop-color="#9F9999"/>
</linearGradient>
<linearGradient id="paint64_linear" x1="1659.25" y1="580.116" x2="1604.97" y2="678.686" gradientUnits="userSpaceOnUse">
<stop stop-color="#949494"/>
<stop offset="1"/>
</linearGradient>
<linearGradient id="paint65_linear" x1="1682.51" y1="601.073" x2="1594.67" y2="655.619" gradientUnits="userSpaceOnUse">
<stop stop-color="#CDCDCD"/>
<stop offset="1" stop-color="#9F9999"/>
</linearGradient>
<linearGradient id="paint66_linear" x1="1659.49" y1="629.304" x2="1605.2" y2="727.854" gradientUnits="userSpaceOnUse">
<stop stop-color="#949494"/>
<stop offset="1"/>
</linearGradient>
<linearGradient id="paint67_linear" x1="1682.39" y1="655.384" x2="1594.31" y2="710.491" gradientUnits="userSpaceOnUse">
<stop stop-color="#CDCDCD"/>
<stop offset="1" stop-color="#9F9999"/>
</linearGradient>
<linearGradient id="paint68_linear" x1="1659.19" y1="683.587" x2="1605.07" y2="782.375" gradientUnits="userSpaceOnUse">
<stop stop-color="#949494"/>
<stop offset="1"/>
</linearGradient>
<linearGradient id="paint69_linear" x1="1681.64" y1="713.308" x2="1597.5" y2="769.447" gradientUnits="userSpaceOnUse">
<stop stop-color="#CDCDCD"/>
<stop offset="1" stop-color="#9F9999"/>
</linearGradient>
<linearGradient id="paint70_linear" x1="1658.54" y1="739.417" x2="1609.34" y2="833.569" gradientUnits="userSpaceOnUse">
<stop stop-color="#949494"/>
<stop offset="1"/>
</linearGradient>
<linearGradient id="paint71_linear" x1="1682.76" y1="498.896" x2="1594.65" y2="560.051" gradientUnits="userSpaceOnUse">
<stop stop-color="#CDCDCD"/>
<stop offset="1" stop-color="#9F9999"/>
</linearGradient>
<linearGradient id="paint72_linear" x1="1659.76" y1="528.444" x2="1612.32" y2="632.491" gradientUnits="userSpaceOnUse">
<stop stop-color="#949494"/>
<stop offset="1"/>
</linearGradient>
<linearGradient id="paint73_linear" x1="1598.78" y1="463.023" x2="1518.75" y2="517.757" gradientUnits="userSpaceOnUse">
<stop stop-color="#CDCDCD"/>
<stop offset="1" stop-color="#9F9999"/>
</linearGradient>
<linearGradient id="paint74_linear" x1="1578.6" y1="490.737" x2="1535.71" y2="586.885" gradientUnits="userSpaceOnUse">
<stop stop-color="#949494"/>
<stop offset="1"/>
</linearGradient>
<linearGradient id="paint75_linear" x1="1599.35" y1="559.396" x2="1519.87" y2="608.33" gradientUnits="userSpaceOnUse">
<stop stop-color="#CDCDCD"/>
<stop offset="1" stop-color="#9F9999"/>
</linearGradient>
<linearGradient id="paint76_linear" x1="1578.62" y1="585.046" x2="1529.11" y2="674.224" gradientUnits="userSpaceOnUse">
<stop stop-color="#949494"/>
<stop offset="1"/>
</linearGradient>
<linearGradient id="paint77_linear" x1="1599.55" y1="604.064" x2="1520.08" y2="652.955" gradientUnits="userSpaceOnUse">
<stop stop-color="#CDCDCD"/>
<stop offset="1" stop-color="#9F9999"/>
</linearGradient>
<linearGradient id="paint78_linear" x1="1578.83" y1="629.717" x2="1529.3" y2="718.875" gradientUnits="userSpaceOnUse">
<stop stop-color="#949494"/>
<stop offset="1"/>
</linearGradient>
<linearGradient id="paint79_linear" x1="1599.43" y1="653.386" x2="1519.74" y2="702.784" gradientUnits="userSpaceOnUse">
<stop stop-color="#CDCDCD"/>
<stop offset="1" stop-color="#9F9999"/>
</linearGradient>
<linearGradient id="paint80_linear" x1="1578.55" y1="679.012" x2="1529.18" y2="768.389" gradientUnits="userSpaceOnUse">
<stop stop-color="#949494"/>
<stop offset="1"/>
</linearGradient>
<linearGradient id="paint81_linear" x1="1598.75" y1="705.989" x2="1522.58" y2="756.338" gradientUnits="userSpaceOnUse">
<stop stop-color="#CDCDCD"/>
<stop offset="1" stop-color="#9F9999"/>
</linearGradient>
<linearGradient id="paint82_linear" x1="1577.96" y1="729.712" x2="1533.06" y2="814.92" gradientUnits="userSpaceOnUse">
<stop stop-color="#949494"/>
<stop offset="1"/>
</linearGradient>
<linearGradient id="paint83_linear" x1="1599.79" y1="511.274" x2="1520.01" y2="566.141" gradientUnits="userSpaceOnUse">
<stop stop-color="#CDCDCD"/>
<stop offset="1" stop-color="#9F9999"/>
</linearGradient>
<linearGradient id="paint84_linear" x1="1579.1" y1="538.12" x2="1535.78" y2="632.354" gradientUnits="userSpaceOnUse">
<stop stop-color="#949494"/>
<stop offset="1"/>
</linearGradient>
<linearGradient id="paint85_linear" x1="1276.83" y1="447.033" x2="1345.45" y2="472.147" gradientUnits="userSpaceOnUse">
<stop stop-color="#3A3A3A"/>
<stop offset="0.559003" stop-color="#818181"/>
<stop offset="0.708333" stop-color="#CDCDCD"/>
<stop offset="1" stop-color="#818181"/>
</linearGradient>
<linearGradient id="paint86_linear" x1="1292.83" y1="439.231" x2="1309.69" y2="439.711" gradientUnits="userSpaceOnUse">
<stop stop-color="#707070"/>
<stop offset="1" stop-color="#CDCDCD"/>
</linearGradient>
<linearGradient id="paint87_linear" x1="1277.92" y1="439.948" x2="1300.4" y2="440.588" gradientUnits="userSpaceOnUse">
<stop stop-color="#747474"/>
<stop offset="1" stop-color="#CDCDCD"/>
</linearGradient>
<linearGradient id="paint88_linear" x1="1429.2" y1="145.069" x2="1189.2" y2="444.621" gradientUnits="userSpaceOnUse">
<stop stop-color="#C4C4C4"/>
<stop offset="1"/>
</linearGradient>
<linearGradient id="paint89_linear" x1="1425.13" y1="273.054" x2="1270.48" y2="282.267" gradientUnits="userSpaceOnUse">
<stop stop-color="#373737"/>
<stop offset="1" stop-color="#CDCDCD"/>
</linearGradient>
<linearGradient id="paint90_linear" x1="1276.51" y1="446.111" x2="1343.43" y2="471.716" gradientUnits="userSpaceOnUse">
<stop stop-color="#9C9C9C"/>
<stop offset="0.559003" stop-color="#EDEBEB"/>
<stop offset="0.708333" stop-color="#E1E1E1"/>
<stop offset="1" stop-color="#CDCDCD"/>
</linearGradient>
<linearGradient id="paint91_linear" x1="1448.58" y1="303.713" x2="1448.58" y2="434.274" gradientUnits="userSpaceOnUse">
<stop stop-color="#595959"/>
<stop offset="1" stop-color="#6C2929"/>
</linearGradient>
<linearGradient id="paint92_linear" x1="1469.57" y1="232.018" x2="1496.33" y2="455.997" gradientUnits="userSpaceOnUse">
<stop stop-color="#595959"/>
<stop offset="0.630208" stop-color="#312323"/>
<stop offset="1" stop-color="#6B2C2C"/>
</linearGradient>
<linearGradient id="paint93_linear" x1="1469.57" y1="303.713" x2="1476.57" y2="327.297" gradientUnits="userSpaceOnUse">
<stop/>
<stop offset="1" stop-color="#818181"/>
</linearGradient>
<linearGradient id="paint94_linear" x1="1421.34" y1="442.977" x2="1480.07" y2="494.808" gradientUnits="userSpaceOnUse">
<stop/>
<stop offset="1" stop-color="#818181"/>
</linearGradient>
<linearGradient id="paint95_linear" x1="1424.02" y1="445.751" x2="1467.63" y2="491.124" gradientUnits="userSpaceOnUse">
<stop stop-color="#211C1C"/>
<stop offset="1" stop-color="#AB9696"/>
</linearGradient>
<linearGradient id="paint96_linear" x1="29.6126" y1="-17.3193" x2="33.1241" y2="239.005" gradientUnits="userSpaceOnUse">
<stop stop-color="#C4C4C4"/>
<stop offset="1" stop-color="#656464"/>
</linearGradient>
<linearGradient id="paint97_linear" x1="-13.0979" y1="45.6074" x2="69.5856" y2="64.1697" gradientUnits="userSpaceOnUse">
<stop offset="0.0560623" stop-color="#4B4B4B"/>
<stop offset="1" stop-color="#818181"/>
</linearGradient>
<linearGradient id="paint98_linear" x1="-2.84737" y1="40.4116" x2="14.8063" y2="40.4116" gradientUnits="userSpaceOnUse">
<stop stop-color="#3E3C3C"/>
<stop offset="1" stop-color="#9F9999"/>
</linearGradient>
<linearGradient id="paint99_linear" x1="1302.83" y1="1037.02" x2="1293.44" y2="976.862" gradientUnits="userSpaceOnUse">
<stop/>
<stop offset="1" stop-color="#818181"/>
</linearGradient>
<linearGradient id="paint100_linear" x1="1404.57" y1="801.052" x2="1382.49" y2="958.258" gradientUnits="userSpaceOnUse">
<stop/>
<stop offset="1" stop-color="#9F9999"/>
</linearGradient>
<linearGradient id="paint101_linear" x1="1438.66" y1="1022.92" x2="1308.98" y2="993.575" gradientUnits="userSpaceOnUse">
<stop/>
<stop offset="1" stop-color="#9F9999"/>
</linearGradient>
<linearGradient id="paint102_linear" x1="1311.35" y1="1019.12" x2="1304.17" y2="951.885" gradientUnits="userSpaceOnUse">
<stop/>
<stop offset="1" stop-color="#9F9999"/>
</linearGradient>
<linearGradient id="paint103_linear" x1="1356.09" y1="1007.19" x2="1356.09" y2="1029.43" gradientUnits="userSpaceOnUse">
<stop/>
<stop offset="1" stop-color="#818181"/>
</linearGradient>
<linearGradient id="paint104_linear" x1="1352.36" y1="1016.95" x2="1347.95" y2="1035.9" gradientUnits="userSpaceOnUse">
<stop/>
<stop offset="1" stop-color="#CDCDCD"/>
</linearGradient>
<linearGradient id="paint105_linear" x1="1368.88" y1="979.523" x2="1443.61" y2="800.923" gradientUnits="userSpaceOnUse">
<stop stop-color="#C4C4C4"/>
<stop offset="0.0001" stop-color="#DEDCDC"/>
<stop offset="1" stop-color="white"/>
</linearGradient>
<linearGradient id="paint106_linear" x1="1416.82" y1="931.244" x2="1351.69" y2="997.868" gradientUnits="userSpaceOnUse">
<stop stop-color="#747474"/>
<stop offset="1" stop-color="#CDCDCD"/>
</linearGradient>
<linearGradient id="paint107_linear" x1="1393.65" y1="961.622" x2="1393.65" y2="975.183" gradientUnits="userSpaceOnUse">
<stop stop-color="#60DEDE"/>
<stop offset="1" stop-color="#3BFDFD"/>
</linearGradient>
<linearGradient id="paint108_linear" x1="1434.13" y1="895.442" x2="1434.13" y2="957.825" gradientUnits="userSpaceOnUse">
<stop stop-color="#C4C4C4"/>
<stop offset="1" stop-color="#9F9999"/>
</linearGradient>
<linearGradient id="paint109_linear" x1="1440" y1="732.922" x2="1473.29" y2="804.309" gradientUnits="userSpaceOnUse">
<stop stop-color="#C4C4C4"/>
<stop offset="1"/>
</linearGradient>
<linearGradient id="paint110_linear" x1="1367.47" y1="614.698" x2="1483.91" y2="696.104" gradientUnits="userSpaceOnUse">
<stop stop-color="#818181"/>
<stop offset="1" stop-color="#9F9999"/>
</linearGradient>
<linearGradient id="paint111_linear" x1="1413.1" y1="699.144" x2="1515.82" y2="753.295" gradientUnits="userSpaceOnUse">
<stop stop-color="#707070"/>
<stop offset="1" stop-color="#A5A5A5"/>
</linearGradient>
<linearGradient id="paint112_linear" x1="1374.19" y1="598.974" x2="1478.53" y2="694.17" gradientUnits="userSpaceOnUse">
<stop stop-color="#0064AB"/>
<stop offset="1" stop-color="#2790DB"/>
</linearGradient>
<linearGradient id="paint113_linear" x1="1442.97" y1="607.328" x2="1298.41" y2="652.519" gradientUnits="userSpaceOnUse">
<stop stop-color="#0064AB"/>
<stop offset="1" stop-color="white"/>
</linearGradient>
<linearGradient id="paint114_linear" x1="1496.69" y1="774.853" x2="1373.88" y2="731.501" gradientUnits="userSpaceOnUse">
<stop stop-color="#CECBCB"/>
<stop offset="1" stop-color="#818181"/>
<stop offset="1" stop-color="#EBEBEB"/>
</linearGradient>
<linearGradient id="paint115_linear" x1="1478.91" y1="748.646" x2="1437.6" y2="748.646" gradientUnits="userSpaceOnUse">
<stop stop-color="#C4C4C4"/>
<stop offset="1" stop-color="#9D9D9D"/>
</linearGradient>
<linearGradient id="paint116_linear" x1="952.895" y1="668.174" x2="1009.41" y2="820.999" gradientUnits="userSpaceOnUse">
<stop stop-color="#28CF93"/>
<stop offset="1" stop-color="#106144"/>
</linearGradient>
<linearGradient id="paint117_linear" x1="891.412" y1="635.157" x2="941.696" y2="832.874" gradientUnits="userSpaceOnUse">
<stop stop-color="#22AE7C"/>
<stop offset="1" stop-color="#0A4630"/>
</linearGradient>
<linearGradient id="paint118_linear" x1="826.71" y1="242.415" x2="1017.62" y2="483.438" gradientUnits="userSpaceOnUse">
<stop stop-color="#1D8787"/>
<stop offset="1" stop-color="#22C0C0"/>
</linearGradient>
<linearGradient id="paint119_linear" x1="869.675" y1="266.363" x2="869.675" y2="391.578" gradientUnits="userSpaceOnUse">
<stop stop-color="#21A0A0"/>
<stop offset="1" stop-color="#1EC8C8"/>
</linearGradient>
<linearGradient id="paint120_linear" x1="397.518" y1="673.268" x2="339.015" y2="824.332" gradientUnits="userSpaceOnUse">
<stop stop-color="#6C1994"/>
<stop offset="1" stop-color="#2C093E"/>
</linearGradient>
<linearGradient id="paint121_linear" x1="456.223" y1="640.251" x2="403.866" y2="836.811" gradientUnits="userSpaceOnUse">
<stop stop-color="#4D0F6B"/>
<stop offset="1" stop-color="#250A46"/>
</linearGradient>
<linearGradient id="paint122_linear" x1="518.001" y1="247.509" x2="325.258" y2="479.851" gradientUnits="userSpaceOnUse">
<stop stop-color="#1B1E68"/>
<stop offset="1" stop-color="#227EC0"/>
</linearGradient>
<linearGradient id="paint123_linear" x1="437.905" y1="263.981" x2="431.657" y2="334.373" gradientUnits="userSpaceOnUse">
<stop stop-color="white"/>
<stop offset="1" stop-color="#CDCDCD"/>
</linearGradient>
<linearGradient id="paint124_linear" x1="445.048" y1="287.03" x2="445.048" y2="336.244" gradientUnits="userSpaceOnUse">
<stop stop-color="#BF0D0D"/>
<stop offset="1" stop-color="#830707"/>
</linearGradient>
<linearGradient id="paint125_linear" x1="448.321" y1="277.368" x2="448.321" y2="455.655" gradientUnits="userSpaceOnUse">
<stop stop-color="#1F5399"/>
<stop offset="1" stop-color="#1F5FA4"/>
</linearGradient>
</defs>
</svg>
