<svg width="29" height="26" viewBox="0 0 29 26" fill="none" xmlns="http://www.w3.org/2000/svg">
<path d="M22.2074 2.21533H6.64984C3.94744 2.21533 1.7489 4.18598 1.7489 6.60882V11.25V20.5575C1.7489 22.9803 3.94744 24.9509 6.64984 24.9509H22.2079C24.9103 24.9509 27.1084 22.9803 27.1084 20.5575V11.2495V6.60836C27.1079 4.18552 24.9098 2.21533 22.2074 2.21533ZM23.6131 4.83537L24.1737 4.83354V5.33388V8.68724L19.8897 8.69963L19.8749 4.84638L23.6131 4.83537ZM10.8091 11.2495C11.6214 10.2419 12.9391 9.58107 14.4286 9.58107C15.9182 9.58107 17.2359 10.2419 18.0472 11.2495C18.5756 11.9071 18.8922 12.7115 18.8922 13.5829C18.8922 15.7893 16.8881 17.5843 14.4281 17.5843C11.9667 17.5843 9.96454 15.7893 9.96454 13.5829C9.96505 12.7115 10.2807 11.9071 10.8091 11.2495ZM24.6372 20.557C24.6372 21.759 23.5471 22.7354 22.2074 22.7354H6.64984C5.30964 22.7354 4.21958 21.759 4.21958 20.557V11.2495H8.00488C7.67801 11.9704 7.49437 12.7579 7.49437 13.5829C7.49437 17.0101 10.6045 19.8003 14.4286 19.8003C18.2523 19.8003 21.3624 17.0101 21.3624 13.5829C21.3624 12.7579 21.1777 11.9704 20.8509 11.2495H24.6372V20.557Z" fill="#E2E2E2"/>
</svg>
