<svg width="45" height="39" viewBox="0 0 45 39" fill="none" xmlns="http://www.w3.org/2000/svg">
<path fill-rule="evenodd" clip-rule="evenodd" d="M16.4123 28.485V16.5908H12.1705V28.485H16.4123ZM16.4123 12.3748C16.3871 11.3104 15.5685 10.5 14.2388 10.5C12.9087 10.5 12.0397 11.3104 12.0397 12.3748C12.0397 13.4161 12.8835 14.25 14.1879 14.25H14.2132C15.5685 14.25 16.4123 13.4161 16.4123 12.3748ZM23.3325 28.485V21.7083C23.3325 21.3456 23.3628 20.9829 23.4858 20.7244C23.8223 19.9994 24.588 19.2489 25.8737 19.2489C27.5579 19.2489 28.6142 20.0773 28.6142 21.7083V28.485H32.8846V21.5269C32.8846 17.7996 30.5888 16.0652 27.5264 16.0652C25.0156 16.0652 23.9134 17.2818 23.3015 18.1098L23.3321 16.519H19.0691C19.1304 17.6577 19.0691 28.485 19.0691 28.485H23.3325Z" fill="#E2E2E2"/>
</svg>
