<svg width="30" height="30" viewBox="0 0 40 38" fill="none" xmlns="http://www.w3.org/2000/svg">
<g id="settings_phone_24px">
<path id="icon/action/settings_phone_24px" fill-rule="evenodd" clip-rule="evenodd" d="M33.3333 24.5417C31.25 24.5417 29.25 24.225 27.3833 23.6392C27.2167 23.5917 27.0333 23.56 26.8667 23.56C26.4333 23.56 26.0167 23.7183 25.6833 24.0192L22.0167 27.5025C17.3 25.2225 13.4333 21.565 11.0333 17.0842L14.7 13.585C15.1667 13.1575 15.3 12.54 15.1167 11.9858C14.5 10.2125 14.1667 8.3125 14.1667 6.33333C14.1667 5.4625 13.4167 4.75 12.5 4.75H6.66667C5.75 4.75 5 5.4625 5 6.33333C5 21.2008 17.6833 33.25 33.3333 33.25C34.25 33.25 35 32.5375 35 31.6667V26.125C35 25.2542 34.25 24.5417 33.3333 24.5417ZM21.6667 14.25H18.3334V17.4167H21.6667V14.25ZM28.3333 14.25H25V17.4167H28.3333V14.25ZM10.8833 7.91666H8.38325C8.53325 10.0067 8.96658 12.0175 9.64992 13.9333L11.6499 12.0175C11.2499 10.6875 10.9999 9.31 10.8833 7.91666ZM31.6667 30.0358C29.4667 29.8933 27.3334 29.4817 25.3334 28.8325L27.3334 26.9325C28.7501 27.3125 30.2001 27.55 31.6667 27.645V30.0358ZM35 14.25H31.6666V17.4167H35V14.25Z" fill="#E2E2E2"/>
</g>
</svg>
