<svg width="30" height="30" viewBox="0 0 40 38" fill="none" xmlns="http://www.w3.org/2000/svg">
<g id="room_24px">
<path id="icon/action/room_24px" fill-rule="evenodd" clip-rule="evenodd" d="M19.9997 3.16669C13.5497 3.16669 8.33301 8.12252 8.33301 14.25C8.33301 22.5625 19.9997 34.8334 19.9997 34.8334C19.9997 34.8334 31.6663 22.5625 31.6663 14.25C31.6663 8.12252 26.4497 3.16669 19.9997 3.16669ZM11.6663 14.25C11.6663 9.88002 15.3997 6.33335 19.9997 6.33335C24.5997 6.33335 28.333 9.88002 28.333 14.25C28.333 18.81 23.533 25.6342 19.9997 29.8934C16.533 25.6659 11.6663 18.7625 11.6663 14.25ZM15.833 14.25C15.833 12.0639 17.6985 10.2917 19.9997 10.2917C21.4883 10.2917 22.8638 11.0461 23.6081 12.2709C24.3524 13.4956 24.3524 15.0045 23.6081 16.2292C22.8638 17.4539 21.4883 18.2084 19.9997 18.2084C17.6985 18.2084 15.833 16.4361 15.833 14.25Z" fill="#E2E2E2"/>
</g>
</svg>
