<svg width="127" height="127" viewBox="0 0 127 127" fill="none" xmlns="http://www.w3.org/2000/svg">
<path d="M1 62.0089L60.9414 126C71.5806 116.647 82.2217 107.295 92.8609 97.9421C87.2908 96.6863 68.1048 91.6352 53.6315 73.0841C37.8519 52.8579 38.6688 30.6778 39.0117 25.3359C26.3399 37.5602 13.6699 49.7845 1 62.0089Z" fill="white" stroke="white" stroke-miterlimit="10"/>
<path d="M96.273 94.0058L126 66.1931L83.8459 20.9072C81.3412 24.7084 73.1161 38.2084 75.0736 56.5952C77.4839 79.2263 93.4697 91.864 96.273 94.0058Z" fill="white" stroke="white" stroke-miterlimit="10"/>
<path d="M65.0837 1L70.6884 7.12303C67.0566 12.3561 61.4769 22.0173 59.9664 35.181C56.9184 61.7537 72.9311 81.0384 76.0485 84.6517C73.1893 82.3853 53.1729 65.9583 52.6565 38.3809C52.2924 18.9656 61.8064 5.3055 65.0837 1Z" fill="white" stroke="white" stroke-miterlimit="10"/>
</svg>
