<svg width="70" height="70" viewBox="0 0 538 502" fill="none" xmlns="http://www.w3.org/2000/svg">
<path d="M1 245.055L257.923 501.04C303.525 463.626 349.136 426.213 394.738 388.799C370.863 383.775 288.627 363.569 226.591 289.359C158.956 208.448 162.457 119.72 163.927 98.3513C109.613 147.252 55.3064 196.154 1 245.055Z" fill="#0064AB" stroke="white" stroke-miterlimit="10"/>
<path d="M409.363 373.055L536.78 261.796L356.097 80.6374C345.362 95.8433 310.107 149.847 318.497 223.401C328.829 313.932 397.347 364.487 409.363 373.055Z" fill="#0064AB" stroke="white" stroke-miterlimit="10"/>
<path d="M275.678 1L299.702 25.4941C284.135 46.428 260.219 85.0757 253.744 137.735C240.68 244.034 309.314 321.179 322.676 335.634C310.421 326.567 224.626 260.854 222.413 150.536C220.852 72.8683 261.631 18.2234 275.678 1Z" fill="#0064AB" stroke="white" stroke-miterlimit="10"/>
</svg>
